%TF.GenerationSoftware,KiCad,Pcbnew,7.0.6-7.0.6~ubuntu22.04.1*%
%TF.CreationDate,2023-08-04T16:05:21+03:00*%
%TF.ProjectId,SolderPlate_Control,536f6c64-6572-4506-9c61-74655f436f6e,rev?*%
%TF.SameCoordinates,Original*%
%TF.FileFunction,Legend,Top*%
%TF.FilePolarity,Positive*%
%FSLAX46Y46*%
G04 Gerber Fmt 4.6, Leading zero omitted, Abs format (unit mm)*
G04 Created by KiCad (PCBNEW 7.0.6-7.0.6~ubuntu22.04.1) date 2023-08-04 16:05:21*
%MOMM*%
%LPD*%
G01*
G04 APERTURE LIST*
G04 Aperture macros list*
%AMRoundRect*
0 Rectangle with rounded corners*
0 $1 Rounding radius*
0 $2 $3 $4 $5 $6 $7 $8 $9 X,Y pos of 4 corners*
0 Add a 4 corners polygon primitive as box body*
4,1,4,$2,$3,$4,$5,$6,$7,$8,$9,$2,$3,0*
0 Add four circle primitives for the rounded corners*
1,1,$1+$1,$2,$3*
1,1,$1+$1,$4,$5*
1,1,$1+$1,$6,$7*
1,1,$1+$1,$8,$9*
0 Add four rect primitives between the rounded corners*
20,1,$1+$1,$2,$3,$4,$5,0*
20,1,$1+$1,$4,$5,$6,$7,0*
20,1,$1+$1,$6,$7,$8,$9,0*
20,1,$1+$1,$8,$9,$2,$3,0*%
G04 Aperture macros list end*
%ADD10C,0.150000*%
%ADD11C,0.120000*%
%ADD12RoundRect,0.200000X-0.200000X-0.275000X0.200000X-0.275000X0.200000X0.275000X-0.200000X0.275000X0*%
%ADD13RoundRect,0.200000X0.200000X0.275000X-0.200000X0.275000X-0.200000X-0.275000X0.200000X-0.275000X0*%
%ADD14R,1.700000X1.700000*%
%ADD15O,1.700000X1.700000*%
%ADD16RoundRect,0.225000X0.225000X0.250000X-0.225000X0.250000X-0.225000X-0.250000X0.225000X-0.250000X0*%
%ADD17RoundRect,0.225000X-0.225000X-0.250000X0.225000X-0.250000X0.225000X0.250000X-0.225000X0.250000X0*%
%ADD18C,1.600000*%
%ADD19C,1.800000*%
%ADD20O,2.900000X2.800000*%
G04 APERTURE END LIST*
D10*
X200000Y20000000D02*
X23000000Y20000000D01*
X200000Y2000000D02*
X23000000Y2000000D01*
X1070112Y1517943D02*
X1070112Y875086D01*
X1070112Y875086D02*
X1027255Y746515D01*
X1027255Y746515D02*
X941541Y660800D01*
X941541Y660800D02*
X812969Y617943D01*
X812969Y617943D02*
X727255Y617943D01*
X1927255Y617943D02*
X1498683Y617943D01*
X1498683Y617943D02*
X1498683Y1517943D01*
X2741540Y703658D02*
X2698683Y660800D01*
X2698683Y660800D02*
X2570111Y617943D01*
X2570111Y617943D02*
X2484397Y617943D01*
X2484397Y617943D02*
X2355826Y660800D01*
X2355826Y660800D02*
X2270111Y746515D01*
X2270111Y746515D02*
X2227254Y832229D01*
X2227254Y832229D02*
X2184397Y1003658D01*
X2184397Y1003658D02*
X2184397Y1132229D01*
X2184397Y1132229D02*
X2227254Y1303658D01*
X2227254Y1303658D02*
X2270111Y1389372D01*
X2270111Y1389372D02*
X2355826Y1475086D01*
X2355826Y1475086D02*
X2484397Y1517943D01*
X2484397Y1517943D02*
X2570111Y1517943D01*
X2570111Y1517943D02*
X2698683Y1475086D01*
X2698683Y1475086D02*
X2741540Y1432229D01*
X3384397Y1517943D02*
X3384397Y875086D01*
X3384397Y875086D02*
X3341540Y746515D01*
X3341540Y746515D02*
X3255826Y660800D01*
X3255826Y660800D02*
X3127254Y617943D01*
X3127254Y617943D02*
X3041540Y617943D01*
X4241540Y617943D02*
X3812968Y617943D01*
X3812968Y617943D02*
X3812968Y1517943D01*
X5055825Y703658D02*
X5012968Y660800D01*
X5012968Y660800D02*
X4884396Y617943D01*
X4884396Y617943D02*
X4798682Y617943D01*
X4798682Y617943D02*
X4670111Y660800D01*
X4670111Y660800D02*
X4584396Y746515D01*
X4584396Y746515D02*
X4541539Y832229D01*
X4541539Y832229D02*
X4498682Y1003658D01*
X4498682Y1003658D02*
X4498682Y1132229D01*
X4498682Y1132229D02*
X4541539Y1303658D01*
X4541539Y1303658D02*
X4584396Y1389372D01*
X4584396Y1389372D02*
X4670111Y1475086D01*
X4670111Y1475086D02*
X4798682Y1517943D01*
X4798682Y1517943D02*
X4884396Y1517943D01*
X4884396Y1517943D02*
X5012968Y1475086D01*
X5012968Y1475086D02*
X5055825Y1432229D01*
X5698682Y1517943D02*
X5698682Y875086D01*
X5698682Y875086D02*
X5655825Y746515D01*
X5655825Y746515D02*
X5570111Y660800D01*
X5570111Y660800D02*
X5441539Y617943D01*
X5441539Y617943D02*
X5355825Y617943D01*
X6555825Y617943D02*
X6127253Y617943D01*
X6127253Y617943D02*
X6127253Y1517943D01*
X7370110Y703658D02*
X7327253Y660800D01*
X7327253Y660800D02*
X7198681Y617943D01*
X7198681Y617943D02*
X7112967Y617943D01*
X7112967Y617943D02*
X6984396Y660800D01*
X6984396Y660800D02*
X6898681Y746515D01*
X6898681Y746515D02*
X6855824Y832229D01*
X6855824Y832229D02*
X6812967Y1003658D01*
X6812967Y1003658D02*
X6812967Y1132229D01*
X6812967Y1132229D02*
X6855824Y1303658D01*
X6855824Y1303658D02*
X6898681Y1389372D01*
X6898681Y1389372D02*
X6984396Y1475086D01*
X6984396Y1475086D02*
X7112967Y1517943D01*
X7112967Y1517943D02*
X7198681Y1517943D01*
X7198681Y1517943D02*
X7327253Y1475086D01*
X7327253Y1475086D02*
X7370110Y1432229D01*
X8012967Y1517943D02*
X8012967Y875086D01*
X8012967Y875086D02*
X7970110Y746515D01*
X7970110Y746515D02*
X7884396Y660800D01*
X7884396Y660800D02*
X7755824Y617943D01*
X7755824Y617943D02*
X7670110Y617943D01*
X8870110Y617943D02*
X8441538Y617943D01*
X8441538Y617943D02*
X8441538Y1517943D01*
X9684395Y703658D02*
X9641538Y660800D01*
X9641538Y660800D02*
X9512966Y617943D01*
X9512966Y617943D02*
X9427252Y617943D01*
X9427252Y617943D02*
X9298681Y660800D01*
X9298681Y660800D02*
X9212966Y746515D01*
X9212966Y746515D02*
X9170109Y832229D01*
X9170109Y832229D02*
X9127252Y1003658D01*
X9127252Y1003658D02*
X9127252Y1132229D01*
X9127252Y1132229D02*
X9170109Y1303658D01*
X9170109Y1303658D02*
X9212966Y1389372D01*
X9212966Y1389372D02*
X9298681Y1475086D01*
X9298681Y1475086D02*
X9427252Y1517943D01*
X9427252Y1517943D02*
X9512966Y1517943D01*
X9512966Y1517943D02*
X9641538Y1475086D01*
X9641538Y1475086D02*
X9684395Y1432229D01*
X10766667Y16537705D02*
X10500000Y16918658D01*
X10309524Y16537705D02*
X10309524Y17337705D01*
X10309524Y17337705D02*
X10614286Y17337705D01*
X10614286Y17337705D02*
X10690476Y17299610D01*
X10690476Y17299610D02*
X10728571Y17261515D01*
X10728571Y17261515D02*
X10766667Y17185324D01*
X10766667Y17185324D02*
X10766667Y17071039D01*
X10766667Y17071039D02*
X10728571Y16994848D01*
X10728571Y16994848D02*
X10690476Y16956753D01*
X10690476Y16956753D02*
X10614286Y16918658D01*
X10614286Y16918658D02*
X10309524Y16918658D01*
X11452381Y17071039D02*
X11452381Y16537705D01*
X11261905Y17375800D02*
X11071428Y16804372D01*
X11071428Y16804372D02*
X11566667Y16804372D01*
X8966667Y2337705D02*
X8700000Y2718658D01*
X8509524Y2337705D02*
X8509524Y3137705D01*
X8509524Y3137705D02*
X8814286Y3137705D01*
X8814286Y3137705D02*
X8890476Y3099610D01*
X8890476Y3099610D02*
X8928571Y3061515D01*
X8928571Y3061515D02*
X8966667Y2985324D01*
X8966667Y2985324D02*
X8966667Y2871039D01*
X8966667Y2871039D02*
X8928571Y2794848D01*
X8928571Y2794848D02*
X8890476Y2756753D01*
X8890476Y2756753D02*
X8814286Y2718658D01*
X8814286Y2718658D02*
X8509524Y2718658D01*
X9652381Y3137705D02*
X9500000Y3137705D01*
X9500000Y3137705D02*
X9423809Y3099610D01*
X9423809Y3099610D02*
X9385714Y3061515D01*
X9385714Y3061515D02*
X9309524Y2947229D01*
X9309524Y2947229D02*
X9271428Y2794848D01*
X9271428Y2794848D02*
X9271428Y2490086D01*
X9271428Y2490086D02*
X9309524Y2413896D01*
X9309524Y2413896D02*
X9347619Y2375800D01*
X9347619Y2375800D02*
X9423809Y2337705D01*
X9423809Y2337705D02*
X9576190Y2337705D01*
X9576190Y2337705D02*
X9652381Y2375800D01*
X9652381Y2375800D02*
X9690476Y2413896D01*
X9690476Y2413896D02*
X9728571Y2490086D01*
X9728571Y2490086D02*
X9728571Y2680562D01*
X9728571Y2680562D02*
X9690476Y2756753D01*
X9690476Y2756753D02*
X9652381Y2794848D01*
X9652381Y2794848D02*
X9576190Y2832943D01*
X9576190Y2832943D02*
X9423809Y2832943D01*
X9423809Y2832943D02*
X9347619Y2794848D01*
X9347619Y2794848D02*
X9309524Y2756753D01*
X9309524Y2756753D02*
X9271428Y2680562D01*
X19883333Y17997705D02*
X19883333Y17426277D01*
X19883333Y17426277D02*
X19845238Y17311991D01*
X19845238Y17311991D02*
X19769047Y17235800D01*
X19769047Y17235800D02*
X19654762Y17197705D01*
X19654762Y17197705D02*
X19578571Y17197705D01*
X20683333Y17197705D02*
X20226190Y17197705D01*
X20454762Y17197705D02*
X20454762Y17997705D01*
X20454762Y17997705D02*
X20378571Y17883420D01*
X20378571Y17883420D02*
X20302381Y17807229D01*
X20302381Y17807229D02*
X20226190Y17769134D01*
X14066667Y7737705D02*
X13800000Y8118658D01*
X13609524Y7737705D02*
X13609524Y8537705D01*
X13609524Y8537705D02*
X13914286Y8537705D01*
X13914286Y8537705D02*
X13990476Y8499610D01*
X13990476Y8499610D02*
X14028571Y8461515D01*
X14028571Y8461515D02*
X14066667Y8385324D01*
X14066667Y8385324D02*
X14066667Y8271039D01*
X14066667Y8271039D02*
X14028571Y8194848D01*
X14028571Y8194848D02*
X13990476Y8156753D01*
X13990476Y8156753D02*
X13914286Y8118658D01*
X13914286Y8118658D02*
X13609524Y8118658D01*
X14828571Y7737705D02*
X14371428Y7737705D01*
X14600000Y7737705D02*
X14600000Y8537705D01*
X14600000Y8537705D02*
X14523809Y8423420D01*
X14523809Y8423420D02*
X14447619Y8347229D01*
X14447619Y8347229D02*
X14371428Y8309134D01*
X17266667Y3437705D02*
X17000000Y3818658D01*
X16809524Y3437705D02*
X16809524Y4237705D01*
X16809524Y4237705D02*
X17114286Y4237705D01*
X17114286Y4237705D02*
X17190476Y4199610D01*
X17190476Y4199610D02*
X17228571Y4161515D01*
X17228571Y4161515D02*
X17266667Y4085324D01*
X17266667Y4085324D02*
X17266667Y3971039D01*
X17266667Y3971039D02*
X17228571Y3894848D01*
X17228571Y3894848D02*
X17190476Y3856753D01*
X17190476Y3856753D02*
X17114286Y3818658D01*
X17114286Y3818658D02*
X16809524Y3818658D01*
X17533333Y4237705D02*
X18066667Y4237705D01*
X18066667Y4237705D02*
X17723809Y3437705D01*
X13966667Y9637705D02*
X13700000Y10018658D01*
X13509524Y9637705D02*
X13509524Y10437705D01*
X13509524Y10437705D02*
X13814286Y10437705D01*
X13814286Y10437705D02*
X13890476Y10399610D01*
X13890476Y10399610D02*
X13928571Y10361515D01*
X13928571Y10361515D02*
X13966667Y10285324D01*
X13966667Y10285324D02*
X13966667Y10171039D01*
X13966667Y10171039D02*
X13928571Y10094848D01*
X13928571Y10094848D02*
X13890476Y10056753D01*
X13890476Y10056753D02*
X13814286Y10018658D01*
X13814286Y10018658D02*
X13509524Y10018658D01*
X14271428Y10361515D02*
X14309524Y10399610D01*
X14309524Y10399610D02*
X14385714Y10437705D01*
X14385714Y10437705D02*
X14576190Y10437705D01*
X14576190Y10437705D02*
X14652381Y10399610D01*
X14652381Y10399610D02*
X14690476Y10361515D01*
X14690476Y10361515D02*
X14728571Y10285324D01*
X14728571Y10285324D02*
X14728571Y10209134D01*
X14728571Y10209134D02*
X14690476Y10094848D01*
X14690476Y10094848D02*
X14233333Y9637705D01*
X14233333Y9637705D02*
X14728571Y9637705D01*
X13866667Y5513896D02*
X13828571Y5475800D01*
X13828571Y5475800D02*
X13714286Y5437705D01*
X13714286Y5437705D02*
X13638095Y5437705D01*
X13638095Y5437705D02*
X13523809Y5475800D01*
X13523809Y5475800D02*
X13447619Y5551991D01*
X13447619Y5551991D02*
X13409524Y5628181D01*
X13409524Y5628181D02*
X13371428Y5780562D01*
X13371428Y5780562D02*
X13371428Y5894848D01*
X13371428Y5894848D02*
X13409524Y6047229D01*
X13409524Y6047229D02*
X13447619Y6123420D01*
X13447619Y6123420D02*
X13523809Y6199610D01*
X13523809Y6199610D02*
X13638095Y6237705D01*
X13638095Y6237705D02*
X13714286Y6237705D01*
X13714286Y6237705D02*
X13828571Y6199610D01*
X13828571Y6199610D02*
X13866667Y6161515D01*
X14171428Y6161515D02*
X14209524Y6199610D01*
X14209524Y6199610D02*
X14285714Y6237705D01*
X14285714Y6237705D02*
X14476190Y6237705D01*
X14476190Y6237705D02*
X14552381Y6199610D01*
X14552381Y6199610D02*
X14590476Y6161515D01*
X14590476Y6161515D02*
X14628571Y6085324D01*
X14628571Y6085324D02*
X14628571Y6009134D01*
X14628571Y6009134D02*
X14590476Y5894848D01*
X14590476Y5894848D02*
X14133333Y5437705D01*
X14133333Y5437705D02*
X14628571Y5437705D01*
X12666667Y15613896D02*
X12628571Y15575800D01*
X12628571Y15575800D02*
X12514286Y15537705D01*
X12514286Y15537705D02*
X12438095Y15537705D01*
X12438095Y15537705D02*
X12323809Y15575800D01*
X12323809Y15575800D02*
X12247619Y15651991D01*
X12247619Y15651991D02*
X12209524Y15728181D01*
X12209524Y15728181D02*
X12171428Y15880562D01*
X12171428Y15880562D02*
X12171428Y15994848D01*
X12171428Y15994848D02*
X12209524Y16147229D01*
X12209524Y16147229D02*
X12247619Y16223420D01*
X12247619Y16223420D02*
X12323809Y16299610D01*
X12323809Y16299610D02*
X12438095Y16337705D01*
X12438095Y16337705D02*
X12514286Y16337705D01*
X12514286Y16337705D02*
X12628571Y16299610D01*
X12628571Y16299610D02*
X12666667Y16261515D01*
X13428571Y15537705D02*
X12971428Y15537705D01*
X13200000Y15537705D02*
X13200000Y16337705D01*
X13200000Y16337705D02*
X13123809Y16223420D01*
X13123809Y16223420D02*
X13047619Y16147229D01*
X13047619Y16147229D02*
X12971428Y16109134D01*
X13966667Y11637705D02*
X13700000Y12018658D01*
X13509524Y11637705D02*
X13509524Y12437705D01*
X13509524Y12437705D02*
X13814286Y12437705D01*
X13814286Y12437705D02*
X13890476Y12399610D01*
X13890476Y12399610D02*
X13928571Y12361515D01*
X13928571Y12361515D02*
X13966667Y12285324D01*
X13966667Y12285324D02*
X13966667Y12171039D01*
X13966667Y12171039D02*
X13928571Y12094848D01*
X13928571Y12094848D02*
X13890476Y12056753D01*
X13890476Y12056753D02*
X13814286Y12018658D01*
X13814286Y12018658D02*
X13509524Y12018658D01*
X14233333Y12437705D02*
X14728571Y12437705D01*
X14728571Y12437705D02*
X14461905Y12132943D01*
X14461905Y12132943D02*
X14576190Y12132943D01*
X14576190Y12132943D02*
X14652381Y12094848D01*
X14652381Y12094848D02*
X14690476Y12056753D01*
X14690476Y12056753D02*
X14728571Y11980562D01*
X14728571Y11980562D02*
X14728571Y11790086D01*
X14728571Y11790086D02*
X14690476Y11713896D01*
X14690476Y11713896D02*
X14652381Y11675800D01*
X14652381Y11675800D02*
X14576190Y11637705D01*
X14576190Y11637705D02*
X14347619Y11637705D01*
X14347619Y11637705D02*
X14271428Y11675800D01*
X14271428Y11675800D02*
X14233333Y11713896D01*
X17866667Y18137705D02*
X17600000Y18518658D01*
X17409524Y18137705D02*
X17409524Y18937705D01*
X17409524Y18937705D02*
X17714286Y18937705D01*
X17714286Y18937705D02*
X17790476Y18899610D01*
X17790476Y18899610D02*
X17828571Y18861515D01*
X17828571Y18861515D02*
X17866667Y18785324D01*
X17866667Y18785324D02*
X17866667Y18671039D01*
X17866667Y18671039D02*
X17828571Y18594848D01*
X17828571Y18594848D02*
X17790476Y18556753D01*
X17790476Y18556753D02*
X17714286Y18518658D01*
X17714286Y18518658D02*
X17409524Y18518658D01*
X18590476Y18937705D02*
X18209524Y18937705D01*
X18209524Y18937705D02*
X18171428Y18556753D01*
X18171428Y18556753D02*
X18209524Y18594848D01*
X18209524Y18594848D02*
X18285714Y18632943D01*
X18285714Y18632943D02*
X18476190Y18632943D01*
X18476190Y18632943D02*
X18552381Y18594848D01*
X18552381Y18594848D02*
X18590476Y18556753D01*
X18590476Y18556753D02*
X18628571Y18480562D01*
X18628571Y18480562D02*
X18628571Y18290086D01*
X18628571Y18290086D02*
X18590476Y18213896D01*
X18590476Y18213896D02*
X18552381Y18175800D01*
X18552381Y18175800D02*
X18476190Y18137705D01*
X18476190Y18137705D02*
X18285714Y18137705D01*
X18285714Y18137705D02*
X18209524Y18175800D01*
X18209524Y18175800D02*
X18171428Y18213896D01*
X3059523Y2412296D02*
X3059523Y3059915D01*
X3059523Y3059915D02*
X3021428Y3136105D01*
X3021428Y3136105D02*
X2983333Y3174200D01*
X2983333Y3174200D02*
X2907142Y3212296D01*
X2907142Y3212296D02*
X2754761Y3212296D01*
X2754761Y3212296D02*
X2678571Y3174200D01*
X2678571Y3174200D02*
X2640476Y3136105D01*
X2640476Y3136105D02*
X2602380Y3059915D01*
X2602380Y3059915D02*
X2602380Y2412296D01*
X1802381Y3212296D02*
X2259524Y3212296D01*
X2030952Y3212296D02*
X2030952Y2412296D01*
X2030952Y2412296D02*
X2107143Y2526581D01*
X2107143Y2526581D02*
X2183333Y2602772D01*
X2183333Y2602772D02*
X2259524Y2640867D01*
D11*
%TO.C,R4*%
X11487742Y18972500D02*
X11962258Y18972500D01*
X11487742Y17927500D02*
X11962258Y17927500D01*
%TO.C,R6*%
X11737258Y3277500D02*
X11262742Y3277500D01*
X11737258Y4322500D02*
X11262742Y4322500D01*
%TO.C,J1*%
X17570000Y16110000D02*
X18900000Y16110000D01*
X17570000Y14780000D02*
X17570000Y16110000D01*
X17570000Y13510000D02*
X17570000Y5830000D01*
X17570000Y13510000D02*
X20170000Y13510000D01*
X17570000Y5830000D02*
X22770000Y5830000D01*
X20170000Y16110000D02*
X22770000Y16110000D01*
X20170000Y13510000D02*
X20170000Y16110000D01*
X22770000Y16110000D02*
X22770000Y5830000D01*
%TO.C,R1*%
X11837258Y7527500D02*
X11362742Y7527500D01*
X11837258Y8572500D02*
X11362742Y8572500D01*
%TO.C,R7*%
X14562742Y4322500D02*
X15037258Y4322500D01*
X14562742Y3277500D02*
X15037258Y3277500D01*
%TO.C,R2*%
X11787258Y9527500D02*
X11312742Y9527500D01*
X11787258Y10572500D02*
X11312742Y10572500D01*
%TO.C,C2*%
X11640580Y5290000D02*
X11359420Y5290000D01*
X11640580Y6310000D02*
X11359420Y6310000D01*
%TO.C,C1*%
X14984420Y17060000D02*
X15265580Y17060000D01*
X14984420Y16040000D02*
X15265580Y16040000D01*
%TO.C,R3*%
X11737258Y11527500D02*
X11262742Y11527500D01*
X11737258Y12572500D02*
X11262742Y12572500D01*
%TO.C,R5*%
X15412258Y17927500D02*
X14937742Y17927500D01*
X15412258Y18972500D02*
X14937742Y18972500D01*
%TO.C,U1*%
X9250000Y4450000D02*
X9250000Y17650000D01*
X9250000Y17650000D02*
X8450000Y17650000D01*
X8450000Y4450000D02*
X9250000Y4450000D01*
X4850000Y17650000D02*
X450000Y17650000D01*
X450000Y4450000D02*
X4850000Y4450000D01*
X450000Y17650000D02*
X450000Y4450000D01*
%TD*%
%LPC*%
D12*
%TO.C,R4*%
X10900000Y18450000D03*
X12550000Y18450000D03*
%TD*%
D13*
%TO.C,R6*%
X12325000Y3800000D03*
X10675000Y3800000D03*
%TD*%
D14*
%TO.C,J1*%
X18900000Y14780000D03*
D15*
X21440000Y14780000D03*
X18900000Y12240000D03*
X21440000Y12240000D03*
X18900000Y9700000D03*
X21440000Y9700000D03*
X18900000Y7160000D03*
X21440000Y7160000D03*
%TD*%
D13*
%TO.C,R1*%
X12425000Y8050000D03*
X10775000Y8050000D03*
%TD*%
D12*
%TO.C,R7*%
X13975000Y3800000D03*
X15625000Y3800000D03*
%TD*%
D13*
%TO.C,R2*%
X12375000Y10050000D03*
X10725000Y10050000D03*
%TD*%
D16*
%TO.C,C2*%
X12275000Y5800000D03*
X10725000Y5800000D03*
%TD*%
D17*
%TO.C,C1*%
X14350000Y16550000D03*
X15900000Y16550000D03*
%TD*%
D13*
%TO.C,R3*%
X12325000Y12050000D03*
X10675000Y12050000D03*
%TD*%
%TO.C,R5*%
X16000000Y18450000D03*
X14350000Y18450000D03*
%TD*%
D18*
%TO.C,U1*%
X5250000Y14050000D03*
X5250000Y12050000D03*
X5250000Y10050000D03*
X5250000Y8050000D03*
D19*
X2150000Y13550000D03*
X2150000Y11050000D03*
X2150000Y8550000D03*
D20*
X6650000Y5050000D03*
X6650000Y17050000D03*
%TD*%
%LPD*%
M02*
