M48
INCH
T1C0.0079
T2C0.0394
T3C0.0433
T4C0.0787
%
G90
G05
T1
X0.0472Y0.7402
X0.0472Y0.6299
X0.0472Y0.2362
X0.0472Y0.1181
X0.1417Y0.4882
X0.1417Y0.378
X0.1575Y0.7323
X0.189Y0.6142
X0.189Y0.2598
X0.2756Y0.5197
X0.2756Y0.4331
X0.2756Y0.3543
X0.3228Y0.6063
X0.3228Y0.5197
X0.3228Y0.4331
X0.3228Y0.3543
X0.3228Y0.2598
X0.3701Y0.7323
X0.3937Y0.5276
X0.4173Y0.5827
X0.4331Y0.1024
X0.5039Y0.6772
X0.5118Y0.1024
X0.5335Y0.4744
X0.5605Y0.3957
X0.5827Y0.6063
X0.5984Y0.1969
X0.6063Y0.252
X0.6142Y0.1024
X0.6693Y0.7638
X0.6772Y0.6929
X0.6929Y0.4252
X0.6929Y0.3307
X0.7087Y0.1181
X0.7323Y0.685
X0.7717Y0.7638
X0.7795Y0.6535
X0.7874Y0.1181
X0.7953Y0.5276
X0.7953Y0.4331
X0.7953Y0.3307
X0.8661Y0.748
X0.8661Y0.1181
T2
X0.2067Y0.5531
X0.2067Y0.4744
X0.2067Y0.3957
X0.2067Y0.3169
X0.7441Y0.5819
X0.7441Y0.4819
X0.7441Y0.3819
X0.7441Y0.2819
X0.8441Y0.5819
X0.8441Y0.4819
X0.8441Y0.3819
X0.8441Y0.2819
T3
X0.0846Y0.5335
X0.0846Y0.435
X0.0846Y0.3366
T4
G00X0.2638Y0.6713
M15
G01X0.2598Y0.6713
M16
G05
G00X0.2638Y0.1988
M15
G01X0.2598Y0.1988
M16
G05
T0
M30
