%TF.GenerationSoftware,KiCad,Pcbnew,7.0.6-7.0.6~ubuntu22.04.1*%
%TF.CreationDate,2023-08-04T15:43:26+03:00*%
%TF.ProjectId,SolderPlate_Control,536f6c64-6572-4506-9c61-74655f436f6e,rev?*%
%TF.SameCoordinates,Original*%
%TF.FileFunction,Copper,L2,Bot*%
%TF.FilePolarity,Positive*%
%FSLAX46Y46*%
G04 Gerber Fmt 4.6, Leading zero omitted, Abs format (unit mm)*
G04 Created by KiCad (PCBNEW 7.0.6-7.0.6~ubuntu22.04.1) date 2023-08-04 15:43:26*
%MOMM*%
%LPD*%
G01*
G04 APERTURE LIST*
G04 Aperture macros list*
%AMRoundRect*
0 Rectangle with rounded corners*
0 $1 Rounding radius*
0 $2 $3 $4 $5 $6 $7 $8 $9 X,Y pos of 4 corners*
0 Add a 4 corners polygon primitive as box body*
4,1,4,$2,$3,$4,$5,$6,$7,$8,$9,$2,$3,0*
0 Add four circle primitives for the rounded corners*
1,1,$1+$1,$2,$3*
1,1,$1+$1,$4,$5*
1,1,$1+$1,$6,$7*
1,1,$1+$1,$8,$9*
0 Add four rect primitives between the rounded corners*
20,1,$1+$1,$2,$3,$4,$5,0*
20,1,$1+$1,$4,$5,$6,$7,0*
20,1,$1+$1,$6,$7,$8,$9,0*
20,1,$1+$1,$8,$9,$2,$3,0*%
G04 Aperture macros list end*
%TA.AperFunction,ComponentPad*%
%ADD10C,1.600000*%
%TD*%
%TA.AperFunction,ComponentPad*%
%ADD11C,1.800000*%
%TD*%
%TA.AperFunction,ComponentPad*%
%ADD12O,2.900000X2.800000*%
%TD*%
%TA.AperFunction,ComponentPad*%
%ADD13R,1.700000X1.700000*%
%TD*%
%TA.AperFunction,ComponentPad*%
%ADD14O,1.700000X1.700000*%
%TD*%
%TA.AperFunction,SMDPad,CuDef*%
%ADD15RoundRect,0.150000X0.150000X-0.587500X0.150000X0.587500X-0.150000X0.587500X-0.150000X-0.587500X0*%
%TD*%
%TA.AperFunction,SMDPad,CuDef*%
%ADD16RoundRect,0.150000X-0.587500X-0.150000X0.587500X-0.150000X0.587500X0.150000X-0.587500X0.150000X0*%
%TD*%
%TA.AperFunction,SMDPad,CuDef*%
%ADD17RoundRect,0.200000X-0.275000X0.200000X-0.275000X-0.200000X0.275000X-0.200000X0.275000X0.200000X0*%
%TD*%
%TA.AperFunction,SMDPad,CuDef*%
%ADD18RoundRect,0.200000X-0.200000X-0.275000X0.200000X-0.275000X0.200000X0.275000X-0.200000X0.275000X0*%
%TD*%
%TA.AperFunction,SMDPad,CuDef*%
%ADD19RoundRect,0.200000X0.275000X-0.200000X0.275000X0.200000X-0.275000X0.200000X-0.275000X-0.200000X0*%
%TD*%
%TA.AperFunction,ViaPad*%
%ADD20C,0.450000*%
%TD*%
%TA.AperFunction,Conductor*%
%ADD21C,0.200000*%
%TD*%
G04 APERTURE END LIST*
D10*
%TO.P,U1,1,COM*%
%TO.N,GND*%
X5250000Y14050000D03*
%TO.P,U1,2,A1*%
%TO.N,Net-(U1-A1)*%
X5250000Y12050000D03*
%TO.P,U1,3,A2*%
%TO.N,Net-(U1-A2)*%
X5250000Y10050000D03*
%TO.P,U1,4,SW*%
%TO.N,Net-(U1-SW)*%
X5250000Y8050000D03*
D11*
%TO.P,U1,5,A*%
%TO.N,Net-(U1-A)*%
X2150000Y13550000D03*
%TO.P,U1,6,C*%
%TO.N,GND*%
X2150000Y11050000D03*
%TO.P,U1,7,B*%
%TO.N,Net-(U1-B)*%
X2150000Y8550000D03*
D12*
%TO.P,U1,SH*%
%TO.N,N/C*%
X6650000Y5050000D03*
X6650000Y17050000D03*
%TD*%
D13*
%TO.P,J1,1,Pin_1*%
%TO.N,+5V*%
X18900000Y14780000D03*
D14*
%TO.P,J1,2,Pin_2*%
%TO.N,/Enc_A*%
X21440000Y14780000D03*
%TO.P,J1,3,Pin_3*%
%TO.N,/LED_Blue*%
X18900000Y12240000D03*
%TO.P,J1,4,Pin_4*%
%TO.N,GND*%
X21440000Y12240000D03*
%TO.P,J1,5,Pin_5*%
%TO.N,/LED_Orange*%
X18900000Y9700000D03*
%TO.P,J1,6,Pin_6*%
%TO.N,unconnected-(J1-Pin_6-Pad6)*%
X21440000Y9700000D03*
%TO.P,J1,7,Pin_7*%
%TO.N,/Enc_SW*%
X18900000Y7160000D03*
%TO.P,J1,8,Pin_8*%
%TO.N,/Enc_B*%
X21440000Y7160000D03*
%TD*%
D15*
%TO.P,Q1,1,G*%
%TO.N,Net-(Q1-G)*%
X14500000Y13400000D03*
%TO.P,Q1,2,S*%
%TO.N,+5V*%
X12600000Y13400000D03*
%TO.P,Q1,3,D*%
%TO.N,Net-(Q1-D)*%
X13550000Y15275000D03*
%TD*%
D16*
%TO.P,Q4,1,G*%
%TO.N,Net-(Q4-G)*%
X12362500Y8150000D03*
%TO.P,Q4,2,S*%
%TO.N,+5V*%
X12362500Y10050000D03*
%TO.P,Q4,3,D*%
%TO.N,Net-(Q4-D)*%
X14237500Y9100000D03*
%TD*%
D17*
%TO.P,R10,1*%
%TO.N,/LED_Orange*%
X16200000Y9725000D03*
%TO.P,R10,2*%
%TO.N,Net-(Q4-G)*%
X16200000Y8075000D03*
%TD*%
D18*
%TO.P,R14,1*%
%TO.N,Net-(Q4-G)*%
X12375000Y6400000D03*
%TO.P,R14,2*%
%TO.N,+5V*%
X14025000Y6400000D03*
%TD*%
D19*
%TO.P,R9,1*%
%TO.N,/LED_Blue*%
X16200000Y11675000D03*
%TO.P,R9,2*%
%TO.N,Net-(Q1-G)*%
X16200000Y13325000D03*
%TD*%
%TO.P,R13,1*%
%TO.N,Net-(Q1-G)*%
X16200000Y15000000D03*
%TO.P,R13,2*%
%TO.N,+5V*%
X16200000Y16650000D03*
%TD*%
D20*
%TO.N,GND*%
X1200000Y6000000D03*
X4000000Y18600000D03*
X11000000Y2600000D03*
X17200000Y17600000D03*
X20000000Y3000000D03*
X10000000Y13400000D03*
X17000000Y19400000D03*
X7000000Y9000000D03*
X15200000Y5000000D03*
X17600000Y8400000D03*
X20200000Y8400000D03*
X7000000Y11000000D03*
X17600000Y10800000D03*
X1200000Y18800000D03*
X4800000Y15600000D03*
X7000000Y13200000D03*
X15600000Y2600000D03*
X19800000Y16600000D03*
X4800000Y6600000D03*
X20200000Y13400000D03*
X8200000Y13200000D03*
X3600000Y12400000D03*
X8200000Y11000000D03*
X12800000Y17200000D03*
X19600000Y19400000D03*
X18000000Y3000000D03*
X8200000Y15400000D03*
X3600000Y9600000D03*
X1200000Y16000000D03*
X1200000Y3000000D03*
X15400000Y6400000D03*
X8200000Y6600000D03*
X9400000Y18600000D03*
X20200000Y11000000D03*
X10600000Y14800000D03*
X22000000Y3000000D03*
X14800000Y15400000D03*
X18600000Y17400000D03*
X13000000Y2600000D03*
X22000000Y19000000D03*
X8200000Y9000000D03*
%TO.N,Net-(Q1-D)*%
X13550000Y12050000D03*
%TO.N,Net-(Q4-D)*%
X14237500Y10050000D03*
%TD*%
D21*
%TO.N,+5V*%
X16200000Y16650000D02*
X18450000Y16650000D01*
X14025000Y6400000D02*
X14025000Y5225000D01*
X14025000Y5225000D02*
X13700000Y4900000D01*
X10550000Y9750000D02*
X10850000Y10050000D01*
X10850000Y10050000D02*
X12362500Y10050000D01*
X10550000Y5350000D02*
X10550000Y9750000D01*
X12600000Y16200000D02*
X12600000Y13400000D01*
X13050000Y16650000D02*
X12600000Y16200000D01*
X11000000Y4900000D02*
X10550000Y5350000D01*
X16200000Y16650000D02*
X13050000Y16650000D01*
X12362500Y11412500D02*
X12362500Y10050000D01*
X18450000Y16650000D02*
X18900000Y16200000D01*
X18900000Y16200000D02*
X18900000Y14780000D01*
X13700000Y4900000D02*
X11000000Y4900000D01*
X12600000Y11650000D02*
X12362500Y11412500D01*
X12600000Y13400000D02*
X12600000Y11650000D01*
%TO.N,/LED_Blue*%
X17740000Y12240000D02*
X18900000Y12240000D01*
X16200000Y11675000D02*
X17175000Y11675000D01*
X17175000Y11675000D02*
X17740000Y12240000D01*
%TO.N,/LED_Orange*%
X18900000Y9700000D02*
X16225000Y9700000D01*
X16225000Y9700000D02*
X16200000Y9725000D01*
%TO.N,Net-(Q1-D)*%
X13550000Y15275000D02*
X13550000Y12050000D01*
%TO.N,Net-(Q4-G)*%
X12375000Y6400000D02*
X12375000Y8137500D01*
X14525000Y8075000D02*
X14450000Y8150000D01*
X14450000Y8150000D02*
X12362500Y8150000D01*
X16200000Y8075000D02*
X14525000Y8075000D01*
X12375000Y8137500D02*
X12362500Y8150000D01*
%TO.N,Net-(Q1-G)*%
X16200000Y15000000D02*
X16200000Y13325000D01*
X15375000Y13325000D02*
X15300000Y13400000D01*
X16200000Y13325000D02*
X15375000Y13325000D01*
X15300000Y13400000D02*
X14500000Y13400000D01*
%TO.N,Net-(Q4-D)*%
X14237500Y9100000D02*
X14237500Y10050000D01*
%TD*%
%TA.AperFunction,Conductor*%
%TO.N,GND*%
G36*
X23054569Y20079183D02*
G01*
X23094165Y20024683D01*
X23099500Y19991000D01*
X23099500Y2009000D01*
X23078683Y1944931D01*
X23024183Y1905335D01*
X22990500Y1900000D01*
X309500Y1900000D01*
X245431Y1920817D01*
X205835Y1975317D01*
X200500Y2009000D01*
X200500Y5050000D01*
X4994551Y5050000D01*
X5014316Y4798854D01*
X5014318Y4798847D01*
X5073125Y4553893D01*
X5169533Y4321143D01*
X5301164Y4106340D01*
X5464770Y3914783D01*
X5464776Y3914776D01*
X5464782Y3914771D01*
X5656339Y3751165D01*
X5656341Y3751164D01*
X5871141Y3619534D01*
X6103889Y3523127D01*
X6103890Y3523127D01*
X6103892Y3523126D01*
X6185543Y3503524D01*
X6348852Y3464317D01*
X6537118Y3449500D01*
X6762882Y3449500D01*
X6951148Y3464317D01*
X7196111Y3523127D01*
X7428859Y3619534D01*
X7643659Y3751164D01*
X7835224Y3914776D01*
X7998836Y4106341D01*
X8130466Y4321141D01*
X8226873Y4553889D01*
X8285683Y4798852D01*
X8305449Y5050000D01*
X8285683Y5301148D01*
X8226873Y5546111D01*
X8130466Y5778859D01*
X7998836Y5993659D01*
X7998835Y5993661D01*
X7835229Y6185218D01*
X7835224Y6185224D01*
X7835217Y6185230D01*
X7643660Y6348836D01*
X7428857Y6480467D01*
X7196107Y6576875D01*
X6951153Y6635682D01*
X6951146Y6635684D01*
X6762882Y6650500D01*
X6537118Y6650500D01*
X6348853Y6635684D01*
X6348846Y6635682D01*
X6103892Y6576875D01*
X5871142Y6480467D01*
X5656339Y6348836D01*
X5464782Y6185230D01*
X5464770Y6185218D01*
X5301164Y5993661D01*
X5169533Y5778858D01*
X5073125Y5546108D01*
X5014318Y5301154D01*
X5014316Y5301147D01*
X4994551Y5050001D01*
X4994551Y5050000D01*
X200500Y5050000D01*
X200500Y8550000D01*
X1044785Y8550000D01*
X1063602Y8346918D01*
X1119416Y8150754D01*
X1119418Y8150750D01*
X1210327Y7968179D01*
X1210327Y7968178D01*
X1333234Y7805423D01*
X1333236Y7805421D01*
X1483959Y7668019D01*
X1657363Y7560652D01*
X1847544Y7486976D01*
X2048024Y7449500D01*
X2048025Y7449500D01*
X2251975Y7449500D01*
X2251976Y7449500D01*
X2452456Y7486976D01*
X2642637Y7560652D01*
X2816041Y7668019D01*
X2966764Y7805421D01*
X3089673Y7968179D01*
X3130414Y8049999D01*
X4244659Y8049999D01*
X4263976Y7853865D01*
X4321185Y7665274D01*
X4321186Y7665272D01*
X4414090Y7491462D01*
X4414090Y7491461D01*
X4525121Y7356171D01*
X4539117Y7339117D01*
X4691462Y7214090D01*
X4792657Y7160000D01*
X4865271Y7121187D01*
X4865273Y7121186D01*
X5053864Y7063977D01*
X5053865Y7063977D01*
X5053868Y7063976D01*
X5218124Y7047799D01*
X5249999Y7044659D01*
X5250000Y7044659D01*
X5250001Y7044659D01*
X5274056Y7047029D01*
X5446132Y7063976D01*
X5634727Y7121186D01*
X5808538Y7214090D01*
X5960883Y7339117D01*
X6085910Y7491462D01*
X6178814Y7665273D01*
X6236024Y7853868D01*
X6255341Y8050000D01*
X6236024Y8246132D01*
X6189256Y8400303D01*
X6178814Y8434727D01*
X6178813Y8434729D01*
X6159256Y8471317D01*
X6085910Y8608538D01*
X6085909Y8608540D01*
X5990522Y8724768D01*
X5960883Y8760883D01*
X5886031Y8822313D01*
X5808539Y8885910D01*
X5808534Y8885913D01*
X5681393Y8953871D01*
X5634702Y9002431D01*
X5625473Y9069162D01*
X5657229Y9128573D01*
X5681393Y9146129D01*
X5808534Y9214088D01*
X5808538Y9214090D01*
X5960883Y9339117D01*
X6085910Y9491462D01*
X6178814Y9665273D01*
X6208798Y9764118D01*
X10244621Y9764118D01*
X10248977Y9732892D01*
X10249500Y9725354D01*
X10249500Y5412314D01*
X10248977Y5404775D01*
X10247227Y5392234D01*
X10249442Y5344317D01*
X10249500Y5341801D01*
X10249500Y5322154D01*
X10250088Y5319007D01*
X10250958Y5311506D01*
X10252415Y5280007D01*
X10255916Y5272079D01*
X10263347Y5248082D01*
X10264938Y5239569D01*
X10264939Y5239566D01*
X10281533Y5212766D01*
X10285054Y5206087D01*
X10297680Y5177493D01*
X10297794Y5177235D01*
X10303924Y5171105D01*
X10319518Y5151417D01*
X10324080Y5144049D01*
X10324083Y5144046D01*
X10349235Y5125053D01*
X10354937Y5120092D01*
X10743448Y4731580D01*
X10748409Y4725879D01*
X10756041Y4715773D01*
X10791486Y4683460D01*
X10793306Y4681723D01*
X10807202Y4667827D01*
X10809848Y4666014D01*
X10815756Y4661334D01*
X10839067Y4640084D01*
X10839066Y4640084D01*
X10847151Y4636952D01*
X10869370Y4625241D01*
X10876519Y4620344D01*
X10907211Y4613126D01*
X10914422Y4610892D01*
X10943827Y4599500D01*
X10952493Y4599500D01*
X10977449Y4596605D01*
X10985881Y4594621D01*
X11013361Y4598455D01*
X11017108Y4598977D01*
X11024646Y4599500D01*
X13637686Y4599500D01*
X13645225Y4598977D01*
X13657759Y4597229D01*
X13657765Y4597227D01*
X13700196Y4599189D01*
X13705683Y4599442D01*
X13708199Y4599500D01*
X13727840Y4599500D01*
X13727844Y4599500D01*
X13730987Y4600088D01*
X13738492Y4600960D01*
X13769992Y4602415D01*
X13777919Y4605916D01*
X13801916Y4613348D01*
X13810433Y4614939D01*
X13837251Y4631545D01*
X13843899Y4635050D01*
X13872765Y4647794D01*
X13878887Y4653918D01*
X13898585Y4669521D01*
X13905952Y4674081D01*
X13924956Y4699249D01*
X13929907Y4704937D01*
X14193422Y4968452D01*
X14199127Y4973416D01*
X14209224Y4981041D01*
X14209228Y4981042D01*
X14241565Y5016516D01*
X14243268Y5018299D01*
X14257174Y5032203D01*
X14258981Y5034843D01*
X14263669Y5040762D01*
X14284916Y5064067D01*
X14288045Y5072147D01*
X14299763Y5094377D01*
X14304656Y5101519D01*
X14311872Y5132206D01*
X14314104Y5139414D01*
X14325500Y5168827D01*
X14325500Y5177493D01*
X14328396Y5202452D01*
X14329250Y5206083D01*
X14330379Y5210881D01*
X14326378Y5239566D01*
X14326023Y5242109D01*
X14325500Y5249647D01*
X14325500Y5659921D01*
X14346317Y5723990D01*
X14385012Y5757040D01*
X14463342Y5796950D01*
X14553050Y5886658D01*
X14610646Y5999696D01*
X14625500Y6093481D01*
X14625499Y6706518D01*
X14610646Y6800304D01*
X14553050Y6913342D01*
X14463342Y7003050D01*
X14385013Y7042961D01*
X14350303Y7060647D01*
X14256519Y7075500D01*
X13793484Y7075500D01*
X13793479Y7075499D01*
X13699697Y7060647D01*
X13586657Y7003050D01*
X13496950Y6913343D01*
X13439353Y6800304D01*
X13424500Y6706520D01*
X13424500Y6093485D01*
X13424501Y6093480D01*
X13439353Y5999698D01*
X13439353Y5999697D01*
X13439354Y5999696D01*
X13496950Y5886658D01*
X13586658Y5796950D01*
X13664986Y5757040D01*
X13712620Y5709406D01*
X13724500Y5659921D01*
X13724500Y5394621D01*
X13703683Y5330552D01*
X13692575Y5317547D01*
X13607455Y5232426D01*
X13547432Y5201842D01*
X13530380Y5200500D01*
X11169621Y5200500D01*
X11105552Y5221317D01*
X11092546Y5232425D01*
X10882425Y5442546D01*
X10851842Y5502570D01*
X10850500Y5519621D01*
X10850500Y7966738D01*
X11424500Y7966738D01*
X11434426Y7898610D01*
X11434426Y7898608D01*
X11484908Y7795345D01*
X11485802Y7793517D01*
X11568517Y7710802D01*
X11673607Y7659427D01*
X11741737Y7649501D01*
X11741738Y7649500D01*
X11741740Y7649500D01*
X11965500Y7649500D01*
X12029569Y7628683D01*
X12069165Y7574183D01*
X12074500Y7540500D01*
X12074500Y7140080D01*
X12053683Y7076011D01*
X12014985Y7042961D01*
X11936659Y7003052D01*
X11846950Y6913343D01*
X11789353Y6800304D01*
X11774500Y6706520D01*
X11774500Y6093485D01*
X11774501Y6093480D01*
X11789353Y5999698D01*
X11789353Y5999697D01*
X11789354Y5999696D01*
X11846950Y5886658D01*
X11936658Y5796950D01*
X12049696Y5739354D01*
X12143481Y5724500D01*
X12606518Y5724501D01*
X12700304Y5739354D01*
X12813342Y5796950D01*
X12903050Y5886658D01*
X12960646Y5999696D01*
X12975500Y6093481D01*
X12975499Y6706518D01*
X12960646Y6800304D01*
X12903050Y6913342D01*
X12813342Y7003050D01*
X12813342Y7003051D01*
X12813340Y7003052D01*
X12735015Y7042961D01*
X12687380Y7090596D01*
X12675500Y7140080D01*
X12675500Y7160000D01*
X17844417Y7160000D01*
X17864700Y6954066D01*
X17924768Y6756046D01*
X18022315Y6573550D01*
X18153590Y6413590D01*
X18313550Y6282315D01*
X18496046Y6184768D01*
X18694066Y6124700D01*
X18883054Y6106087D01*
X18899999Y6104417D01*
X18900000Y6104417D01*
X18900001Y6104417D01*
X18915657Y6105960D01*
X19105934Y6124700D01*
X19303954Y6184768D01*
X19486450Y6282315D01*
X19646410Y6413590D01*
X19777685Y6573550D01*
X19875232Y6756046D01*
X19935300Y6954066D01*
X19955583Y7160000D01*
X20384417Y7160000D01*
X20404700Y6954066D01*
X20464768Y6756046D01*
X20562315Y6573550D01*
X20693590Y6413590D01*
X20853550Y6282315D01*
X21036046Y6184768D01*
X21234066Y6124700D01*
X21423054Y6106087D01*
X21439999Y6104417D01*
X21440000Y6104417D01*
X21440001Y6104417D01*
X21455657Y6105960D01*
X21645934Y6124700D01*
X21843954Y6184768D01*
X22026450Y6282315D01*
X22186410Y6413590D01*
X22317685Y6573550D01*
X22415232Y6756046D01*
X22475300Y6954066D01*
X22495583Y7160000D01*
X22475300Y7365934D01*
X22415232Y7563954D01*
X22317685Y7746450D01*
X22186410Y7906410D01*
X22026450Y8037685D01*
X21843954Y8135232D01*
X21645934Y8195300D01*
X21508644Y8208823D01*
X21440001Y8215583D01*
X21439999Y8215583D01*
X21337032Y8205442D01*
X21234066Y8195300D01*
X21036046Y8135232D01*
X21036043Y8135231D01*
X21036041Y8135230D01*
X20853555Y8037688D01*
X20853552Y8037687D01*
X20853550Y8037685D01*
X20853547Y8037684D01*
X20853549Y8037684D01*
X20693594Y7906414D01*
X20693586Y7906406D01*
X20562316Y7746451D01*
X20562312Y7746445D01*
X20464770Y7563959D01*
X20464769Y7563957D01*
X20464768Y7563954D01*
X20404700Y7365934D01*
X20404700Y7365933D01*
X20389745Y7214091D01*
X20384417Y7160000D01*
X19955583Y7160000D01*
X19935300Y7365934D01*
X19875232Y7563954D01*
X19777685Y7746450D01*
X19646410Y7906410D01*
X19486450Y8037685D01*
X19303954Y8135232D01*
X19105934Y8195300D01*
X18968644Y8208822D01*
X18900001Y8215583D01*
X18899999Y8215583D01*
X18797033Y8205442D01*
X18694066Y8195300D01*
X18496046Y8135232D01*
X18496043Y8135231D01*
X18496041Y8135230D01*
X18313555Y8037688D01*
X18313552Y8037687D01*
X18313550Y8037685D01*
X18313547Y8037684D01*
X18313549Y8037684D01*
X18153594Y7906414D01*
X18153586Y7906406D01*
X18022316Y7746451D01*
X18022312Y7746445D01*
X17924770Y7563959D01*
X17924769Y7563957D01*
X17924768Y7563954D01*
X17864700Y7365934D01*
X17864700Y7365933D01*
X17849745Y7214091D01*
X17844417Y7160000D01*
X12675500Y7160000D01*
X12675500Y7540500D01*
X12696317Y7604569D01*
X12750817Y7644165D01*
X12784500Y7649500D01*
X12983262Y7649500D01*
X12983262Y7649501D01*
X13051393Y7659427D01*
X13156483Y7710802D01*
X13239198Y7793517D01*
X13239201Y7793524D01*
X13244446Y7800868D01*
X13247006Y7799041D01*
X13283511Y7836782D01*
X13334607Y7849500D01*
X14284088Y7849500D01*
X14348157Y7828683D01*
X14357516Y7821056D01*
X14364067Y7815084D01*
X14372151Y7811952D01*
X14394370Y7800241D01*
X14401519Y7795344D01*
X14432211Y7788126D01*
X14439422Y7785892D01*
X14468827Y7774500D01*
X14477493Y7774500D01*
X14502449Y7771605D01*
X14510881Y7769621D01*
X14538361Y7773455D01*
X14542108Y7773977D01*
X14549646Y7774500D01*
X15459921Y7774500D01*
X15523990Y7753683D01*
X15557039Y7714988D01*
X15596950Y7636658D01*
X15686658Y7546950D01*
X15799696Y7489354D01*
X15893481Y7474500D01*
X16506518Y7474501D01*
X16600304Y7489354D01*
X16713342Y7546950D01*
X16803050Y7636658D01*
X16860646Y7749696D01*
X16875500Y7843481D01*
X16875499Y8306518D01*
X16860646Y8400304D01*
X16803050Y8513342D01*
X16713342Y8603050D01*
X16702567Y8608540D01*
X16600303Y8660647D01*
X16506519Y8675500D01*
X15893484Y8675500D01*
X15893479Y8675499D01*
X15799697Y8660647D01*
X15686657Y8603050D01*
X15596948Y8513341D01*
X15557039Y8435015D01*
X15509404Y8387380D01*
X15459920Y8375500D01*
X14690913Y8375500D01*
X14626844Y8396317D01*
X14617482Y8403946D01*
X14610900Y8409946D01*
X14577576Y8468492D01*
X14585028Y8535444D01*
X14630411Y8585229D01*
X14684331Y8599500D01*
X14858262Y8599500D01*
X14858262Y8599501D01*
X14926393Y8609427D01*
X15031483Y8660802D01*
X15114198Y8743517D01*
X15165573Y8848607D01*
X15175500Y8916740D01*
X15175500Y9283260D01*
X15165573Y9351393D01*
X15114198Y9456483D01*
X15077196Y9493485D01*
X15524500Y9493485D01*
X15524501Y9493480D01*
X15539353Y9399698D01*
X15539353Y9399697D01*
X15539354Y9399696D01*
X15596950Y9286658D01*
X15686658Y9196950D01*
X15799696Y9139354D01*
X15893481Y9124500D01*
X16506518Y9124501D01*
X16600304Y9139354D01*
X16713342Y9196950D01*
X16803050Y9286658D01*
X16830222Y9339987D01*
X16877856Y9387620D01*
X16927341Y9399500D01*
X17812546Y9399500D01*
X17876615Y9378683D01*
X17916211Y9324183D01*
X17916853Y9322140D01*
X17924769Y9296043D01*
X17931601Y9283262D01*
X18022315Y9113550D01*
X18153590Y8953590D01*
X18313550Y8822315D01*
X18496046Y8724768D01*
X18694066Y8664700D01*
X18883054Y8646087D01*
X18899999Y8644417D01*
X18900000Y8644417D01*
X18900001Y8644417D01*
X18915657Y8645960D01*
X19105934Y8664700D01*
X19303954Y8724768D01*
X19486450Y8822315D01*
X19646410Y8953590D01*
X19777685Y9113550D01*
X19875232Y9296046D01*
X19935300Y9494066D01*
X19955583Y9699999D01*
X20384417Y9699999D01*
X20386799Y9675817D01*
X20404700Y9494066D01*
X20464768Y9296046D01*
X20562315Y9113550D01*
X20693590Y8953590D01*
X20853550Y8822315D01*
X21036046Y8724768D01*
X21234066Y8664700D01*
X21423054Y8646087D01*
X21439999Y8644417D01*
X21440000Y8644417D01*
X21440001Y8644417D01*
X21455657Y8645960D01*
X21645934Y8664700D01*
X21843954Y8724768D01*
X22026450Y8822315D01*
X22186410Y8953590D01*
X22317685Y9113550D01*
X22415232Y9296046D01*
X22475300Y9494066D01*
X22495583Y9700000D01*
X22475300Y9905934D01*
X22415232Y10103954D01*
X22317685Y10286450D01*
X22186410Y10446410D01*
X22026450Y10577685D01*
X21843954Y10675232D01*
X21645934Y10735300D01*
X21508644Y10748822D01*
X21440001Y10755583D01*
X21439999Y10755583D01*
X21337032Y10745442D01*
X21234066Y10735300D01*
X21036046Y10675232D01*
X21036043Y10675231D01*
X21036041Y10675230D01*
X20853555Y10577688D01*
X20853552Y10577687D01*
X20853550Y10577685D01*
X20853547Y10577684D01*
X20853549Y10577684D01*
X20693594Y10446414D01*
X20693586Y10446406D01*
X20562316Y10286451D01*
X20562312Y10286445D01*
X20464770Y10103959D01*
X20464770Y10103958D01*
X20464768Y10103954D01*
X20404700Y9905934D01*
X20399572Y9853868D01*
X20384417Y9700002D01*
X20384417Y9699999D01*
X19955583Y9699999D01*
X19955583Y9700000D01*
X19935300Y9905934D01*
X19875232Y10103954D01*
X19777685Y10286450D01*
X19646410Y10446410D01*
X19486450Y10577685D01*
X19303954Y10675232D01*
X19105934Y10735300D01*
X18968644Y10748823D01*
X18900001Y10755583D01*
X18899999Y10755583D01*
X18797032Y10745442D01*
X18694066Y10735300D01*
X18496046Y10675232D01*
X18496043Y10675231D01*
X18496041Y10675230D01*
X18313555Y10577688D01*
X18313552Y10577687D01*
X18313550Y10577685D01*
X18313547Y10577684D01*
X18313549Y10577684D01*
X18153594Y10446414D01*
X18153586Y10446406D01*
X18022316Y10286451D01*
X18022312Y10286445D01*
X17924769Y10103958D01*
X17916853Y10077860D01*
X17878334Y10022592D01*
X17814687Y10000521D01*
X17812546Y10000500D01*
X16952818Y10000500D01*
X16888749Y10021317D01*
X16855698Y10060015D01*
X16803049Y10163343D01*
X16713342Y10253050D01*
X16600303Y10310647D01*
X16506519Y10325500D01*
X15893484Y10325500D01*
X15893479Y10325499D01*
X15799697Y10310647D01*
X15686657Y10253050D01*
X15596950Y10163343D01*
X15539353Y10050304D01*
X15524500Y9956520D01*
X15524500Y9493485D01*
X15077196Y9493485D01*
X15031483Y9539198D01*
X15031481Y9539199D01*
X15031482Y9539199D01*
X14926391Y9590574D01*
X14858262Y9600500D01*
X14858260Y9600500D01*
X14652897Y9600500D01*
X14588828Y9621317D01*
X14549232Y9675817D01*
X14549232Y9743183D01*
X14575820Y9786573D01*
X14586028Y9796780D01*
X14647219Y9916874D01*
X14668304Y10050000D01*
X14647219Y10183126D01*
X14586028Y10303220D01*
X14490720Y10398528D01*
X14370626Y10459719D01*
X14370624Y10459720D01*
X14370623Y10459720D01*
X14237500Y10480804D01*
X14104376Y10459720D01*
X14104375Y10459720D01*
X13984278Y10398527D01*
X13888973Y10303222D01*
X13827780Y10183125D01*
X13827780Y10183124D01*
X13806696Y10050001D01*
X13806696Y10050000D01*
X13827780Y9916877D01*
X13827780Y9916876D01*
X13827780Y9916875D01*
X13827781Y9916874D01*
X13888972Y9796780D01*
X13899178Y9786574D01*
X13929761Y9726551D01*
X13919223Y9660015D01*
X13871588Y9612380D01*
X13822103Y9600500D01*
X13616738Y9600500D01*
X13548609Y9590574D01*
X13548607Y9590574D01*
X13443518Y9539199D01*
X13360801Y9456482D01*
X13309426Y9351393D01*
X13309426Y9351391D01*
X13299500Y9283263D01*
X13299500Y8916738D01*
X13309426Y8848610D01*
X13309426Y8848608D01*
X13360801Y8743519D01*
X13360802Y8743517D01*
X13443517Y8660802D01*
X13443518Y8660802D01*
X13443520Y8660800D01*
X13450426Y8657424D01*
X13498842Y8610583D01*
X13510478Y8544230D01*
X13480891Y8483709D01*
X13421381Y8452138D01*
X13402553Y8450500D01*
X13334607Y8450500D01*
X13270538Y8471317D01*
X13246155Y8500353D01*
X13244446Y8499132D01*
X13239198Y8506482D01*
X13239198Y8506483D01*
X13156483Y8589198D01*
X13156481Y8589199D01*
X13156482Y8589199D01*
X13051391Y8640574D01*
X12983262Y8650500D01*
X12983260Y8650500D01*
X11741740Y8650500D01*
X11741738Y8650500D01*
X11673609Y8640574D01*
X11673607Y8640574D01*
X11568518Y8589199D01*
X11485801Y8506482D01*
X11434426Y8401393D01*
X11434426Y8401391D01*
X11424500Y8333263D01*
X11424500Y7966738D01*
X10850500Y7966738D01*
X10850500Y9580379D01*
X10871317Y9644448D01*
X10882425Y9657454D01*
X10942546Y9717575D01*
X11002570Y9748158D01*
X11019621Y9749500D01*
X11390393Y9749500D01*
X11454462Y9728683D01*
X11478844Y9699648D01*
X11480554Y9700868D01*
X11485801Y9693519D01*
X11485802Y9693517D01*
X11568517Y9610802D01*
X11673607Y9559427D01*
X11741737Y9549501D01*
X11741738Y9549500D01*
X11741740Y9549500D01*
X12983262Y9549500D01*
X12983262Y9549501D01*
X13051393Y9559427D01*
X13156483Y9610802D01*
X13239198Y9693517D01*
X13290573Y9798607D01*
X13300500Y9866740D01*
X13300500Y10233260D01*
X13290573Y10301393D01*
X13239198Y10406483D01*
X13156483Y10489198D01*
X13156481Y10489199D01*
X13156482Y10489199D01*
X13051391Y10540574D01*
X12983262Y10550500D01*
X12983260Y10550500D01*
X12772000Y10550500D01*
X12707931Y10571317D01*
X12668335Y10625817D01*
X12663000Y10659500D01*
X12663000Y11242881D01*
X12683817Y11306950D01*
X12694914Y11319945D01*
X12768426Y11393457D01*
X12774122Y11398412D01*
X12784220Y11406039D01*
X12784228Y11406042D01*
X12816565Y11441516D01*
X12818268Y11443299D01*
X12818454Y11443485D01*
X15524500Y11443485D01*
X15524501Y11443480D01*
X15539353Y11349698D01*
X15539353Y11349697D01*
X15539354Y11349696D01*
X15596950Y11236658D01*
X15686658Y11146950D01*
X15799696Y11089354D01*
X15893481Y11074500D01*
X16506518Y11074501D01*
X16600304Y11089354D01*
X16713342Y11146950D01*
X16803050Y11236658D01*
X16817373Y11264768D01*
X16842961Y11314985D01*
X16890596Y11362620D01*
X16940080Y11374500D01*
X17112686Y11374500D01*
X17120225Y11373977D01*
X17132759Y11372229D01*
X17132765Y11372227D01*
X17175196Y11374189D01*
X17180683Y11374442D01*
X17183199Y11374500D01*
X17202840Y11374500D01*
X17202844Y11374500D01*
X17205987Y11375088D01*
X17213492Y11375960D01*
X17244992Y11377415D01*
X17252919Y11380916D01*
X17276916Y11388348D01*
X17285433Y11389939D01*
X17312251Y11406545D01*
X17318899Y11410050D01*
X17347765Y11422794D01*
X17353887Y11428918D01*
X17373585Y11444521D01*
X17380952Y11449081D01*
X17399960Y11474254D01*
X17404903Y11479934D01*
X17763810Y11838839D01*
X17823829Y11869419D01*
X17890365Y11858881D01*
X17937009Y11813144D01*
X17967793Y11755552D01*
X18022315Y11653550D01*
X18153590Y11493590D01*
X18313550Y11362315D01*
X18496046Y11264768D01*
X18694066Y11204700D01*
X18883054Y11186087D01*
X18899999Y11184417D01*
X18900000Y11184417D01*
X18900001Y11184417D01*
X18915657Y11185960D01*
X19105934Y11204700D01*
X19303954Y11264768D01*
X19486450Y11362315D01*
X19646410Y11493590D01*
X19777685Y11653550D01*
X19875232Y11836046D01*
X19935300Y12034066D01*
X19955583Y12240000D01*
X19935300Y12445934D01*
X19875232Y12643954D01*
X19777685Y12826450D01*
X19646410Y12986410D01*
X19486450Y13117685D01*
X19303954Y13215232D01*
X19105934Y13275300D01*
X18968644Y13288822D01*
X18900001Y13295583D01*
X18899999Y13295583D01*
X18797033Y13285442D01*
X18694066Y13275300D01*
X18496046Y13215232D01*
X18496043Y13215231D01*
X18496041Y13215230D01*
X18313555Y13117688D01*
X18313552Y13117687D01*
X18313550Y13117685D01*
X18313547Y13117684D01*
X18313549Y13117684D01*
X18153594Y12986414D01*
X18153586Y12986406D01*
X18022316Y12826451D01*
X18022312Y12826445D01*
X17924769Y12643958D01*
X17916853Y12617860D01*
X17878334Y12562592D01*
X17814687Y12540521D01*
X17812546Y12540500D01*
X17802315Y12540500D01*
X17794776Y12541023D01*
X17782237Y12542773D01*
X17782236Y12542773D01*
X17782234Y12542773D01*
X17734318Y12540558D01*
X17731802Y12540500D01*
X17712156Y12540500D01*
X17712152Y12540500D01*
X17712148Y12540499D01*
X17709001Y12539911D01*
X17701504Y12539042D01*
X17670007Y12537585D01*
X17662071Y12534081D01*
X17638089Y12526655D01*
X17634497Y12525983D01*
X17629566Y12525061D01*
X17602761Y12508465D01*
X17596081Y12504944D01*
X17567237Y12492207D01*
X17567235Y12492206D01*
X17567233Y12492205D01*
X17567228Y12492201D01*
X17561102Y12486075D01*
X17541423Y12470487D01*
X17534050Y12465922D01*
X17534045Y12465917D01*
X17515047Y12440761D01*
X17510088Y12435062D01*
X17082454Y12007426D01*
X17022431Y11976842D01*
X17005379Y11975500D01*
X16940079Y11975500D01*
X16876010Y11996317D01*
X16842960Y12035013D01*
X16803050Y12113342D01*
X16713342Y12203050D01*
X16640824Y12240000D01*
X16600303Y12260647D01*
X16506519Y12275500D01*
X15893484Y12275500D01*
X15893479Y12275499D01*
X15799697Y12260647D01*
X15686657Y12203050D01*
X15596950Y12113343D01*
X15539353Y12000304D01*
X15524500Y11906520D01*
X15524500Y11443485D01*
X12818454Y11443485D01*
X12832174Y11457203D01*
X12833981Y11459843D01*
X12838669Y11465762D01*
X12859916Y11489067D01*
X12863045Y11497147D01*
X12874766Y11519381D01*
X12879657Y11526520D01*
X12886877Y11557219D01*
X12889107Y11564420D01*
X12900500Y11593827D01*
X12900500Y11602493D01*
X12903396Y11627452D01*
X12905379Y11635881D01*
X12901023Y11667109D01*
X12900500Y11674647D01*
X12900500Y12427893D01*
X12921317Y12491962D01*
X12950352Y12516345D01*
X12949132Y12518054D01*
X12956476Y12523299D01*
X12956483Y12523302D01*
X13039198Y12606017D01*
X13042575Y12612926D01*
X13089414Y12661341D01*
X13155767Y12672979D01*
X13216289Y12643394D01*
X13247861Y12583885D01*
X13249500Y12565054D01*
X13249500Y12396398D01*
X13228683Y12332329D01*
X13217575Y12319323D01*
X13201473Y12303222D01*
X13140280Y12183125D01*
X13140280Y12183124D01*
X13119196Y12050001D01*
X13119196Y12050000D01*
X13140280Y11916877D01*
X13140280Y11916876D01*
X13140280Y11916875D01*
X13140281Y11916874D01*
X13201472Y11796780D01*
X13296780Y11701472D01*
X13416874Y11640281D01*
X13505624Y11626225D01*
X13549999Y11619196D01*
X13549999Y11619197D01*
X13550000Y11619196D01*
X13683126Y11640281D01*
X13803220Y11701472D01*
X13898528Y11796780D01*
X13959719Y11916874D01*
X13980804Y12050000D01*
X13959719Y12183126D01*
X13898528Y12303220D01*
X13882424Y12319324D01*
X13851842Y12379347D01*
X13850500Y12396398D01*
X13850500Y12565054D01*
X13871317Y12629123D01*
X13925817Y12668719D01*
X13993183Y12668719D01*
X14047683Y12629123D01*
X14057425Y12612925D01*
X14060800Y12606020D01*
X14060801Y12606019D01*
X14060802Y12606017D01*
X14143517Y12523302D01*
X14248607Y12471927D01*
X14316737Y12462001D01*
X14316738Y12462000D01*
X14316740Y12462000D01*
X14683262Y12462000D01*
X14683262Y12462001D01*
X14751393Y12471927D01*
X14856483Y12523302D01*
X14939198Y12606017D01*
X14990573Y12711107D01*
X15000500Y12779240D01*
X15000500Y12990501D01*
X15021317Y13054569D01*
X15075817Y13094165D01*
X15109500Y13099500D01*
X15134088Y13099500D01*
X15198157Y13078683D01*
X15207516Y13071056D01*
X15214067Y13065084D01*
X15222151Y13061952D01*
X15244370Y13050241D01*
X15251519Y13045344D01*
X15282211Y13038126D01*
X15289422Y13035892D01*
X15318827Y13024500D01*
X15327493Y13024500D01*
X15352449Y13021605D01*
X15360881Y13019621D01*
X15388361Y13023455D01*
X15392108Y13023977D01*
X15399646Y13024500D01*
X15459921Y13024500D01*
X15523990Y13003683D01*
X15557039Y12964988D01*
X15596950Y12886658D01*
X15686658Y12796950D01*
X15799696Y12739354D01*
X15893481Y12724500D01*
X16506518Y12724501D01*
X16600304Y12739354D01*
X16713342Y12796950D01*
X16803050Y12886658D01*
X16860646Y12999696D01*
X16875500Y13093481D01*
X16875499Y13556518D01*
X16860646Y13650304D01*
X16803050Y13763342D01*
X16713342Y13853050D01*
X16600304Y13910646D01*
X16600302Y13910647D01*
X16600301Y13910647D01*
X16592443Y13911892D01*
X16532421Y13942479D01*
X16501841Y14002503D01*
X16500500Y14019549D01*
X16500500Y14305453D01*
X16521317Y14369522D01*
X16575817Y14409118D01*
X16592442Y14413109D01*
X16600304Y14414354D01*
X16713342Y14471950D01*
X16803050Y14561658D01*
X16860646Y14674696D01*
X16875500Y14768481D01*
X16875499Y15231518D01*
X16860646Y15325304D01*
X16803050Y15438342D01*
X16713342Y15528050D01*
X16600303Y15585647D01*
X16506519Y15600500D01*
X15893484Y15600500D01*
X15893479Y15600499D01*
X15799697Y15585647D01*
X15686657Y15528050D01*
X15596950Y15438343D01*
X15539353Y15325304D01*
X15524500Y15231520D01*
X15524500Y14768485D01*
X15524501Y14768480D01*
X15539353Y14674698D01*
X15539353Y14674697D01*
X15539354Y14674696D01*
X15596950Y14561658D01*
X15686658Y14471950D01*
X15799696Y14414354D01*
X15807551Y14413110D01*
X15867574Y14382527D01*
X15898158Y14322504D01*
X15899500Y14305452D01*
X15899500Y14019548D01*
X15878683Y13955479D01*
X15824183Y13915883D01*
X15807554Y13911891D01*
X15799696Y13910646D01*
X15783346Y13902315D01*
X15686657Y13853050D01*
X15596947Y13763340D01*
X15576797Y13723794D01*
X15529162Y13676160D01*
X15462625Y13665623D01*
X15433451Y13677236D01*
X15432719Y13675577D01*
X15423483Y13679655D01*
X15423482Y13679656D01*
X15423481Y13679656D01*
X15392787Y13686876D01*
X15385582Y13689107D01*
X15356173Y13700500D01*
X15347507Y13700500D01*
X15322550Y13703396D01*
X15314119Y13705379D01*
X15282892Y13701023D01*
X15275354Y13700500D01*
X15109500Y13700500D01*
X15045431Y13721317D01*
X15005835Y13775817D01*
X15000500Y13809500D01*
X15000500Y14020762D01*
X15000499Y14020763D01*
X14990573Y14088893D01*
X14939198Y14193983D01*
X14856483Y14276698D01*
X14856481Y14276699D01*
X14856482Y14276699D01*
X14751391Y14328074D01*
X14683262Y14338000D01*
X14683260Y14338000D01*
X14316740Y14338000D01*
X14316738Y14338000D01*
X14248609Y14328074D01*
X14248607Y14328074D01*
X14143518Y14276699D01*
X14060799Y14193980D01*
X14057424Y14187074D01*
X14010583Y14138658D01*
X13944230Y14127022D01*
X13883709Y14156609D01*
X13852138Y14216119D01*
X13850500Y14234947D01*
X13850500Y14302893D01*
X13871317Y14366962D01*
X13900352Y14391345D01*
X13899132Y14393054D01*
X13906476Y14398299D01*
X13906483Y14398302D01*
X13989198Y14481017D01*
X14040573Y14586107D01*
X14050500Y14654240D01*
X14050500Y15895760D01*
X14040573Y15963893D01*
X13989198Y16068983D01*
X13906483Y16151698D01*
X13906481Y16151699D01*
X13906480Y16151700D01*
X13906355Y16151789D01*
X13906252Y16151928D01*
X13900096Y16158084D01*
X13901018Y16159007D01*
X13866308Y16205958D01*
X13865749Y16273322D01*
X13904892Y16328148D01*
X13968786Y16349496D01*
X13969690Y16349500D01*
X15459921Y16349500D01*
X15523990Y16328683D01*
X15557039Y16289988D01*
X15596950Y16211658D01*
X15686658Y16121950D01*
X15799696Y16064354D01*
X15893481Y16049500D01*
X16506518Y16049501D01*
X16600304Y16064354D01*
X16713342Y16121950D01*
X16803050Y16211658D01*
X16825732Y16256173D01*
X16842961Y16289985D01*
X16890596Y16337620D01*
X16940080Y16349500D01*
X18280379Y16349500D01*
X18344448Y16328683D01*
X18357453Y16317575D01*
X18567574Y16107455D01*
X18598158Y16047432D01*
X18599500Y16030380D01*
X18599500Y15939500D01*
X18578683Y15875431D01*
X18524183Y15835835D01*
X18490500Y15830500D01*
X18030252Y15830500D01*
X17995162Y15823521D01*
X17971767Y15818867D01*
X17905450Y15774555D01*
X17905445Y15774550D01*
X17861133Y15708233D01*
X17849499Y15649745D01*
X17849499Y13910256D01*
X17861133Y13851768D01*
X17905445Y13785451D01*
X17905450Y13785446D01*
X17971767Y13741134D01*
X17971769Y13741133D01*
X18030252Y13729500D01*
X18030255Y13729500D01*
X19769744Y13729500D01*
X19769748Y13729500D01*
X19828231Y13741133D01*
X19894552Y13785448D01*
X19938867Y13851769D01*
X19950500Y13910252D01*
X19950500Y14779999D01*
X20384417Y14779999D01*
X20385552Y14768480D01*
X20404700Y14574066D01*
X20464768Y14376046D01*
X20464769Y14376043D01*
X20464770Y14376042D01*
X20476558Y14353989D01*
X20562315Y14193550D01*
X20693590Y14033590D01*
X20853550Y13902315D01*
X21036046Y13804768D01*
X21234066Y13744700D01*
X21423054Y13726087D01*
X21439999Y13724417D01*
X21440000Y13724417D01*
X21440001Y13724417D01*
X21455657Y13725960D01*
X21645934Y13744700D01*
X21843954Y13804768D01*
X22026450Y13902315D01*
X22186410Y14033590D01*
X22317685Y14193550D01*
X22415232Y14376046D01*
X22475300Y14574066D01*
X22495583Y14780000D01*
X22475300Y14985934D01*
X22415232Y15183954D01*
X22317685Y15366450D01*
X22186410Y15526410D01*
X22026450Y15657685D01*
X21843954Y15755232D01*
X21645934Y15815300D01*
X21491608Y15830500D01*
X21440001Y15835583D01*
X21439999Y15835583D01*
X21388392Y15830500D01*
X21234066Y15815300D01*
X21036046Y15755232D01*
X21036043Y15755231D01*
X21036041Y15755230D01*
X20853555Y15657688D01*
X20853552Y15657687D01*
X20853550Y15657685D01*
X20853547Y15657684D01*
X20853549Y15657684D01*
X20693594Y15526414D01*
X20693586Y15526406D01*
X20562316Y15366451D01*
X20562312Y15366445D01*
X20464770Y15183959D01*
X20404700Y14985933D01*
X20384417Y14780002D01*
X20384417Y14779999D01*
X19950500Y14779999D01*
X19950500Y15649748D01*
X19938867Y15708231D01*
X19907463Y15755230D01*
X19894554Y15774550D01*
X19894549Y15774555D01*
X19828232Y15818867D01*
X19813610Y15821776D01*
X19769748Y15830500D01*
X19769745Y15830500D01*
X19309500Y15830500D01*
X19245431Y15851317D01*
X19205835Y15905817D01*
X19200500Y15939500D01*
X19200500Y16137683D01*
X19201023Y16145222D01*
X19202771Y16157760D01*
X19202773Y16157765D01*
X19200558Y16205684D01*
X19200500Y16208200D01*
X19200500Y16227840D01*
X19200499Y16227849D01*
X19199913Y16230981D01*
X19199040Y16238500D01*
X19197585Y16269992D01*
X19197585Y16269993D01*
X19194084Y16277921D01*
X19186652Y16301920D01*
X19185061Y16310433D01*
X19168457Y16337250D01*
X19164947Y16343909D01*
X19152206Y16372765D01*
X19146077Y16378894D01*
X19130477Y16398590D01*
X19125918Y16405953D01*
X19125917Y16405954D01*
X19100762Y16424950D01*
X19095061Y16429911D01*
X18706550Y16818422D01*
X18701589Y16824123D01*
X18693958Y16834227D01*
X18693958Y16834228D01*
X18658513Y16866541D01*
X18656692Y16868279D01*
X18642797Y16882174D01*
X18640148Y16883989D01*
X18634238Y16888671D01*
X18619391Y16902206D01*
X18610934Y16909916D01*
X18602844Y16913050D01*
X18580628Y16924761D01*
X18573482Y16929656D01*
X18566683Y16931255D01*
X18542787Y16936876D01*
X18535582Y16939107D01*
X18506173Y16950500D01*
X18497507Y16950500D01*
X18472550Y16953396D01*
X18464119Y16955379D01*
X18432892Y16951023D01*
X18425354Y16950500D01*
X16940079Y16950500D01*
X16876010Y16971317D01*
X16842960Y17010013D01*
X16803050Y17088342D01*
X16713342Y17178050D01*
X16713341Y17178050D01*
X16600303Y17235647D01*
X16506519Y17250500D01*
X15893484Y17250500D01*
X15893479Y17250499D01*
X15799697Y17235647D01*
X15686657Y17178050D01*
X15596948Y17088341D01*
X15557039Y17010015D01*
X15509404Y16962380D01*
X15459920Y16950500D01*
X13112314Y16950500D01*
X13104775Y16951023D01*
X13092236Y16952773D01*
X13092235Y16952773D01*
X13092233Y16952773D01*
X13044317Y16950558D01*
X13041801Y16950500D01*
X13022156Y16950500D01*
X13022152Y16950500D01*
X13022148Y16950499D01*
X13019001Y16949911D01*
X13011504Y16949042D01*
X12980006Y16947585D01*
X12972070Y16944081D01*
X12948088Y16936655D01*
X12939570Y16935062D01*
X12939565Y16935061D01*
X12912757Y16918463D01*
X12906077Y16914942D01*
X12877234Y16902206D01*
X12877231Y16902204D01*
X12871102Y16896075D01*
X12851423Y16880487D01*
X12844050Y16875922D01*
X12844045Y16875917D01*
X12825047Y16850761D01*
X12820088Y16845061D01*
X12431575Y16456549D01*
X12425877Y16451590D01*
X12415770Y16443958D01*
X12383449Y16408504D01*
X12381714Y16406686D01*
X12367824Y16392796D01*
X12366010Y16390148D01*
X12361328Y16384239D01*
X12340084Y16360935D01*
X12340082Y16360930D01*
X12336950Y16352846D01*
X12325244Y16330637D01*
X12320345Y16323485D01*
X12320344Y16323482D01*
X12313125Y16292795D01*
X12310891Y16285582D01*
X12299501Y16256178D01*
X12299500Y16256171D01*
X12299500Y16247510D01*
X12296605Y16222556D01*
X12294621Y16214123D01*
X12294621Y16214118D01*
X12298977Y16182892D01*
X12299500Y16175354D01*
X12299500Y14372107D01*
X12278683Y14308038D01*
X12249647Y14283652D01*
X12250866Y14281945D01*
X12243520Y14276701D01*
X12160801Y14193982D01*
X12109426Y14088893D01*
X12109426Y14088891D01*
X12099500Y14020763D01*
X12099500Y12779238D01*
X12109426Y12711110D01*
X12109426Y12711108D01*
X12149506Y12629123D01*
X12160802Y12606017D01*
X12243517Y12523302D01*
X12243520Y12523301D01*
X12250868Y12518054D01*
X12249040Y12515494D01*
X12286782Y12478989D01*
X12299500Y12427893D01*
X12299500Y11819621D01*
X12278683Y11755552D01*
X12267574Y11742546D01*
X12194080Y11669053D01*
X12188383Y11664095D01*
X12178271Y11656459D01*
X12145949Y11621004D01*
X12144214Y11619186D01*
X12130324Y11605296D01*
X12128510Y11602648D01*
X12123828Y11596739D01*
X12102584Y11573435D01*
X12102582Y11573430D01*
X12099450Y11565346D01*
X12087744Y11543137D01*
X12082845Y11535985D01*
X12082844Y11535982D01*
X12075625Y11505295D01*
X12073391Y11498082D01*
X12062001Y11468678D01*
X12062000Y11468671D01*
X12062000Y11460010D01*
X12059105Y11435056D01*
X12057121Y11426623D01*
X12057121Y11426618D01*
X12061477Y11395392D01*
X12062000Y11387854D01*
X12062000Y10659500D01*
X12041183Y10595431D01*
X11986683Y10555835D01*
X11953000Y10550500D01*
X11741738Y10550500D01*
X11673609Y10540574D01*
X11673607Y10540574D01*
X11568518Y10489199D01*
X11485801Y10406482D01*
X11480554Y10399132D01*
X11477993Y10400960D01*
X11441489Y10363218D01*
X11390393Y10350500D01*
X10912314Y10350500D01*
X10904775Y10351023D01*
X10892236Y10352773D01*
X10892235Y10352773D01*
X10892233Y10352773D01*
X10844317Y10350558D01*
X10841801Y10350500D01*
X10822156Y10350500D01*
X10822152Y10350500D01*
X10822148Y10350499D01*
X10819001Y10349911D01*
X10811504Y10349042D01*
X10780006Y10347585D01*
X10772070Y10344081D01*
X10748088Y10336655D01*
X10739570Y10335062D01*
X10739565Y10335061D01*
X10712757Y10318463D01*
X10706077Y10314942D01*
X10677234Y10302206D01*
X10677231Y10302204D01*
X10671102Y10296075D01*
X10651423Y10280487D01*
X10644050Y10275922D01*
X10644045Y10275917D01*
X10625047Y10250761D01*
X10620088Y10245061D01*
X10381575Y10006549D01*
X10375877Y10001590D01*
X10365770Y9993958D01*
X10333449Y9958504D01*
X10331714Y9956686D01*
X10317824Y9942796D01*
X10316010Y9940148D01*
X10311328Y9934239D01*
X10290084Y9910935D01*
X10290082Y9910930D01*
X10286950Y9902846D01*
X10275244Y9880637D01*
X10270345Y9873485D01*
X10270344Y9873482D01*
X10263125Y9842795D01*
X10260891Y9835582D01*
X10249501Y9806178D01*
X10249500Y9806171D01*
X10249500Y9797510D01*
X10246605Y9772556D01*
X10244621Y9764123D01*
X10244621Y9764118D01*
X6208798Y9764118D01*
X6236024Y9853868D01*
X6255341Y10050000D01*
X6236024Y10246132D01*
X6233925Y10253050D01*
X6178814Y10434727D01*
X6178813Y10434729D01*
X6122238Y10540573D01*
X6085910Y10608538D01*
X6085909Y10608540D01*
X5999137Y10714271D01*
X5960883Y10760883D01*
X5943829Y10774879D01*
X5808539Y10885910D01*
X5808534Y10885913D01*
X5681393Y10953871D01*
X5634702Y11002431D01*
X5625473Y11069162D01*
X5657229Y11128573D01*
X5681393Y11146129D01*
X5781840Y11199821D01*
X5808538Y11214090D01*
X5960883Y11339117D01*
X6085910Y11491462D01*
X6178814Y11665273D01*
X6236024Y11853868D01*
X6255341Y12050000D01*
X6236024Y12246132D01*
X6218706Y12303220D01*
X6178814Y12434727D01*
X6178813Y12434729D01*
X6162143Y12465917D01*
X6085910Y12608538D01*
X6085909Y12608540D01*
X5960886Y12760879D01*
X5960883Y12760883D01*
X5808538Y12885910D01*
X5807139Y12886658D01*
X5634728Y12978814D01*
X5634726Y12978815D01*
X5446135Y13036024D01*
X5446136Y13036024D01*
X5250001Y13055341D01*
X5249999Y13055341D01*
X5053864Y13036024D01*
X4865273Y12978815D01*
X4865271Y12978814D01*
X4691461Y12885910D01*
X4691460Y12885910D01*
X4539121Y12760887D01*
X4539113Y12760879D01*
X4414090Y12608540D01*
X4414090Y12608539D01*
X4321186Y12434729D01*
X4321185Y12434727D01*
X4263976Y12246136D01*
X4244659Y12050002D01*
X4244659Y12049999D01*
X4263976Y11853865D01*
X4321185Y11665274D01*
X4321186Y11665272D01*
X4414090Y11491462D01*
X4414090Y11491461D01*
X4509024Y11375785D01*
X4539117Y11339117D01*
X4691462Y11214090D01*
X4746976Y11184417D01*
X4818607Y11146129D01*
X4865297Y11097568D01*
X4874526Y11030838D01*
X4842770Y10971427D01*
X4818607Y10953871D01*
X4691461Y10885910D01*
X4691460Y10885910D01*
X4539121Y10760887D01*
X4539113Y10760879D01*
X4414090Y10608540D01*
X4414090Y10608539D01*
X4321186Y10434729D01*
X4321185Y10434727D01*
X4263976Y10246136D01*
X4244659Y10050002D01*
X4244659Y10049999D01*
X4263976Y9853865D01*
X4321185Y9665274D01*
X4321186Y9665272D01*
X4414090Y9491462D01*
X4414090Y9491461D01*
X4499311Y9387620D01*
X4539117Y9339117D01*
X4691462Y9214090D01*
X4723527Y9196951D01*
X4818607Y9146129D01*
X4865297Y9097568D01*
X4874526Y9030838D01*
X4842770Y8971427D01*
X4818607Y8953871D01*
X4691461Y8885910D01*
X4691460Y8885910D01*
X4539121Y8760887D01*
X4539113Y8760879D01*
X4414090Y8608540D01*
X4414090Y8608539D01*
X4321186Y8434729D01*
X4321185Y8434727D01*
X4263976Y8246136D01*
X4244659Y8050002D01*
X4244659Y8049999D01*
X3130414Y8049999D01*
X3180582Y8150750D01*
X3236397Y8346917D01*
X3255215Y8550000D01*
X3236397Y8753083D01*
X3209218Y8848607D01*
X3180583Y8949247D01*
X3180582Y8949248D01*
X3180582Y8949250D01*
X3089673Y9131821D01*
X3089672Y9131823D01*
X2966765Y9294578D01*
X2917903Y9339122D01*
X2816041Y9431981D01*
X2816038Y9431983D01*
X2642639Y9539347D01*
X2642637Y9539348D01*
X2452456Y9613024D01*
X2452452Y9613025D01*
X2251976Y9650500D01*
X2048024Y9650500D01*
X2048023Y9650500D01*
X1847547Y9613025D01*
X1847543Y9613024D01*
X1657362Y9539348D01*
X1657360Y9539347D01*
X1483961Y9431983D01*
X1483957Y9431980D01*
X1333234Y9294578D01*
X1210327Y9131823D01*
X1210327Y9131822D01*
X1119418Y8949251D01*
X1119416Y8949247D01*
X1063603Y8753083D01*
X1063602Y8753083D01*
X1044785Y8550001D01*
X1044785Y8550000D01*
X200500Y8550000D01*
X200500Y13550000D01*
X1044785Y13550000D01*
X1063602Y13346918D01*
X1119416Y13150754D01*
X1119418Y13150750D01*
X1210327Y12968179D01*
X1210327Y12968178D01*
X1317359Y12826445D01*
X1333236Y12805421D01*
X1483959Y12668019D01*
X1657363Y12560652D01*
X1847544Y12486976D01*
X2048024Y12449500D01*
X2048025Y12449500D01*
X2251975Y12449500D01*
X2251976Y12449500D01*
X2452456Y12486976D01*
X2642637Y12560652D01*
X2816041Y12668019D01*
X2966764Y12805421D01*
X3089673Y12968179D01*
X3180582Y13150750D01*
X3236397Y13346917D01*
X3255215Y13550000D01*
X3239340Y13721317D01*
X3236397Y13753083D01*
X3180583Y13949247D01*
X3180582Y13949248D01*
X3180582Y13949250D01*
X3089673Y14131821D01*
X3089672Y14131823D01*
X2966765Y14294578D01*
X2887364Y14366962D01*
X2816041Y14431981D01*
X2725688Y14487925D01*
X2642639Y14539347D01*
X2642637Y14539348D01*
X2452456Y14613024D01*
X2452452Y14613025D01*
X2251976Y14650500D01*
X2048024Y14650500D01*
X2048023Y14650500D01*
X1847547Y14613025D01*
X1847543Y14613024D01*
X1657362Y14539348D01*
X1657360Y14539347D01*
X1483961Y14431983D01*
X1483957Y14431980D01*
X1333234Y14294578D01*
X1210327Y14131823D01*
X1210327Y14131822D01*
X1119418Y13949251D01*
X1119416Y13949247D01*
X1063603Y13753083D01*
X1063602Y13753083D01*
X1044785Y13550001D01*
X1044785Y13550000D01*
X200500Y13550000D01*
X200500Y17050000D01*
X4994551Y17050000D01*
X5014316Y16798854D01*
X5014318Y16798847D01*
X5073125Y16553893D01*
X5168061Y16324696D01*
X5169534Y16321141D01*
X5189163Y16289109D01*
X5301164Y16106340D01*
X5422826Y15963893D01*
X5464776Y15914776D01*
X5464782Y15914771D01*
X5656339Y15751165D01*
X5656341Y15751164D01*
X5871141Y15619534D01*
X6103889Y15523127D01*
X6103890Y15523127D01*
X6103892Y15523126D01*
X6185543Y15503524D01*
X6348852Y15464317D01*
X6537118Y15449500D01*
X6762882Y15449500D01*
X6951148Y15464317D01*
X7196111Y15523127D01*
X7428859Y15619534D01*
X7643659Y15751164D01*
X7835224Y15914776D01*
X7998836Y16106341D01*
X8130466Y16321141D01*
X8226873Y16553889D01*
X8285683Y16798852D01*
X8305449Y17050000D01*
X8302431Y17088341D01*
X8285683Y17301147D01*
X8285683Y17301148D01*
X8226873Y17546111D01*
X8130466Y17778859D01*
X7998836Y17993659D01*
X7998835Y17993661D01*
X7835229Y18185218D01*
X7835224Y18185224D01*
X7835217Y18185230D01*
X7643660Y18348836D01*
X7428857Y18480467D01*
X7196107Y18576875D01*
X6951153Y18635682D01*
X6951146Y18635684D01*
X6762882Y18650500D01*
X6537118Y18650500D01*
X6348853Y18635684D01*
X6348846Y18635682D01*
X6103892Y18576875D01*
X5871142Y18480467D01*
X5656339Y18348836D01*
X5464782Y18185230D01*
X5464770Y18185218D01*
X5301164Y17993661D01*
X5169533Y17778858D01*
X5073125Y17546108D01*
X5014318Y17301154D01*
X5014316Y17301147D01*
X4994551Y17050001D01*
X4994551Y17050000D01*
X200500Y17050000D01*
X200500Y19991000D01*
X221317Y20055069D01*
X275817Y20094665D01*
X309500Y20100000D01*
X22990500Y20100000D01*
X23054569Y20079183D01*
G37*
%TD.AperFunction*%
%TD*%
M02*
