%TF.GenerationSoftware,KiCad,Pcbnew,7.0.5-4d25ed1034~172~ubuntu22.04.1*%
%TF.CreationDate,2023-06-13T21:53:17+03:00*%
%TF.ProjectId,SolderPlate_Control,536f6c64-6572-4506-9c61-74655f436f6e,rev?*%
%TF.SameCoordinates,Original*%
%TF.FileFunction,Legend,Bot*%
%TF.FilePolarity,Positive*%
%FSLAX46Y46*%
G04 Gerber Fmt 4.6, Leading zero omitted, Abs format (unit mm)*
G04 Created by KiCad (PCBNEW 7.0.5-4d25ed1034~172~ubuntu22.04.1) date 2023-06-13 21:53:17*
%MOMM*%
%LPD*%
G01*
G04 APERTURE LIST*
G04 Aperture macros list*
%AMRoundRect*
0 Rectangle with rounded corners*
0 $1 Rounding radius*
0 $2 $3 $4 $5 $6 $7 $8 $9 X,Y pos of 4 corners*
0 Add a 4 corners polygon primitive as box body*
4,1,4,$2,$3,$4,$5,$6,$7,$8,$9,$2,$3,0*
0 Add four circle primitives for the rounded corners*
1,1,$1+$1,$2,$3*
1,1,$1+$1,$4,$5*
1,1,$1+$1,$6,$7*
1,1,$1+$1,$8,$9*
0 Add four rect primitives between the rounded corners*
20,1,$1+$1,$2,$3,$4,$5,0*
20,1,$1+$1,$4,$5,$6,$7,0*
20,1,$1+$1,$6,$7,$8,$9,0*
20,1,$1+$1,$8,$9,$2,$3,0*%
G04 Aperture macros list end*
%ADD10C,0.150000*%
%ADD11C,0.120000*%
%ADD12R,1.700000X1.700000*%
%ADD13O,1.700000X1.700000*%
%ADD14C,1.600000*%
%ADD15C,1.800000*%
%ADD16O,2.900000X2.800000*%
%ADD17RoundRect,0.150000X0.150000X-0.587500X0.150000X0.587500X-0.150000X0.587500X-0.150000X-0.587500X0*%
%ADD18RoundRect,0.150000X-0.587500X-0.150000X0.587500X-0.150000X0.587500X0.150000X-0.587500X0.150000X0*%
%ADD19RoundRect,0.200000X-0.275000X0.200000X-0.275000X-0.200000X0.275000X-0.200000X0.275000X0.200000X0*%
%ADD20RoundRect,0.200000X-0.200000X-0.275000X0.200000X-0.275000X0.200000X0.275000X-0.200000X0.275000X0*%
%ADD21RoundRect,0.200000X0.275000X-0.200000X0.275000X0.200000X-0.275000X0.200000X-0.275000X-0.200000X0*%
G04 APERTURE END LIST*
D10*
%TO.C,Q1*%
X10676190Y15361515D02*
X10752380Y15399610D01*
X10752380Y15399610D02*
X10828571Y15475800D01*
X10828571Y15475800D02*
X10942857Y15590086D01*
X10942857Y15590086D02*
X11019047Y15628181D01*
X11019047Y15628181D02*
X11095238Y15628181D01*
X11057142Y15437705D02*
X11133333Y15475800D01*
X11133333Y15475800D02*
X11209523Y15551991D01*
X11209523Y15551991D02*
X11247619Y15704372D01*
X11247619Y15704372D02*
X11247619Y15971039D01*
X11247619Y15971039D02*
X11209523Y16123420D01*
X11209523Y16123420D02*
X11133333Y16199610D01*
X11133333Y16199610D02*
X11057142Y16237705D01*
X11057142Y16237705D02*
X10904761Y16237705D01*
X10904761Y16237705D02*
X10828571Y16199610D01*
X10828571Y16199610D02*
X10752380Y16123420D01*
X10752380Y16123420D02*
X10714285Y15971039D01*
X10714285Y15971039D02*
X10714285Y15704372D01*
X10714285Y15704372D02*
X10752380Y15551991D01*
X10752380Y15551991D02*
X10828571Y15475800D01*
X10828571Y15475800D02*
X10904761Y15437705D01*
X10904761Y15437705D02*
X11057142Y15437705D01*
X9952381Y15437705D02*
X10409524Y15437705D01*
X10180952Y15437705D02*
X10180952Y16237705D01*
X10180952Y16237705D02*
X10257143Y16123420D01*
X10257143Y16123420D02*
X10333333Y16047229D01*
X10333333Y16047229D02*
X10409524Y16009134D01*
%TO.C,Q4*%
X11038485Y9076191D02*
X11000390Y9152381D01*
X11000390Y9152381D02*
X10924200Y9228572D01*
X10924200Y9228572D02*
X10809914Y9342858D01*
X10809914Y9342858D02*
X10771819Y9419048D01*
X10771819Y9419048D02*
X10771819Y9495239D01*
X10962295Y9457143D02*
X10924200Y9533334D01*
X10924200Y9533334D02*
X10848009Y9609524D01*
X10848009Y9609524D02*
X10695628Y9647620D01*
X10695628Y9647620D02*
X10428961Y9647620D01*
X10428961Y9647620D02*
X10276580Y9609524D01*
X10276580Y9609524D02*
X10200390Y9533334D01*
X10200390Y9533334D02*
X10162295Y9457143D01*
X10162295Y9457143D02*
X10162295Y9304762D01*
X10162295Y9304762D02*
X10200390Y9228572D01*
X10200390Y9228572D02*
X10276580Y9152381D01*
X10276580Y9152381D02*
X10428961Y9114286D01*
X10428961Y9114286D02*
X10695628Y9114286D01*
X10695628Y9114286D02*
X10848009Y9152381D01*
X10848009Y9152381D02*
X10924200Y9228572D01*
X10924200Y9228572D02*
X10962295Y9304762D01*
X10962295Y9304762D02*
X10962295Y9457143D01*
X10428961Y8428572D02*
X10962295Y8428572D01*
X10124200Y8619048D02*
X10695628Y8809525D01*
X10695628Y8809525D02*
X10695628Y8314286D01*
%TO.C,R10*%
X16662295Y6514286D02*
X16281342Y6780953D01*
X16662295Y6971429D02*
X15862295Y6971429D01*
X15862295Y6971429D02*
X15862295Y6666667D01*
X15862295Y6666667D02*
X15900390Y6590477D01*
X15900390Y6590477D02*
X15938485Y6552382D01*
X15938485Y6552382D02*
X16014676Y6514286D01*
X16014676Y6514286D02*
X16128961Y6514286D01*
X16128961Y6514286D02*
X16205152Y6552382D01*
X16205152Y6552382D02*
X16243247Y6590477D01*
X16243247Y6590477D02*
X16281342Y6666667D01*
X16281342Y6666667D02*
X16281342Y6971429D01*
X16662295Y5752382D02*
X16662295Y6209525D01*
X16662295Y5980953D02*
X15862295Y5980953D01*
X15862295Y5980953D02*
X15976580Y6057144D01*
X15976580Y6057144D02*
X16052771Y6133334D01*
X16052771Y6133334D02*
X16090866Y6209525D01*
X15862295Y5257143D02*
X15862295Y5180953D01*
X15862295Y5180953D02*
X15900390Y5104762D01*
X15900390Y5104762D02*
X15938485Y5066667D01*
X15938485Y5066667D02*
X16014676Y5028572D01*
X16014676Y5028572D02*
X16167057Y4990477D01*
X16167057Y4990477D02*
X16357533Y4990477D01*
X16357533Y4990477D02*
X16509914Y5028572D01*
X16509914Y5028572D02*
X16586104Y5066667D01*
X16586104Y5066667D02*
X16624200Y5104762D01*
X16624200Y5104762D02*
X16662295Y5180953D01*
X16662295Y5180953D02*
X16662295Y5257143D01*
X16662295Y5257143D02*
X16624200Y5333334D01*
X16624200Y5333334D02*
X16586104Y5371429D01*
X16586104Y5371429D02*
X16509914Y5409524D01*
X16509914Y5409524D02*
X16357533Y5447620D01*
X16357533Y5447620D02*
X16167057Y5447620D01*
X16167057Y5447620D02*
X16014676Y5409524D01*
X16014676Y5409524D02*
X15938485Y5371429D01*
X15938485Y5371429D02*
X15900390Y5333334D01*
X15900390Y5333334D02*
X15862295Y5257143D01*
%TO.C,R14*%
X13714285Y4337705D02*
X13980952Y4718658D01*
X14171428Y4337705D02*
X14171428Y5137705D01*
X14171428Y5137705D02*
X13866666Y5137705D01*
X13866666Y5137705D02*
X13790476Y5099610D01*
X13790476Y5099610D02*
X13752381Y5061515D01*
X13752381Y5061515D02*
X13714285Y4985324D01*
X13714285Y4985324D02*
X13714285Y4871039D01*
X13714285Y4871039D02*
X13752381Y4794848D01*
X13752381Y4794848D02*
X13790476Y4756753D01*
X13790476Y4756753D02*
X13866666Y4718658D01*
X13866666Y4718658D02*
X14171428Y4718658D01*
X12952381Y4337705D02*
X13409524Y4337705D01*
X13180952Y4337705D02*
X13180952Y5137705D01*
X13180952Y5137705D02*
X13257143Y5023420D01*
X13257143Y5023420D02*
X13333333Y4947229D01*
X13333333Y4947229D02*
X13409524Y4909134D01*
X12266666Y4871039D02*
X12266666Y4337705D01*
X12457142Y5175800D02*
X12647619Y4604372D01*
X12647619Y4604372D02*
X12152380Y4604372D01*
%TO.C,R9*%
X15162295Y11733333D02*
X14781342Y12000000D01*
X15162295Y12190476D02*
X14362295Y12190476D01*
X14362295Y12190476D02*
X14362295Y11885714D01*
X14362295Y11885714D02*
X14400390Y11809524D01*
X14400390Y11809524D02*
X14438485Y11771429D01*
X14438485Y11771429D02*
X14514676Y11733333D01*
X14514676Y11733333D02*
X14628961Y11733333D01*
X14628961Y11733333D02*
X14705152Y11771429D01*
X14705152Y11771429D02*
X14743247Y11809524D01*
X14743247Y11809524D02*
X14781342Y11885714D01*
X14781342Y11885714D02*
X14781342Y12190476D01*
X15162295Y11352381D02*
X15162295Y11200000D01*
X15162295Y11200000D02*
X15124200Y11123810D01*
X15124200Y11123810D02*
X15086104Y11085714D01*
X15086104Y11085714D02*
X14971819Y11009524D01*
X14971819Y11009524D02*
X14819438Y10971429D01*
X14819438Y10971429D02*
X14514676Y10971429D01*
X14514676Y10971429D02*
X14438485Y11009524D01*
X14438485Y11009524D02*
X14400390Y11047619D01*
X14400390Y11047619D02*
X14362295Y11123810D01*
X14362295Y11123810D02*
X14362295Y11276191D01*
X14362295Y11276191D02*
X14400390Y11352381D01*
X14400390Y11352381D02*
X14438485Y11390476D01*
X14438485Y11390476D02*
X14514676Y11428572D01*
X14514676Y11428572D02*
X14705152Y11428572D01*
X14705152Y11428572D02*
X14781342Y11390476D01*
X14781342Y11390476D02*
X14819438Y11352381D01*
X14819438Y11352381D02*
X14857533Y11276191D01*
X14857533Y11276191D02*
X14857533Y11123810D01*
X14857533Y11123810D02*
X14819438Y11047619D01*
X14819438Y11047619D02*
X14781342Y11009524D01*
X14781342Y11009524D02*
X14705152Y10971429D01*
%TO.C,R13*%
X16714285Y17837705D02*
X16980952Y18218658D01*
X17171428Y17837705D02*
X17171428Y18637705D01*
X17171428Y18637705D02*
X16866666Y18637705D01*
X16866666Y18637705D02*
X16790476Y18599610D01*
X16790476Y18599610D02*
X16752381Y18561515D01*
X16752381Y18561515D02*
X16714285Y18485324D01*
X16714285Y18485324D02*
X16714285Y18371039D01*
X16714285Y18371039D02*
X16752381Y18294848D01*
X16752381Y18294848D02*
X16790476Y18256753D01*
X16790476Y18256753D02*
X16866666Y18218658D01*
X16866666Y18218658D02*
X17171428Y18218658D01*
X15952381Y17837705D02*
X16409524Y17837705D01*
X16180952Y17837705D02*
X16180952Y18637705D01*
X16180952Y18637705D02*
X16257143Y18523420D01*
X16257143Y18523420D02*
X16333333Y18447229D01*
X16333333Y18447229D02*
X16409524Y18409134D01*
X15685714Y18637705D02*
X15190476Y18637705D01*
X15190476Y18637705D02*
X15457142Y18332943D01*
X15457142Y18332943D02*
X15342857Y18332943D01*
X15342857Y18332943D02*
X15266666Y18294848D01*
X15266666Y18294848D02*
X15228571Y18256753D01*
X15228571Y18256753D02*
X15190476Y18180562D01*
X15190476Y18180562D02*
X15190476Y17990086D01*
X15190476Y17990086D02*
X15228571Y17913896D01*
X15228571Y17913896D02*
X15266666Y17875800D01*
X15266666Y17875800D02*
X15342857Y17837705D01*
X15342857Y17837705D02*
X15571428Y17837705D01*
X15571428Y17837705D02*
X15647619Y17875800D01*
X15647619Y17875800D02*
X15685714Y17913896D01*
D11*
%TO.C,Q1*%
X11990000Y14337500D02*
X11990000Y13687500D01*
X11990000Y14337500D02*
X11990000Y14987500D01*
X15110000Y14337500D02*
X15110000Y12662500D01*
X15110000Y14337500D02*
X15110000Y14987500D01*
%TO.C,Q4*%
X13300000Y10660000D02*
X12650000Y10660000D01*
X13300000Y10660000D02*
X13950000Y10660000D01*
X13300000Y7540000D02*
X11625000Y7540000D01*
X13300000Y7540000D02*
X13950000Y7540000D01*
%TO.C,R10*%
X16722500Y9137258D02*
X16722500Y8662742D01*
X15677500Y9137258D02*
X15677500Y8662742D01*
%TO.C,R14*%
X12962742Y6922500D02*
X13437258Y6922500D01*
X12962742Y5877500D02*
X13437258Y5877500D01*
%TO.C,R9*%
X15677500Y12262742D02*
X15677500Y12737258D01*
X16722500Y12262742D02*
X16722500Y12737258D01*
%TO.C,R13*%
X15677500Y15587742D02*
X15677500Y16062258D01*
X16722500Y15587742D02*
X16722500Y16062258D01*
%TD*%
%LPC*%
D12*
%TO.C,J1*%
X18900000Y14780000D03*
D13*
X21440000Y14780000D03*
X18900000Y12240000D03*
X21440000Y12240000D03*
X18900000Y9700000D03*
X21440000Y9700000D03*
X18900000Y7160000D03*
X21440000Y7160000D03*
%TD*%
D14*
%TO.C,U1*%
X5250000Y14050000D03*
X5250000Y12050000D03*
X5250000Y10050000D03*
X5250000Y8050000D03*
D15*
X2150000Y13550000D03*
X2150000Y11050000D03*
X2150000Y8550000D03*
D16*
X6650000Y4650000D03*
X6650000Y17450000D03*
%TD*%
D17*
%TO.C,Q1*%
X14500000Y13400000D03*
X12600000Y13400000D03*
X13550000Y15275000D03*
%TD*%
D18*
%TO.C,Q4*%
X12362500Y8150000D03*
X12362500Y10050000D03*
X14237500Y9100000D03*
%TD*%
D19*
%TO.C,R10*%
X16200000Y9725000D03*
X16200000Y8075000D03*
%TD*%
D20*
%TO.C,R14*%
X12375000Y6400000D03*
X14025000Y6400000D03*
%TD*%
D21*
%TO.C,R9*%
X16200000Y11675000D03*
X16200000Y13325000D03*
%TD*%
%TO.C,R13*%
X16200000Y15000000D03*
X16200000Y16650000D03*
%TD*%
%LPD*%
M02*
