%TF.GenerationSoftware,KiCad,Pcbnew,7.0.6-7.0.6~ubuntu22.04.1*%
%TF.CreationDate,2023-08-04T16:05:21+03:00*%
%TF.ProjectId,SolderPlate_Control,536f6c64-6572-4506-9c61-74655f436f6e,rev?*%
%TF.SameCoordinates,Original*%
%TF.FileFunction,Other,Comment*%
%FSLAX46Y46*%
G04 Gerber Fmt 4.6, Leading zero omitted, Abs format (unit mm)*
G04 Created by KiCad (PCBNEW 7.0.6-7.0.6~ubuntu22.04.1) date 2023-08-04 16:05:21*
%MOMM*%
%LPD*%
G01*
G04 APERTURE LIST*
%ADD10C,0.150000*%
G04 APERTURE END LIST*
D10*
X25600057Y6380954D02*
X25552438Y6428573D01*
X25552438Y6428573D02*
X25504819Y6523811D01*
X25504819Y6523811D02*
X25504819Y6761906D01*
X25504819Y6761906D02*
X25552438Y6857144D01*
X25552438Y6857144D02*
X25600057Y6904763D01*
X25600057Y6904763D02*
X25695295Y6952382D01*
X25695295Y6952382D02*
X25790533Y6952382D01*
X25790533Y6952382D02*
X25933390Y6904763D01*
X25933390Y6904763D02*
X26504819Y6333335D01*
X26504819Y6333335D02*
X26504819Y6952382D01*
X25600057Y7333335D02*
X25552438Y7380954D01*
X25552438Y7380954D02*
X25504819Y7476192D01*
X25504819Y7476192D02*
X25504819Y7714287D01*
X25504819Y7714287D02*
X25552438Y7809525D01*
X25552438Y7809525D02*
X25600057Y7857144D01*
X25600057Y7857144D02*
X25695295Y7904763D01*
X25695295Y7904763D02*
X25790533Y7904763D01*
X25790533Y7904763D02*
X25933390Y7857144D01*
X25933390Y7857144D02*
X26504819Y7285716D01*
X26504819Y7285716D02*
X26504819Y7904763D01*
X26409580Y8333335D02*
X26457200Y8380954D01*
X26457200Y8380954D02*
X26504819Y8333335D01*
X26504819Y8333335D02*
X26457200Y8285716D01*
X26457200Y8285716D02*
X26409580Y8333335D01*
X26409580Y8333335D02*
X26504819Y8333335D01*
X25504819Y9000001D02*
X25504819Y9095239D01*
X25504819Y9095239D02*
X25552438Y9190477D01*
X25552438Y9190477D02*
X25600057Y9238096D01*
X25600057Y9238096D02*
X25695295Y9285715D01*
X25695295Y9285715D02*
X25885771Y9333334D01*
X25885771Y9333334D02*
X26123866Y9333334D01*
X26123866Y9333334D02*
X26314342Y9285715D01*
X26314342Y9285715D02*
X26409580Y9238096D01*
X26409580Y9238096D02*
X26457200Y9190477D01*
X26457200Y9190477D02*
X26504819Y9095239D01*
X26504819Y9095239D02*
X26504819Y9000001D01*
X26504819Y9000001D02*
X26457200Y8904763D01*
X26457200Y8904763D02*
X26409580Y8857144D01*
X26409580Y8857144D02*
X26314342Y8809525D01*
X26314342Y8809525D02*
X26123866Y8761906D01*
X26123866Y8761906D02*
X25885771Y8761906D01*
X25885771Y8761906D02*
X25695295Y8809525D01*
X25695295Y8809525D02*
X25600057Y8857144D01*
X25600057Y8857144D02*
X25552438Y8904763D01*
X25552438Y8904763D02*
X25504819Y9000001D01*
X25504819Y9952382D02*
X25504819Y10047620D01*
X25504819Y10047620D02*
X25552438Y10142858D01*
X25552438Y10142858D02*
X25600057Y10190477D01*
X25600057Y10190477D02*
X25695295Y10238096D01*
X25695295Y10238096D02*
X25885771Y10285715D01*
X25885771Y10285715D02*
X26123866Y10285715D01*
X26123866Y10285715D02*
X26314342Y10238096D01*
X26314342Y10238096D02*
X26409580Y10190477D01*
X26409580Y10190477D02*
X26457200Y10142858D01*
X26457200Y10142858D02*
X26504819Y10047620D01*
X26504819Y10047620D02*
X26504819Y9952382D01*
X26504819Y9952382D02*
X26457200Y9857144D01*
X26457200Y9857144D02*
X26409580Y9809525D01*
X26409580Y9809525D02*
X26314342Y9761906D01*
X26314342Y9761906D02*
X26123866Y9714287D01*
X26123866Y9714287D02*
X25885771Y9714287D01*
X25885771Y9714287D02*
X25695295Y9761906D01*
X25695295Y9761906D02*
X25600057Y9809525D01*
X25600057Y9809525D02*
X25552438Y9857144D01*
X25552438Y9857144D02*
X25504819Y9952382D01*
X25504819Y10904763D02*
X25504819Y11000001D01*
X25504819Y11000001D02*
X25552438Y11095239D01*
X25552438Y11095239D02*
X25600057Y11142858D01*
X25600057Y11142858D02*
X25695295Y11190477D01*
X25695295Y11190477D02*
X25885771Y11238096D01*
X25885771Y11238096D02*
X26123866Y11238096D01*
X26123866Y11238096D02*
X26314342Y11190477D01*
X26314342Y11190477D02*
X26409580Y11142858D01*
X26409580Y11142858D02*
X26457200Y11095239D01*
X26457200Y11095239D02*
X26504819Y11000001D01*
X26504819Y11000001D02*
X26504819Y10904763D01*
X26504819Y10904763D02*
X26457200Y10809525D01*
X26457200Y10809525D02*
X26409580Y10761906D01*
X26409580Y10761906D02*
X26314342Y10714287D01*
X26314342Y10714287D02*
X26123866Y10666668D01*
X26123866Y10666668D02*
X25885771Y10666668D01*
X25885771Y10666668D02*
X25695295Y10714287D01*
X25695295Y10714287D02*
X25600057Y10761906D01*
X25600057Y10761906D02*
X25552438Y10809525D01*
X25552438Y10809525D02*
X25504819Y10904763D01*
X25504819Y11857144D02*
X25504819Y11952382D01*
X25504819Y11952382D02*
X25552438Y12047620D01*
X25552438Y12047620D02*
X25600057Y12095239D01*
X25600057Y12095239D02*
X25695295Y12142858D01*
X25695295Y12142858D02*
X25885771Y12190477D01*
X25885771Y12190477D02*
X26123866Y12190477D01*
X26123866Y12190477D02*
X26314342Y12142858D01*
X26314342Y12142858D02*
X26409580Y12095239D01*
X26409580Y12095239D02*
X26457200Y12047620D01*
X26457200Y12047620D02*
X26504819Y11952382D01*
X26504819Y11952382D02*
X26504819Y11857144D01*
X26504819Y11857144D02*
X26457200Y11761906D01*
X26457200Y11761906D02*
X26409580Y11714287D01*
X26409580Y11714287D02*
X26314342Y11666668D01*
X26314342Y11666668D02*
X26123866Y11619049D01*
X26123866Y11619049D02*
X25885771Y11619049D01*
X25885771Y11619049D02*
X25695295Y11666668D01*
X25695295Y11666668D02*
X25600057Y11714287D01*
X25600057Y11714287D02*
X25552438Y11761906D01*
X25552438Y11761906D02*
X25504819Y11857144D01*
X26504819Y13380954D02*
X25838152Y13380954D01*
X25933390Y13380954D02*
X25885771Y13428573D01*
X25885771Y13428573D02*
X25838152Y13523811D01*
X25838152Y13523811D02*
X25838152Y13666668D01*
X25838152Y13666668D02*
X25885771Y13761906D01*
X25885771Y13761906D02*
X25981009Y13809525D01*
X25981009Y13809525D02*
X26504819Y13809525D01*
X25981009Y13809525D02*
X25885771Y13857144D01*
X25885771Y13857144D02*
X25838152Y13952382D01*
X25838152Y13952382D02*
X25838152Y14095239D01*
X25838152Y14095239D02*
X25885771Y14190478D01*
X25885771Y14190478D02*
X25981009Y14238097D01*
X25981009Y14238097D02*
X26504819Y14238097D01*
X26504819Y14714287D02*
X25838152Y14714287D01*
X25933390Y14714287D02*
X25885771Y14761906D01*
X25885771Y14761906D02*
X25838152Y14857144D01*
X25838152Y14857144D02*
X25838152Y15000001D01*
X25838152Y15000001D02*
X25885771Y15095239D01*
X25885771Y15095239D02*
X25981009Y15142858D01*
X25981009Y15142858D02*
X26504819Y15142858D01*
X25981009Y15142858D02*
X25885771Y15190477D01*
X25885771Y15190477D02*
X25838152Y15285715D01*
X25838152Y15285715D02*
X25838152Y15428572D01*
X25838152Y15428572D02*
X25885771Y15523811D01*
X25885771Y15523811D02*
X25981009Y15571430D01*
X25981009Y15571430D02*
X26504819Y15571430D01*
X23800000Y0D02*
X27786420Y0D01*
X23800000Y22000000D02*
X27786420Y22000000D01*
X27200000Y0D02*
X27200000Y22000000D01*
X27200000Y0D02*
X27200000Y22000000D01*
X27200000Y0D02*
X26613579Y1126504D01*
X27200000Y0D02*
X27786421Y1126504D01*
X27200000Y22000000D02*
X27786421Y20873496D01*
X27200000Y22000000D02*
X26613579Y20873496D01*
X7030953Y26599943D02*
X7078572Y26647562D01*
X7078572Y26647562D02*
X7173810Y26695181D01*
X7173810Y26695181D02*
X7411905Y26695181D01*
X7411905Y26695181D02*
X7507143Y26647562D01*
X7507143Y26647562D02*
X7554762Y26599943D01*
X7554762Y26599943D02*
X7602381Y26504705D01*
X7602381Y26504705D02*
X7602381Y26409467D01*
X7602381Y26409467D02*
X7554762Y26266610D01*
X7554762Y26266610D02*
X6983334Y25695181D01*
X6983334Y25695181D02*
X7602381Y25695181D01*
X7935715Y26695181D02*
X8554762Y26695181D01*
X8554762Y26695181D02*
X8221429Y26314229D01*
X8221429Y26314229D02*
X8364286Y26314229D01*
X8364286Y26314229D02*
X8459524Y26266610D01*
X8459524Y26266610D02*
X8507143Y26218991D01*
X8507143Y26218991D02*
X8554762Y26123753D01*
X8554762Y26123753D02*
X8554762Y25885658D01*
X8554762Y25885658D02*
X8507143Y25790420D01*
X8507143Y25790420D02*
X8459524Y25742800D01*
X8459524Y25742800D02*
X8364286Y25695181D01*
X8364286Y25695181D02*
X8078572Y25695181D01*
X8078572Y25695181D02*
X7983334Y25742800D01*
X7983334Y25742800D02*
X7935715Y25790420D01*
X8983334Y25790420D02*
X9030953Y25742800D01*
X9030953Y25742800D02*
X8983334Y25695181D01*
X8983334Y25695181D02*
X8935715Y25742800D01*
X8935715Y25742800D02*
X8983334Y25790420D01*
X8983334Y25790420D02*
X8983334Y25695181D01*
X9364286Y26695181D02*
X9983333Y26695181D01*
X9983333Y26695181D02*
X9650000Y26314229D01*
X9650000Y26314229D02*
X9792857Y26314229D01*
X9792857Y26314229D02*
X9888095Y26266610D01*
X9888095Y26266610D02*
X9935714Y26218991D01*
X9935714Y26218991D02*
X9983333Y26123753D01*
X9983333Y26123753D02*
X9983333Y25885658D01*
X9983333Y25885658D02*
X9935714Y25790420D01*
X9935714Y25790420D02*
X9888095Y25742800D01*
X9888095Y25742800D02*
X9792857Y25695181D01*
X9792857Y25695181D02*
X9507143Y25695181D01*
X9507143Y25695181D02*
X9411905Y25742800D01*
X9411905Y25742800D02*
X9364286Y25790420D01*
X10602381Y26695181D02*
X10697619Y26695181D01*
X10697619Y26695181D02*
X10792857Y26647562D01*
X10792857Y26647562D02*
X10840476Y26599943D01*
X10840476Y26599943D02*
X10888095Y26504705D01*
X10888095Y26504705D02*
X10935714Y26314229D01*
X10935714Y26314229D02*
X10935714Y26076134D01*
X10935714Y26076134D02*
X10888095Y25885658D01*
X10888095Y25885658D02*
X10840476Y25790420D01*
X10840476Y25790420D02*
X10792857Y25742800D01*
X10792857Y25742800D02*
X10697619Y25695181D01*
X10697619Y25695181D02*
X10602381Y25695181D01*
X10602381Y25695181D02*
X10507143Y25742800D01*
X10507143Y25742800D02*
X10459524Y25790420D01*
X10459524Y25790420D02*
X10411905Y25885658D01*
X10411905Y25885658D02*
X10364286Y26076134D01*
X10364286Y26076134D02*
X10364286Y26314229D01*
X10364286Y26314229D02*
X10411905Y26504705D01*
X10411905Y26504705D02*
X10459524Y26599943D01*
X10459524Y26599943D02*
X10507143Y26647562D01*
X10507143Y26647562D02*
X10602381Y26695181D01*
X11554762Y26695181D02*
X11650000Y26695181D01*
X11650000Y26695181D02*
X11745238Y26647562D01*
X11745238Y26647562D02*
X11792857Y26599943D01*
X11792857Y26599943D02*
X11840476Y26504705D01*
X11840476Y26504705D02*
X11888095Y26314229D01*
X11888095Y26314229D02*
X11888095Y26076134D01*
X11888095Y26076134D02*
X11840476Y25885658D01*
X11840476Y25885658D02*
X11792857Y25790420D01*
X11792857Y25790420D02*
X11745238Y25742800D01*
X11745238Y25742800D02*
X11650000Y25695181D01*
X11650000Y25695181D02*
X11554762Y25695181D01*
X11554762Y25695181D02*
X11459524Y25742800D01*
X11459524Y25742800D02*
X11411905Y25790420D01*
X11411905Y25790420D02*
X11364286Y25885658D01*
X11364286Y25885658D02*
X11316667Y26076134D01*
X11316667Y26076134D02*
X11316667Y26314229D01*
X11316667Y26314229D02*
X11364286Y26504705D01*
X11364286Y26504705D02*
X11411905Y26599943D01*
X11411905Y26599943D02*
X11459524Y26647562D01*
X11459524Y26647562D02*
X11554762Y26695181D01*
X12507143Y26695181D02*
X12602381Y26695181D01*
X12602381Y26695181D02*
X12697619Y26647562D01*
X12697619Y26647562D02*
X12745238Y26599943D01*
X12745238Y26599943D02*
X12792857Y26504705D01*
X12792857Y26504705D02*
X12840476Y26314229D01*
X12840476Y26314229D02*
X12840476Y26076134D01*
X12840476Y26076134D02*
X12792857Y25885658D01*
X12792857Y25885658D02*
X12745238Y25790420D01*
X12745238Y25790420D02*
X12697619Y25742800D01*
X12697619Y25742800D02*
X12602381Y25695181D01*
X12602381Y25695181D02*
X12507143Y25695181D01*
X12507143Y25695181D02*
X12411905Y25742800D01*
X12411905Y25742800D02*
X12364286Y25790420D01*
X12364286Y25790420D02*
X12316667Y25885658D01*
X12316667Y25885658D02*
X12269048Y26076134D01*
X12269048Y26076134D02*
X12269048Y26314229D01*
X12269048Y26314229D02*
X12316667Y26504705D01*
X12316667Y26504705D02*
X12364286Y26599943D01*
X12364286Y26599943D02*
X12411905Y26647562D01*
X12411905Y26647562D02*
X12507143Y26695181D01*
X14030953Y25695181D02*
X14030953Y26361848D01*
X14030953Y26266610D02*
X14078572Y26314229D01*
X14078572Y26314229D02*
X14173810Y26361848D01*
X14173810Y26361848D02*
X14316667Y26361848D01*
X14316667Y26361848D02*
X14411905Y26314229D01*
X14411905Y26314229D02*
X14459524Y26218991D01*
X14459524Y26218991D02*
X14459524Y25695181D01*
X14459524Y26218991D02*
X14507143Y26314229D01*
X14507143Y26314229D02*
X14602381Y26361848D01*
X14602381Y26361848D02*
X14745238Y26361848D01*
X14745238Y26361848D02*
X14840477Y26314229D01*
X14840477Y26314229D02*
X14888096Y26218991D01*
X14888096Y26218991D02*
X14888096Y25695181D01*
X15364286Y25695181D02*
X15364286Y26361848D01*
X15364286Y26266610D02*
X15411905Y26314229D01*
X15411905Y26314229D02*
X15507143Y26361848D01*
X15507143Y26361848D02*
X15650000Y26361848D01*
X15650000Y26361848D02*
X15745238Y26314229D01*
X15745238Y26314229D02*
X15792857Y26218991D01*
X15792857Y26218991D02*
X15792857Y25695181D01*
X15792857Y26218991D02*
X15840476Y26314229D01*
X15840476Y26314229D02*
X15935714Y26361848D01*
X15935714Y26361848D02*
X16078571Y26361848D01*
X16078571Y26361848D02*
X16173810Y26314229D01*
X16173810Y26314229D02*
X16221429Y26218991D01*
X16221429Y26218991D02*
X16221429Y25695181D01*
X23300000Y22500000D02*
X23300000Y25586420D01*
X0Y22500000D02*
X0Y25586420D01*
X23300000Y25000000D02*
X0Y25000000D01*
X23300000Y25000000D02*
X0Y25000000D01*
X23300000Y25000000D02*
X22173496Y24413579D01*
X23300000Y25000000D02*
X22173496Y25586421D01*
X0Y25000000D02*
X1126504Y25586421D01*
X0Y25000000D02*
X1126504Y24413579D01*
X4102381Y23695181D02*
X3530953Y23695181D01*
X3816667Y23695181D02*
X3816667Y24695181D01*
X3816667Y24695181D02*
X3721429Y24552324D01*
X3721429Y24552324D02*
X3626191Y24457086D01*
X3626191Y24457086D02*
X3530953Y24409467D01*
X4959524Y24695181D02*
X4769048Y24695181D01*
X4769048Y24695181D02*
X4673810Y24647562D01*
X4673810Y24647562D02*
X4626191Y24599943D01*
X4626191Y24599943D02*
X4530953Y24457086D01*
X4530953Y24457086D02*
X4483334Y24266610D01*
X4483334Y24266610D02*
X4483334Y23885658D01*
X4483334Y23885658D02*
X4530953Y23790420D01*
X4530953Y23790420D02*
X4578572Y23742800D01*
X4578572Y23742800D02*
X4673810Y23695181D01*
X4673810Y23695181D02*
X4864286Y23695181D01*
X4864286Y23695181D02*
X4959524Y23742800D01*
X4959524Y23742800D02*
X5007143Y23790420D01*
X5007143Y23790420D02*
X5054762Y23885658D01*
X5054762Y23885658D02*
X5054762Y24123753D01*
X5054762Y24123753D02*
X5007143Y24218991D01*
X5007143Y24218991D02*
X4959524Y24266610D01*
X4959524Y24266610D02*
X4864286Y24314229D01*
X4864286Y24314229D02*
X4673810Y24314229D01*
X4673810Y24314229D02*
X4578572Y24266610D01*
X4578572Y24266610D02*
X4530953Y24218991D01*
X4530953Y24218991D02*
X4483334Y24123753D01*
X5483334Y23790420D02*
X5530953Y23742800D01*
X5530953Y23742800D02*
X5483334Y23695181D01*
X5483334Y23695181D02*
X5435715Y23742800D01*
X5435715Y23742800D02*
X5483334Y23790420D01*
X5483334Y23790420D02*
X5483334Y23695181D01*
X5864286Y24695181D02*
X6483333Y24695181D01*
X6483333Y24695181D02*
X6150000Y24314229D01*
X6150000Y24314229D02*
X6292857Y24314229D01*
X6292857Y24314229D02*
X6388095Y24266610D01*
X6388095Y24266610D02*
X6435714Y24218991D01*
X6435714Y24218991D02*
X6483333Y24123753D01*
X6483333Y24123753D02*
X6483333Y23885658D01*
X6483333Y23885658D02*
X6435714Y23790420D01*
X6435714Y23790420D02*
X6388095Y23742800D01*
X6388095Y23742800D02*
X6292857Y23695181D01*
X6292857Y23695181D02*
X6007143Y23695181D01*
X6007143Y23695181D02*
X5911905Y23742800D01*
X5911905Y23742800D02*
X5864286Y23790420D01*
X7102381Y24695181D02*
X7197619Y24695181D01*
X7197619Y24695181D02*
X7292857Y24647562D01*
X7292857Y24647562D02*
X7340476Y24599943D01*
X7340476Y24599943D02*
X7388095Y24504705D01*
X7388095Y24504705D02*
X7435714Y24314229D01*
X7435714Y24314229D02*
X7435714Y24076134D01*
X7435714Y24076134D02*
X7388095Y23885658D01*
X7388095Y23885658D02*
X7340476Y23790420D01*
X7340476Y23790420D02*
X7292857Y23742800D01*
X7292857Y23742800D02*
X7197619Y23695181D01*
X7197619Y23695181D02*
X7102381Y23695181D01*
X7102381Y23695181D02*
X7007143Y23742800D01*
X7007143Y23742800D02*
X6959524Y23790420D01*
X6959524Y23790420D02*
X6911905Y23885658D01*
X6911905Y23885658D02*
X6864286Y24076134D01*
X6864286Y24076134D02*
X6864286Y24314229D01*
X6864286Y24314229D02*
X6911905Y24504705D01*
X6911905Y24504705D02*
X6959524Y24599943D01*
X6959524Y24599943D02*
X7007143Y24647562D01*
X7007143Y24647562D02*
X7102381Y24695181D01*
X8054762Y24695181D02*
X8150000Y24695181D01*
X8150000Y24695181D02*
X8245238Y24647562D01*
X8245238Y24647562D02*
X8292857Y24599943D01*
X8292857Y24599943D02*
X8340476Y24504705D01*
X8340476Y24504705D02*
X8388095Y24314229D01*
X8388095Y24314229D02*
X8388095Y24076134D01*
X8388095Y24076134D02*
X8340476Y23885658D01*
X8340476Y23885658D02*
X8292857Y23790420D01*
X8292857Y23790420D02*
X8245238Y23742800D01*
X8245238Y23742800D02*
X8150000Y23695181D01*
X8150000Y23695181D02*
X8054762Y23695181D01*
X8054762Y23695181D02*
X7959524Y23742800D01*
X7959524Y23742800D02*
X7911905Y23790420D01*
X7911905Y23790420D02*
X7864286Y23885658D01*
X7864286Y23885658D02*
X7816667Y24076134D01*
X7816667Y24076134D02*
X7816667Y24314229D01*
X7816667Y24314229D02*
X7864286Y24504705D01*
X7864286Y24504705D02*
X7911905Y24599943D01*
X7911905Y24599943D02*
X7959524Y24647562D01*
X7959524Y24647562D02*
X8054762Y24695181D01*
X9007143Y24695181D02*
X9102381Y24695181D01*
X9102381Y24695181D02*
X9197619Y24647562D01*
X9197619Y24647562D02*
X9245238Y24599943D01*
X9245238Y24599943D02*
X9292857Y24504705D01*
X9292857Y24504705D02*
X9340476Y24314229D01*
X9340476Y24314229D02*
X9340476Y24076134D01*
X9340476Y24076134D02*
X9292857Y23885658D01*
X9292857Y23885658D02*
X9245238Y23790420D01*
X9245238Y23790420D02*
X9197619Y23742800D01*
X9197619Y23742800D02*
X9102381Y23695181D01*
X9102381Y23695181D02*
X9007143Y23695181D01*
X9007143Y23695181D02*
X8911905Y23742800D01*
X8911905Y23742800D02*
X8864286Y23790420D01*
X8864286Y23790420D02*
X8816667Y23885658D01*
X8816667Y23885658D02*
X8769048Y24076134D01*
X8769048Y24076134D02*
X8769048Y24314229D01*
X8769048Y24314229D02*
X8816667Y24504705D01*
X8816667Y24504705D02*
X8864286Y24599943D01*
X8864286Y24599943D02*
X8911905Y24647562D01*
X8911905Y24647562D02*
X9007143Y24695181D01*
X10530953Y23695181D02*
X10530953Y24361848D01*
X10530953Y24266610D02*
X10578572Y24314229D01*
X10578572Y24314229D02*
X10673810Y24361848D01*
X10673810Y24361848D02*
X10816667Y24361848D01*
X10816667Y24361848D02*
X10911905Y24314229D01*
X10911905Y24314229D02*
X10959524Y24218991D01*
X10959524Y24218991D02*
X10959524Y23695181D01*
X10959524Y24218991D02*
X11007143Y24314229D01*
X11007143Y24314229D02*
X11102381Y24361848D01*
X11102381Y24361848D02*
X11245238Y24361848D01*
X11245238Y24361848D02*
X11340477Y24314229D01*
X11340477Y24314229D02*
X11388096Y24218991D01*
X11388096Y24218991D02*
X11388096Y23695181D01*
X11864286Y23695181D02*
X11864286Y24361848D01*
X11864286Y24266610D02*
X11911905Y24314229D01*
X11911905Y24314229D02*
X12007143Y24361848D01*
X12007143Y24361848D02*
X12150000Y24361848D01*
X12150000Y24361848D02*
X12245238Y24314229D01*
X12245238Y24314229D02*
X12292857Y24218991D01*
X12292857Y24218991D02*
X12292857Y23695181D01*
X12292857Y24218991D02*
X12340476Y24314229D01*
X12340476Y24314229D02*
X12435714Y24361848D01*
X12435714Y24361848D02*
X12578571Y24361848D01*
X12578571Y24361848D02*
X12673810Y24314229D01*
X12673810Y24314229D02*
X12721429Y24218991D01*
X12721429Y24218991D02*
X12721429Y23695181D01*
X0Y22500000D02*
X0Y23586420D01*
X16300000Y22500000D02*
X16300000Y23586420D01*
X0Y23000000D02*
X16300000Y23000000D01*
X0Y23000000D02*
X16300000Y23000000D01*
X0Y23000000D02*
X1126504Y23586421D01*
X0Y23000000D02*
X1126504Y22413579D01*
X16300000Y23000000D02*
X15173496Y22413579D01*
X16300000Y23000000D02*
X15173496Y23586421D01*
M02*
