%TF.GenerationSoftware,KiCad,Pcbnew,7.0.5-4d25ed1034~172~ubuntu22.04.1*%
%TF.CreationDate,2023-06-13T21:54:26+03:00*%
%TF.ProjectId,SolderPlate_Power,536f6c64-6572-4506-9c61-74655f506f77,1.0*%
%TF.SameCoordinates,Original*%
%TF.FileFunction,Copper,L2,Bot*%
%TF.FilePolarity,Positive*%
%FSLAX46Y46*%
G04 Gerber Fmt 4.6, Leading zero omitted, Abs format (unit mm)*
G04 Created by KiCad (PCBNEW 7.0.5-4d25ed1034~172~ubuntu22.04.1) date 2023-06-13 21:54:26*
%MOMM*%
%LPD*%
G01*
G04 APERTURE LIST*
G04 Aperture macros list*
%AMRoundRect*
0 Rectangle with rounded corners*
0 $1 Rounding radius*
0 $2 $3 $4 $5 $6 $7 $8 $9 X,Y pos of 4 corners*
0 Add a 4 corners polygon primitive as box body*
4,1,4,$2,$3,$4,$5,$6,$7,$8,$9,$2,$3,0*
0 Add four circle primitives for the rounded corners*
1,1,$1+$1,$2,$3*
1,1,$1+$1,$4,$5*
1,1,$1+$1,$6,$7*
1,1,$1+$1,$8,$9*
0 Add four rect primitives between the rounded corners*
20,1,$1+$1,$2,$3,$4,$5,0*
20,1,$1+$1,$4,$5,$6,$7,0*
20,1,$1+$1,$6,$7,$8,$9,0*
20,1,$1+$1,$8,$9,$2,$3,0*%
G04 Aperture macros list end*
%TA.AperFunction,ComponentPad*%
%ADD10C,2.600000*%
%TD*%
%TA.AperFunction,ComponentPad*%
%ADD11C,1.800000*%
%TD*%
%TA.AperFunction,ComponentPad*%
%ADD12RoundRect,0.250000X0.600000X0.750000X-0.600000X0.750000X-0.600000X-0.750000X0.600000X-0.750000X0*%
%TD*%
%TA.AperFunction,ComponentPad*%
%ADD13O,1.700000X2.000000*%
%TD*%
%TA.AperFunction,ComponentPad*%
%ADD14C,2.200000*%
%TD*%
%TA.AperFunction,ComponentPad*%
%ADD15R,1.700000X1.700000*%
%TD*%
%TA.AperFunction,ComponentPad*%
%ADD16O,1.700000X1.700000*%
%TD*%
%TA.AperFunction,ComponentPad*%
%ADD17R,2.300000X2.000000*%
%TD*%
%TA.AperFunction,ComponentPad*%
%ADD18C,2.300000*%
%TD*%
%TA.AperFunction,ComponentPad*%
%ADD19C,2.000000*%
%TD*%
%TA.AperFunction,SMDPad,CuDef*%
%ADD20RoundRect,0.225000X0.225000X0.250000X-0.225000X0.250000X-0.225000X-0.250000X0.225000X-0.250000X0*%
%TD*%
%TA.AperFunction,SMDPad,CuDef*%
%ADD21RoundRect,0.200000X0.200000X0.275000X-0.200000X0.275000X-0.200000X-0.275000X0.200000X-0.275000X0*%
%TD*%
%TA.AperFunction,SMDPad,CuDef*%
%ADD22RoundRect,0.150000X0.587500X0.150000X-0.587500X0.150000X-0.587500X-0.150000X0.587500X-0.150000X0*%
%TD*%
%TA.AperFunction,SMDPad,CuDef*%
%ADD23RoundRect,0.200000X-0.200000X-0.275000X0.200000X-0.275000X0.200000X0.275000X-0.200000X0.275000X0*%
%TD*%
%TA.AperFunction,ViaPad*%
%ADD24C,0.450000*%
%TD*%
%TA.AperFunction,Conductor*%
%ADD25C,0.500000*%
%TD*%
%TA.AperFunction,Conductor*%
%ADD26C,0.400000*%
%TD*%
%TA.AperFunction,Conductor*%
%ADD27C,2.000000*%
%TD*%
G04 APERTURE END LIST*
D10*
%TO.P,J3,1,Pin_1*%
%TO.N,Net-(J3-Pin_1)*%
X100000000Y2060000D03*
X100000000Y7140000D03*
%TD*%
D11*
%TO.P,RV1,1*%
%TO.N,Net-(J1-Pin_1)*%
X93800000Y14275000D03*
%TO.P,RV1,2*%
%TO.N,Net-(J3-Pin_1)*%
X90400000Y6775000D03*
%TD*%
D12*
%TO.P,J4,1,Pin_1*%
%TO.N,Net-(J4-Pin_1)*%
X8250000Y16975000D03*
D13*
%TO.P,J4,2,Pin_2*%
%TO.N,+5V*%
X5750000Y16975000D03*
%TD*%
D14*
%TO.P,FL2,1,1*%
%TO.N,Net-(J3-Pin_1)*%
X76100000Y6525000D03*
%TO.P,FL2,2,2*%
%TO.N,Net-(PS1-AC{slash}L)*%
X69100000Y6525000D03*
%TO.P,FL2,3,3*%
%TO.N,Net-(J1-Pin_1)*%
X76100000Y14525000D03*
%TO.P,FL2,4,4*%
%TO.N,Net-(PS1-AC{slash}N)*%
X69100000Y14525000D03*
%TD*%
D12*
%TO.P,J2,1,Pin_1*%
%TO.N,Net-(J2-Pin_1)*%
X17500000Y17000000D03*
D13*
%TO.P,J2,2,Pin_2*%
%TO.N,+5V*%
X15000000Y17000000D03*
%TD*%
D15*
%TO.P,J7,1,Pin_1*%
%TO.N,/Contrast*%
X2025000Y7080000D03*
D16*
%TO.P,J7,2,Pin_2*%
%TO.N,+5V*%
X4565000Y7080000D03*
%TO.P,J7,3,Pin_3*%
%TO.N,unconnected-(J7-Pin_3-Pad3)*%
X2025000Y4540000D03*
%TO.P,J7,4,Pin_4*%
%TO.N,/SSR*%
X4565000Y4540000D03*
%TO.P,J7,5,Pin_5*%
%TO.N,GND*%
X2025000Y2000000D03*
%TO.P,J7,6,Pin_6*%
%TO.N,/Fan_On*%
X4565000Y2000000D03*
%TD*%
D10*
%TO.P,J1,1,Pin_1*%
%TO.N,Net-(J1-Pin_1)*%
X100000000Y18940000D03*
X100000000Y13860000D03*
%TD*%
D17*
%TO.P,PS1,1,AC/L*%
%TO.N,Net-(PS1-AC{slash}L)*%
X61812500Y8000000D03*
D18*
%TO.P,PS1,2,AC/N*%
%TO.N,Net-(PS1-AC{slash}N)*%
X61812500Y13000000D03*
%TO.P,PS1,3,-Vout*%
%TO.N,GND*%
X32412500Y2800000D03*
%TO.P,PS1,4,+Vout*%
%TO.N,+5V*%
X32412500Y18200000D03*
%TD*%
D19*
%TO.P,C1,1*%
%TO.N,Net-(J3-Pin_1)*%
X83600000Y5525000D03*
%TO.P,C1,2*%
%TO.N,Net-(J1-Pin_1)*%
X83600000Y15525000D03*
%TD*%
D15*
%TO.P,J5,1,Pin_1*%
%TO.N,+5V*%
X10695000Y2250000D03*
D16*
%TO.P,J5,2,Pin_2*%
%TO.N,/LCD_V0*%
X13235000Y2250000D03*
%TO.P,J5,3,Pin_3*%
%TO.N,/LCD_BL*%
X15775000Y2250000D03*
%TO.P,J5,4,Pin_4*%
%TO.N,GND*%
X18315000Y2250000D03*
%TD*%
D20*
%TO.P,C3,1*%
%TO.N,/LCD_V0*%
X13275000Y5250000D03*
%TO.P,C3,2*%
%TO.N,GND*%
X11725000Y5250000D03*
%TD*%
D21*
%TO.P,R7,1*%
%TO.N,/LCD_V0*%
X11075000Y7250000D03*
%TO.P,R7,2*%
%TO.N,+5V*%
X9425000Y7250000D03*
%TD*%
D22*
%TO.P,Q3,1,G*%
%TO.N,Net-(Q3-G)*%
X15150000Y9200000D03*
%TO.P,Q3,2,S*%
%TO.N,GND*%
X15150000Y7300000D03*
%TO.P,Q3,3,D*%
%TO.N,/LCD_V0*%
X13275000Y8250000D03*
%TD*%
D23*
%TO.P,R6,1*%
%TO.N,/Contrast*%
X9375000Y9200000D03*
%TO.P,R6,2*%
%TO.N,Net-(Q3-G)*%
X11025000Y9200000D03*
%TD*%
D24*
%TO.N,GND*%
X33500000Y8500000D03*
X31000000Y1000000D03*
X35500000Y19500000D03*
X23000000Y18000000D03*
X22500000Y4500000D03*
X35500000Y15500000D03*
X31000000Y11000000D03*
X1500000Y12000000D03*
X31000000Y20000000D03*
X35500000Y1000000D03*
X11000000Y13000000D03*
X21500000Y16000000D03*
X27000000Y6500000D03*
X35500000Y6000000D03*
X12000000Y10500000D03*
X20500000Y6000000D03*
X31000000Y15500000D03*
X28500000Y4500000D03*
X28000000Y15500000D03*
X18500000Y4500000D03*
X23000000Y1500000D03*
X8000000Y3000000D03*
X10500000Y6000000D03*
X7000000Y1000000D03*
X20000000Y13500000D03*
X27500000Y20000000D03*
X35500000Y11000000D03*
X1500000Y16000000D03*
X22500000Y6500000D03*
X19500000Y9500000D03*
X33500000Y13500000D03*
X31000000Y6000000D03*
X11500000Y18500000D03*
X4000000Y13000000D03*
X13500000Y12000000D03*
X33500000Y5000000D03*
%TD*%
D25*
%TO.N,+5V*%
X7597500Y5347500D02*
X10695000Y2250000D01*
X5865000Y7080000D02*
X4565000Y7080000D01*
D26*
X9425000Y7175000D02*
X7597500Y5347500D01*
X9425000Y7250000D02*
X9425000Y7175000D01*
D25*
X5865000Y7080000D02*
X7597500Y5347500D01*
D27*
%TO.N,Net-(PS1-AC{slash}L)*%
X69100000Y6525000D02*
X63287500Y6525000D01*
X63287500Y6525000D02*
X61812500Y8000000D01*
%TO.N,Net-(PS1-AC{slash}N)*%
X63337500Y14525000D02*
X61812500Y13000000D01*
X69100000Y14525000D02*
X63337500Y14525000D01*
D26*
%TO.N,/LCD_V0*%
X13275000Y5250000D02*
X13275000Y2290000D01*
X13275000Y7250000D02*
X13275000Y5250000D01*
X11075000Y7250000D02*
X13275000Y7250000D01*
X13275000Y8250000D02*
X13275000Y7250000D01*
X13275000Y2290000D02*
X13235000Y2250000D01*
%TO.N,Net-(Q3-G)*%
X11025000Y9200000D02*
X15150000Y9200000D01*
%TO.N,/Contrast*%
X9375000Y9200000D02*
X2600000Y9200000D01*
X2600000Y9200000D02*
X2025000Y8625000D01*
X2025000Y8625000D02*
X2025000Y7080000D01*
%TD*%
%TA.AperFunction,Conductor*%
%TO.N,GND*%
G36*
X37955069Y20778683D02*
G01*
X37994665Y20724183D01*
X38000000Y20690500D01*
X38000000Y309500D01*
X37979183Y245431D01*
X37924683Y205835D01*
X37891000Y200500D01*
X508579Y200500D01*
X491527Y201842D01*
X424498Y212459D01*
X392067Y222997D01*
X339340Y249862D01*
X311751Y269906D01*
X269905Y311752D01*
X249862Y339340D01*
X222994Y392071D01*
X212458Y424500D01*
X211427Y431007D01*
X201842Y491529D01*
X200500Y508580D01*
X200500Y2000000D01*
X3509417Y2000000D01*
X3529700Y1794066D01*
X3589768Y1596046D01*
X3687315Y1413550D01*
X3818590Y1253590D01*
X3978550Y1122315D01*
X4161046Y1024768D01*
X4359066Y964700D01*
X4548054Y946087D01*
X4564999Y944417D01*
X4565000Y944417D01*
X4565001Y944417D01*
X4580657Y945960D01*
X4770934Y964700D01*
X4968954Y1024768D01*
X5151450Y1122315D01*
X5311410Y1253590D01*
X5442685Y1413550D01*
X5540232Y1596046D01*
X5600300Y1794066D01*
X5620583Y2000000D01*
X5600300Y2205934D01*
X5540232Y2403954D01*
X5442685Y2586450D01*
X5311410Y2746410D01*
X5151450Y2877685D01*
X4968954Y2975232D01*
X4770934Y3035300D01*
X4633644Y3048822D01*
X4565001Y3055583D01*
X4564999Y3055583D01*
X4462033Y3045442D01*
X4359066Y3035300D01*
X4161046Y2975232D01*
X4161043Y2975231D01*
X4161041Y2975230D01*
X3978555Y2877688D01*
X3978552Y2877687D01*
X3978550Y2877685D01*
X3978547Y2877684D01*
X3978549Y2877684D01*
X3818594Y2746414D01*
X3818586Y2746406D01*
X3687316Y2586451D01*
X3687312Y2586445D01*
X3589770Y2403959D01*
X3589769Y2403957D01*
X3589768Y2403954D01*
X3529700Y2205934D01*
X3509417Y2000000D01*
X200500Y2000000D01*
X200500Y4540000D01*
X969417Y4540000D01*
X989700Y4334066D01*
X1049768Y4136046D01*
X1147315Y3953550D01*
X1278590Y3793590D01*
X1438550Y3662315D01*
X1621046Y3564768D01*
X1819066Y3504700D01*
X2008054Y3486087D01*
X2024999Y3484417D01*
X2025000Y3484417D01*
X2025001Y3484417D01*
X2040657Y3485960D01*
X2230934Y3504700D01*
X2428954Y3564768D01*
X2611450Y3662315D01*
X2771410Y3793590D01*
X2902685Y3953550D01*
X3000232Y4136046D01*
X3060300Y4334066D01*
X3080583Y4540000D01*
X3509417Y4540000D01*
X3529700Y4334066D01*
X3589768Y4136046D01*
X3687315Y3953550D01*
X3818590Y3793590D01*
X3978550Y3662315D01*
X4161046Y3564768D01*
X4359066Y3504700D01*
X4548054Y3486087D01*
X4564999Y3484417D01*
X4565000Y3484417D01*
X4565001Y3484417D01*
X4580657Y3485960D01*
X4770934Y3504700D01*
X4968954Y3564768D01*
X5151450Y3662315D01*
X5311410Y3793590D01*
X5442685Y3953550D01*
X5540232Y4136046D01*
X5600300Y4334066D01*
X5620583Y4540000D01*
X5600300Y4745934D01*
X5540232Y4943954D01*
X5442685Y5126450D01*
X5311410Y5286410D01*
X5151450Y5417685D01*
X4968954Y5515232D01*
X4770934Y5575300D01*
X4633644Y5588822D01*
X4565001Y5595583D01*
X4564999Y5595583D01*
X4462033Y5585442D01*
X4359066Y5575300D01*
X4161046Y5515232D01*
X4161043Y5515231D01*
X4161041Y5515230D01*
X3978555Y5417688D01*
X3978552Y5417687D01*
X3978550Y5417685D01*
X3978547Y5417684D01*
X3978549Y5417684D01*
X3818594Y5286414D01*
X3818586Y5286406D01*
X3687316Y5126451D01*
X3687312Y5126445D01*
X3589770Y4943959D01*
X3589769Y4943957D01*
X3589768Y4943954D01*
X3529700Y4745934D01*
X3509417Y4540000D01*
X3080583Y4540000D01*
X3060300Y4745934D01*
X3000232Y4943954D01*
X2902685Y5126450D01*
X2771410Y5286410D01*
X2611450Y5417685D01*
X2428954Y5515232D01*
X2230934Y5575300D01*
X2093644Y5588822D01*
X2025001Y5595583D01*
X2024999Y5595583D01*
X1922032Y5585442D01*
X1819066Y5575300D01*
X1621046Y5515232D01*
X1621043Y5515231D01*
X1621041Y5515230D01*
X1438555Y5417688D01*
X1438552Y5417687D01*
X1438550Y5417685D01*
X1438547Y5417684D01*
X1438549Y5417684D01*
X1278594Y5286414D01*
X1278586Y5286406D01*
X1147316Y5126451D01*
X1147312Y5126445D01*
X1049770Y4943959D01*
X1049769Y4943957D01*
X1049768Y4943954D01*
X989700Y4745934D01*
X969417Y4540000D01*
X200500Y4540000D01*
X200500Y6210256D01*
X974499Y6210256D01*
X986133Y6151768D01*
X1030445Y6085451D01*
X1030450Y6085446D01*
X1096767Y6041134D01*
X1096769Y6041133D01*
X1155252Y6029500D01*
X1155255Y6029500D01*
X2894744Y6029500D01*
X2894748Y6029500D01*
X2953231Y6041133D01*
X3019552Y6085448D01*
X3063867Y6151769D01*
X3075500Y6210252D01*
X3075500Y7080000D01*
X3509417Y7080000D01*
X3529700Y6874066D01*
X3589768Y6676046D01*
X3687315Y6493550D01*
X3818590Y6333590D01*
X3978550Y6202315D01*
X4161046Y6104768D01*
X4359066Y6044700D01*
X4545638Y6026324D01*
X4564999Y6024417D01*
X4565000Y6024417D01*
X4565001Y6024417D01*
X4584362Y6026324D01*
X4770934Y6044700D01*
X4968954Y6104768D01*
X5151450Y6202315D01*
X5311410Y6333590D01*
X5442685Y6493550D01*
X5468890Y6542576D01*
X5484555Y6571882D01*
X5533116Y6618573D01*
X5580684Y6629500D01*
X5633246Y6629500D01*
X5697315Y6608683D01*
X5710321Y6597575D01*
X6554673Y5753224D01*
X7230932Y5076965D01*
X7230934Y5076962D01*
X8429681Y3878215D01*
X9612574Y2695322D01*
X9643157Y2635298D01*
X9644499Y2618247D01*
X9644499Y1380256D01*
X9656133Y1321768D01*
X9700445Y1255451D01*
X9700450Y1255446D01*
X9766767Y1211134D01*
X9766769Y1211133D01*
X9825252Y1199500D01*
X9825255Y1199500D01*
X11564744Y1199500D01*
X11564748Y1199500D01*
X11623231Y1211133D01*
X11689552Y1255448D01*
X11733867Y1321769D01*
X11745500Y1380252D01*
X11745500Y3119748D01*
X11733867Y3178231D01*
X11707520Y3217662D01*
X11689554Y3244550D01*
X11689549Y3244555D01*
X11623232Y3288867D01*
X11608610Y3291776D01*
X11564748Y3300500D01*
X11564745Y3300500D01*
X10326753Y3300500D01*
X10262684Y3321317D01*
X10249678Y3332425D01*
X8276322Y5305781D01*
X8245739Y5365805D01*
X8256277Y5432341D01*
X8276322Y5459931D01*
X9358967Y6542576D01*
X9418991Y6573159D01*
X9436042Y6574501D01*
X9656516Y6574501D01*
X9656518Y6574501D01*
X9750304Y6589354D01*
X9863342Y6646950D01*
X9953050Y6736658D01*
X10010646Y6849696D01*
X10025500Y6943481D01*
X10025499Y7556518D01*
X10010646Y7650304D01*
X9953050Y7763342D01*
X9863342Y7853050D01*
X9750303Y7910647D01*
X9656519Y7925500D01*
X9193484Y7925500D01*
X9193479Y7925499D01*
X9099697Y7910647D01*
X8986657Y7853050D01*
X8896950Y7763343D01*
X8839353Y7650304D01*
X8824500Y7556521D01*
X8824500Y7186044D01*
X8803683Y7121975D01*
X8792575Y7108969D01*
X7709930Y6026324D01*
X7649906Y5995741D01*
X7583370Y6006279D01*
X7555780Y6026324D01*
X6203605Y7378499D01*
X6199529Y7383060D01*
X6174882Y7413967D01*
X6174880Y7413968D01*
X6174879Y7413970D01*
X6150494Y7430596D01*
X6126561Y7446914D01*
X6124899Y7448093D01*
X6077885Y7482791D01*
X6077883Y7482792D01*
X6077882Y7482793D01*
X6077879Y7482794D01*
X6070658Y7486611D01*
X6070937Y7487140D01*
X6070291Y7487466D01*
X6070033Y7486928D01*
X6062672Y7490473D01*
X6006774Y7507715D01*
X6004852Y7508348D01*
X5949699Y7527646D01*
X5949695Y7527647D01*
X5941675Y7529164D01*
X5941785Y7529749D01*
X5941062Y7529872D01*
X5940974Y7529283D01*
X5932904Y7530500D01*
X5932902Y7530500D01*
X5932899Y7530500D01*
X5874452Y7530500D01*
X5872414Y7530538D01*
X5813990Y7532724D01*
X5805872Y7531809D01*
X5805804Y7532404D01*
X5791340Y7530500D01*
X5580684Y7530500D01*
X5516615Y7551317D01*
X5484555Y7588118D01*
X5442690Y7666442D01*
X5442687Y7666445D01*
X5442685Y7666450D01*
X5311410Y7826410D01*
X5151450Y7957685D01*
X4968954Y8055232D01*
X4770934Y8115300D01*
X4616608Y8130500D01*
X4565001Y8135583D01*
X4564999Y8135583D01*
X4513392Y8130500D01*
X4359066Y8115300D01*
X4161046Y8055232D01*
X4161043Y8055231D01*
X4161041Y8055230D01*
X3978555Y7957688D01*
X3978552Y7957687D01*
X3978550Y7957685D01*
X3978547Y7957684D01*
X3978549Y7957684D01*
X3818594Y7826414D01*
X3818586Y7826406D01*
X3687316Y7666451D01*
X3687312Y7666445D01*
X3589770Y7483959D01*
X3589769Y7483957D01*
X3589768Y7483954D01*
X3568539Y7413970D01*
X3529700Y7285933D01*
X3515415Y7140893D01*
X3509417Y7080000D01*
X3075500Y7080000D01*
X3075500Y7949748D01*
X3063867Y8008231D01*
X3032463Y8055230D01*
X3019554Y8074550D01*
X3019549Y8074555D01*
X2953232Y8118867D01*
X2938610Y8121776D01*
X2894748Y8130500D01*
X2894745Y8130500D01*
X2534500Y8130500D01*
X2470431Y8151317D01*
X2430835Y8205817D01*
X2425500Y8239500D01*
X2425500Y8413958D01*
X2446317Y8478027D01*
X2457426Y8491033D01*
X2733969Y8767575D01*
X2793992Y8798158D01*
X2811043Y8799500D01*
X8722659Y8799500D01*
X8786728Y8778683D01*
X8819777Y8739987D01*
X8846950Y8686658D01*
X8936658Y8596950D01*
X9049696Y8539354D01*
X9143481Y8524500D01*
X9606518Y8524501D01*
X9700304Y8539354D01*
X9813342Y8596950D01*
X9903050Y8686658D01*
X9960646Y8799696D01*
X9975500Y8893481D01*
X9975500Y8893485D01*
X10424500Y8893485D01*
X10424501Y8893480D01*
X10439353Y8799698D01*
X10439353Y8799697D01*
X10439354Y8799696D01*
X10496950Y8686658D01*
X10586658Y8596950D01*
X10699696Y8539354D01*
X10793481Y8524500D01*
X11256518Y8524501D01*
X11350304Y8539354D01*
X11463342Y8596950D01*
X11553050Y8686658D01*
X11580222Y8739987D01*
X11627856Y8787620D01*
X11677341Y8799500D01*
X12328170Y8799500D01*
X12392239Y8778683D01*
X12431835Y8724183D01*
X12431835Y8656817D01*
X12405246Y8613428D01*
X12398302Y8606483D01*
X12398301Y8606482D01*
X12346926Y8501393D01*
X12346926Y8501391D01*
X12337000Y8433263D01*
X12337000Y8066738D01*
X12346926Y7998610D01*
X12346926Y7998608D01*
X12382667Y7925499D01*
X12398302Y7893517D01*
X12455246Y7836573D01*
X12485828Y7776551D01*
X12475290Y7710015D01*
X12427655Y7662380D01*
X12378170Y7650500D01*
X11727341Y7650500D01*
X11663272Y7671317D01*
X11630222Y7710014D01*
X11603050Y7763342D01*
X11513342Y7853050D01*
X11400303Y7910647D01*
X11306519Y7925500D01*
X10843484Y7925500D01*
X10843479Y7925499D01*
X10749697Y7910647D01*
X10636657Y7853050D01*
X10546950Y7763343D01*
X10489353Y7650304D01*
X10474500Y7556520D01*
X10474500Y6943485D01*
X10474501Y6943480D01*
X10489353Y6849698D01*
X10489353Y6849697D01*
X10489354Y6849696D01*
X10546950Y6736658D01*
X10636658Y6646950D01*
X10749696Y6589354D01*
X10843481Y6574500D01*
X11306518Y6574501D01*
X11400304Y6589354D01*
X11513342Y6646950D01*
X11603050Y6736658D01*
X11630222Y6789987D01*
X11677856Y6837620D01*
X11727341Y6849500D01*
X12765500Y6849500D01*
X12829569Y6828683D01*
X12869165Y6774183D01*
X12874500Y6740500D01*
X12874500Y5954924D01*
X12853683Y5890855D01*
X12814986Y5857805D01*
X12796781Y5848530D01*
X12796779Y5848529D01*
X12701474Y5753224D01*
X12640280Y5633125D01*
X12640280Y5633124D01*
X12624500Y5533490D01*
X12624500Y4966511D01*
X12640280Y4866877D01*
X12640280Y4866876D01*
X12701473Y4746779D01*
X12796780Y4651472D01*
X12814983Y4642197D01*
X12862618Y4594563D01*
X12874499Y4545077D01*
X12874499Y3313791D01*
X12853682Y3249722D01*
X12816882Y3217662D01*
X12648555Y3127688D01*
X12648552Y3127687D01*
X12648550Y3127685D01*
X12648547Y3127684D01*
X12648549Y3127684D01*
X12488594Y2996414D01*
X12488586Y2996406D01*
X12357316Y2836451D01*
X12357312Y2836445D01*
X12259770Y2653959D01*
X12259769Y2653957D01*
X12259768Y2653954D01*
X12199700Y2455934D01*
X12179417Y2250000D01*
X12199700Y2044066D01*
X12259768Y1846046D01*
X12357315Y1663550D01*
X12488590Y1503590D01*
X12648550Y1372315D01*
X12831046Y1274768D01*
X13029066Y1214700D01*
X13218054Y1196087D01*
X13234999Y1194417D01*
X13235000Y1194417D01*
X13235001Y1194417D01*
X13250657Y1195960D01*
X13440934Y1214700D01*
X13638954Y1274768D01*
X13821450Y1372315D01*
X13981410Y1503590D01*
X14112685Y1663550D01*
X14210232Y1846046D01*
X14270300Y2044066D01*
X14290583Y2250000D01*
X14719417Y2250000D01*
X14739700Y2044066D01*
X14799768Y1846046D01*
X14897315Y1663550D01*
X15028590Y1503590D01*
X15188550Y1372315D01*
X15371046Y1274768D01*
X15569066Y1214700D01*
X15758054Y1196087D01*
X15774999Y1194417D01*
X15775000Y1194417D01*
X15775001Y1194417D01*
X15790657Y1195960D01*
X15980934Y1214700D01*
X16178954Y1274768D01*
X16361450Y1372315D01*
X16521410Y1503590D01*
X16652685Y1663550D01*
X16750232Y1846046D01*
X16810300Y2044066D01*
X16830583Y2250000D01*
X16810300Y2455934D01*
X16750232Y2653954D01*
X16652685Y2836450D01*
X16521410Y2996410D01*
X16361450Y3127685D01*
X16215499Y3205698D01*
X16178958Y3225230D01*
X16178957Y3225231D01*
X16178954Y3225232D01*
X15980934Y3285300D01*
X15826608Y3300500D01*
X15775001Y3305583D01*
X15774999Y3305583D01*
X15723392Y3300500D01*
X15569066Y3285300D01*
X15371046Y3225232D01*
X15371043Y3225231D01*
X15371041Y3225230D01*
X15188555Y3127688D01*
X15188552Y3127687D01*
X15188550Y3127685D01*
X15188547Y3127684D01*
X15188549Y3127684D01*
X15028594Y2996414D01*
X15028586Y2996406D01*
X14897316Y2836451D01*
X14897312Y2836445D01*
X14799770Y2653959D01*
X14799769Y2653957D01*
X14799768Y2653954D01*
X14739700Y2455934D01*
X14719417Y2250000D01*
X14290583Y2250000D01*
X14270300Y2455934D01*
X14210232Y2653954D01*
X14112685Y2836450D01*
X13981410Y2996410D01*
X13821450Y3127685D01*
X13821446Y3127688D01*
X13821445Y3127688D01*
X13733116Y3174901D01*
X13686426Y3223462D01*
X13675499Y3271026D01*
X13675499Y4545077D01*
X13696316Y4609145D01*
X13735016Y4642197D01*
X13753220Y4651472D01*
X13848528Y4746780D01*
X13909719Y4866874D01*
X13925500Y4966512D01*
X13925500Y5533488D01*
X13909719Y5633126D01*
X13848528Y5753220D01*
X13848526Y5753222D01*
X13848525Y5753224D01*
X13753219Y5848529D01*
X13735015Y5857804D01*
X13687380Y5905438D01*
X13675500Y5954920D01*
X13675500Y7209905D01*
X13676842Y7226956D01*
X13680492Y7250001D01*
X13676842Y7273046D01*
X13675500Y7290097D01*
X13675500Y7640500D01*
X13696317Y7704569D01*
X13750817Y7744165D01*
X13784500Y7749500D01*
X13895762Y7749500D01*
X13895762Y7749501D01*
X13963893Y7759427D01*
X14068983Y7810802D01*
X14151698Y7893517D01*
X14203073Y7998607D01*
X14213000Y8066740D01*
X14213000Y8433260D01*
X14203073Y8501393D01*
X14151698Y8606483D01*
X14144753Y8613428D01*
X14114172Y8673449D01*
X14124710Y8739985D01*
X14172345Y8787620D01*
X14221830Y8799500D01*
X14272170Y8799500D01*
X14336239Y8778683D01*
X14349238Y8767581D01*
X14356017Y8760802D01*
X14461107Y8709427D01*
X14529237Y8699501D01*
X14529238Y8699500D01*
X14529240Y8699500D01*
X15770762Y8699500D01*
X15770762Y8699501D01*
X15838893Y8709427D01*
X15943983Y8760802D01*
X16026698Y8843517D01*
X16078073Y8948607D01*
X16088000Y9016740D01*
X16088000Y9383260D01*
X16078073Y9451393D01*
X16026698Y9556483D01*
X15943983Y9639198D01*
X15943981Y9639199D01*
X15943982Y9639199D01*
X15838891Y9690574D01*
X15770762Y9700500D01*
X15770760Y9700500D01*
X14529240Y9700500D01*
X14529238Y9700500D01*
X14461109Y9690574D01*
X14461107Y9690574D01*
X14356018Y9639199D01*
X14356017Y9639199D01*
X14356017Y9639198D01*
X14349242Y9632424D01*
X14289221Y9601842D01*
X14272170Y9600500D01*
X11677341Y9600500D01*
X11613272Y9621317D01*
X11580222Y9660014D01*
X11553050Y9713342D01*
X11463342Y9803050D01*
X11350303Y9860647D01*
X11256519Y9875500D01*
X10793484Y9875500D01*
X10793479Y9875499D01*
X10699697Y9860647D01*
X10586657Y9803050D01*
X10496950Y9713343D01*
X10439353Y9600304D01*
X10424500Y9506520D01*
X10424500Y8893485D01*
X9975500Y8893485D01*
X9975499Y9506518D01*
X9960646Y9600304D01*
X9903050Y9713342D01*
X9813342Y9803050D01*
X9700303Y9860647D01*
X9606519Y9875500D01*
X9143484Y9875500D01*
X9143479Y9875499D01*
X9049697Y9860647D01*
X8936657Y9803050D01*
X8846950Y9713343D01*
X8835349Y9690574D01*
X8819777Y9660014D01*
X8772144Y9612380D01*
X8722659Y9600500D01*
X2663433Y9600500D01*
X2536567Y9600500D01*
X2527275Y9597482D01*
X2514371Y9593289D01*
X2497749Y9589299D01*
X2474696Y9585647D01*
X2474695Y9585647D01*
X2453896Y9575050D01*
X2438103Y9568508D01*
X2415913Y9561298D01*
X2397028Y9547578D01*
X2382454Y9538648D01*
X2361663Y9528054D01*
X2361655Y9528048D01*
X2339093Y9505486D01*
X2339090Y9505485D01*
X2339091Y9505484D01*
X1696952Y8863345D01*
X1696949Y8863341D01*
X1686354Y8842549D01*
X1677425Y8827979D01*
X1663705Y8809093D01*
X1663703Y8809089D01*
X1656491Y8786893D01*
X1649948Y8771096D01*
X1639352Y8750300D01*
X1635701Y8727251D01*
X1631710Y8710627D01*
X1624500Y8688437D01*
X1624500Y8239500D01*
X1603683Y8175431D01*
X1549183Y8135835D01*
X1515500Y8130500D01*
X1155252Y8130500D01*
X1120162Y8123521D01*
X1096767Y8118867D01*
X1030450Y8074555D01*
X1030445Y8074550D01*
X986133Y8008233D01*
X981479Y7984838D01*
X974500Y7949748D01*
X974500Y7949745D01*
X974500Y6210256D01*
X974499Y6210256D01*
X200500Y6210256D01*
X200500Y16773392D01*
X4699500Y16773392D01*
X4714700Y16619066D01*
X4774768Y16421046D01*
X4872315Y16238550D01*
X5003590Y16078590D01*
X5163550Y15947315D01*
X5346046Y15849768D01*
X5544066Y15789700D01*
X5733054Y15771087D01*
X5749999Y15769417D01*
X5750000Y15769417D01*
X5750001Y15769417D01*
X5765657Y15770960D01*
X5955934Y15789700D01*
X6153954Y15849768D01*
X6336450Y15947315D01*
X6496410Y16078590D01*
X6572029Y16170733D01*
X7199500Y16170733D01*
X7202353Y16140304D01*
X7202354Y16140300D01*
X7247207Y16012118D01*
X7247210Y16012113D01*
X7327846Y15902854D01*
X7327853Y15902847D01*
X7437112Y15822211D01*
X7437115Y15822210D01*
X7437118Y15822207D01*
X7565301Y15777354D01*
X7585589Y15775452D01*
X7595733Y15774500D01*
X7595734Y15774500D01*
X8904267Y15774500D01*
X8911874Y15775214D01*
X8934699Y15777354D01*
X9062882Y15822207D01*
X9172150Y15902850D01*
X9252793Y16012118D01*
X9297646Y16140301D01*
X9299990Y16165300D01*
X9300500Y16170733D01*
X9300500Y16798392D01*
X13949500Y16798392D01*
X13964700Y16644066D01*
X14024768Y16446046D01*
X14122315Y16263550D01*
X14253590Y16103590D01*
X14413550Y15972315D01*
X14596046Y15874768D01*
X14794066Y15814700D01*
X14983054Y15796087D01*
X14999999Y15794417D01*
X15000000Y15794417D01*
X15000001Y15794417D01*
X15015657Y15795960D01*
X15205934Y15814700D01*
X15403954Y15874768D01*
X15586450Y15972315D01*
X15746410Y16103590D01*
X15822029Y16195733D01*
X16449499Y16195733D01*
X16452353Y16165304D01*
X16452354Y16165300D01*
X16497207Y16037118D01*
X16497210Y16037113D01*
X16577846Y15927854D01*
X16577853Y15927847D01*
X16687112Y15847211D01*
X16687115Y15847210D01*
X16687118Y15847207D01*
X16815301Y15802354D01*
X16835589Y15800452D01*
X16845733Y15799500D01*
X16845734Y15799500D01*
X18154267Y15799500D01*
X18161874Y15800214D01*
X18184699Y15802354D01*
X18312882Y15847207D01*
X18422150Y15927850D01*
X18502793Y16037118D01*
X18547646Y16165301D01*
X18550500Y16195734D01*
X18550500Y17804266D01*
X18549990Y17809699D01*
X18547646Y17834697D01*
X18547645Y17834701D01*
X18502793Y17962882D01*
X18502789Y17962888D01*
X18422153Y18072147D01*
X18422146Y18072154D01*
X18312887Y18152790D01*
X18312882Y18152793D01*
X18184700Y18197646D01*
X18184696Y18197647D01*
X18159621Y18199998D01*
X31056841Y18199998D01*
X31077437Y17964590D01*
X31138596Y17736339D01*
X31138600Y17736330D01*
X31238463Y17522173D01*
X31238464Y17522171D01*
X31238465Y17522170D01*
X31374005Y17328599D01*
X31541099Y17161505D01*
X31734670Y17025965D01*
X31948837Y16926097D01*
X32177092Y16864937D01*
X32367356Y16848291D01*
X32412498Y16844341D01*
X32412500Y16844341D01*
X32412502Y16844341D01*
X32453693Y16847946D01*
X32647908Y16864937D01*
X32876163Y16926097D01*
X33090330Y17025965D01*
X33283901Y17161505D01*
X33450995Y17328599D01*
X33586535Y17522170D01*
X33686403Y17736337D01*
X33747563Y17964592D01*
X33765766Y18172647D01*
X33768159Y18199998D01*
X33768159Y18200003D01*
X33762752Y18261791D01*
X33747563Y18435408D01*
X33686403Y18663663D01*
X33586535Y18877829D01*
X33450995Y19071401D01*
X33283901Y19238495D01*
X33090330Y19374035D01*
X33090329Y19374036D01*
X33090327Y19374037D01*
X32876170Y19473900D01*
X32876161Y19473904D01*
X32647910Y19535063D01*
X32412502Y19555659D01*
X32412498Y19555659D01*
X32177089Y19535063D01*
X31948838Y19473904D01*
X31948829Y19473900D01*
X31734676Y19374038D01*
X31734675Y19374037D01*
X31734671Y19374035D01*
X31541099Y19238495D01*
X31374005Y19071401D01*
X31238465Y18877829D01*
X31238464Y18877827D01*
X31238462Y18877824D01*
X31138600Y18663671D01*
X31138596Y18663662D01*
X31077437Y18435411D01*
X31056841Y18200003D01*
X31056841Y18199998D01*
X18159621Y18199998D01*
X18154267Y18200500D01*
X18154266Y18200500D01*
X16845734Y18200500D01*
X16845733Y18200500D01*
X16815303Y18197647D01*
X16815299Y18197646D01*
X16687117Y18152793D01*
X16687112Y18152790D01*
X16577853Y18072154D01*
X16577846Y18072147D01*
X16497210Y17962888D01*
X16497207Y17962883D01*
X16452354Y17834701D01*
X16452353Y17834697D01*
X16449499Y17804268D01*
X16449499Y16195733D01*
X15822029Y16195733D01*
X15877685Y16263550D01*
X15975232Y16446046D01*
X16035300Y16644066D01*
X16050500Y16798392D01*
X16050500Y17201608D01*
X16035300Y17355934D01*
X15975232Y17553954D01*
X15877685Y17736450D01*
X15746410Y17896410D01*
X15586450Y18027685D01*
X15403954Y18125232D01*
X15205934Y18185300D01*
X15056705Y18199998D01*
X15000001Y18205583D01*
X14999999Y18205583D01*
X14919415Y18197646D01*
X14794066Y18185300D01*
X14596046Y18125232D01*
X14596043Y18125231D01*
X14596041Y18125230D01*
X14413555Y18027688D01*
X14413552Y18027687D01*
X14413550Y18027685D01*
X14413547Y18027684D01*
X14413549Y18027684D01*
X14253594Y17896414D01*
X14253586Y17896406D01*
X14122316Y17736451D01*
X14122312Y17736445D01*
X14024770Y17553959D01*
X14024769Y17553957D01*
X14024768Y17553954D01*
X13964700Y17355934D01*
X13949500Y17201608D01*
X13949500Y16798392D01*
X9300500Y16798392D01*
X9300500Y17779268D01*
X9299073Y17794483D01*
X9297646Y17809699D01*
X9252793Y17937882D01*
X9252789Y17937888D01*
X9172153Y18047147D01*
X9172146Y18047154D01*
X9062887Y18127790D01*
X9062882Y18127793D01*
X8934700Y18172646D01*
X8934696Y18172647D01*
X8904267Y18175500D01*
X8904266Y18175500D01*
X7595734Y18175500D01*
X7595733Y18175500D01*
X7565303Y18172647D01*
X7565299Y18172646D01*
X7437117Y18127793D01*
X7437112Y18127790D01*
X7327853Y18047154D01*
X7327846Y18047147D01*
X7247210Y17937888D01*
X7247207Y17937883D01*
X7202354Y17809701D01*
X7202353Y17809697D01*
X7199500Y17779268D01*
X7199500Y16170733D01*
X6572029Y16170733D01*
X6627685Y16238550D01*
X6725232Y16421046D01*
X6785300Y16619066D01*
X6800500Y16773392D01*
X6800500Y17176608D01*
X6785300Y17330934D01*
X6725232Y17528954D01*
X6627685Y17711450D01*
X6496410Y17871410D01*
X6336450Y18002685D01*
X6153954Y18100232D01*
X5955934Y18160300D01*
X5801608Y18175500D01*
X5750001Y18180583D01*
X5749999Y18180583D01*
X5669415Y18172646D01*
X5544066Y18160300D01*
X5346046Y18100232D01*
X5346043Y18100231D01*
X5346041Y18100230D01*
X5163555Y18002688D01*
X5163552Y18002687D01*
X5163550Y18002685D01*
X5163547Y18002684D01*
X5163549Y18002684D01*
X5003594Y17871414D01*
X5003586Y17871406D01*
X4872316Y17711451D01*
X4872312Y17711445D01*
X4774770Y17528959D01*
X4774769Y17528957D01*
X4774768Y17528954D01*
X4714700Y17330934D01*
X4699500Y17176608D01*
X4699500Y16773392D01*
X200500Y16773392D01*
X200500Y20491422D01*
X201842Y20508473D01*
X204078Y20522590D01*
X212458Y20575504D01*
X222993Y20607928D01*
X249863Y20660665D01*
X269902Y20688246D01*
X311754Y20730098D01*
X339335Y20750137D01*
X392072Y20777007D01*
X424496Y20787542D01*
X476874Y20795838D01*
X491528Y20798158D01*
X508579Y20799500D01*
X37891000Y20799500D01*
X37955069Y20778683D01*
G37*
%TD.AperFunction*%
%TD*%
%TA.AperFunction,Conductor*%
%TO.N,Net-(J3-Pin_1)*%
G36*
X101559191Y8881093D02*
G01*
X101595155Y8831593D01*
X101600000Y8801000D01*
X101600000Y399000D01*
X101581093Y340809D01*
X101531593Y304845D01*
X101501000Y300000D01*
X98499000Y300000D01*
X98440809Y318907D01*
X98404845Y368407D01*
X98400000Y399000D01*
X98400000Y4000000D01*
X74499000Y4000000D01*
X74440809Y4018907D01*
X74404845Y4068407D01*
X74400000Y4099000D01*
X74400000Y8801000D01*
X74418907Y8859191D01*
X74468407Y8895155D01*
X74499000Y8900000D01*
X101501000Y8900000D01*
X101559191Y8881093D01*
G37*
%TD.AperFunction*%
%TD*%
%TA.AperFunction,Conductor*%
%TO.N,Net-(J1-Pin_1)*%
G36*
X101559191Y20681093D02*
G01*
X101595155Y20631593D01*
X101600000Y20601000D01*
X101600000Y12199000D01*
X101581093Y12140809D01*
X101531593Y12104845D01*
X101501000Y12100000D01*
X74499000Y12100000D01*
X74440809Y12118907D01*
X74404845Y12168407D01*
X74400000Y12199000D01*
X74400000Y17101000D01*
X74418907Y17159191D01*
X74468407Y17195155D01*
X74499000Y17200000D01*
X98399999Y17200000D01*
X98400000Y17200000D01*
X98400000Y20601000D01*
X98418907Y20659191D01*
X98468407Y20695155D01*
X98499000Y20700000D01*
X101501000Y20700000D01*
X101559191Y20681093D01*
G37*
%TD.AperFunction*%
%TD*%
M02*
