%TF.GenerationSoftware,KiCad,Pcbnew,7.0.5-4d25ed1034~172~ubuntu22.04.1*%
%TF.CreationDate,2023-06-13T21:54:26+03:00*%
%TF.ProjectId,SolderPlate_Power,536f6c64-6572-4506-9c61-74655f506f77,1.0*%
%TF.SameCoordinates,Original*%
%TF.FileFunction,Copper,L1,Top*%
%TF.FilePolarity,Positive*%
%FSLAX46Y46*%
G04 Gerber Fmt 4.6, Leading zero omitted, Abs format (unit mm)*
G04 Created by KiCad (PCBNEW 7.0.5-4d25ed1034~172~ubuntu22.04.1) date 2023-06-13 21:54:26*
%MOMM*%
%LPD*%
G01*
G04 APERTURE LIST*
G04 Aperture macros list*
%AMRoundRect*
0 Rectangle with rounded corners*
0 $1 Rounding radius*
0 $2 $3 $4 $5 $6 $7 $8 $9 X,Y pos of 4 corners*
0 Add a 4 corners polygon primitive as box body*
4,1,4,$2,$3,$4,$5,$6,$7,$8,$9,$2,$3,0*
0 Add four circle primitives for the rounded corners*
1,1,$1+$1,$2,$3*
1,1,$1+$1,$4,$5*
1,1,$1+$1,$6,$7*
1,1,$1+$1,$8,$9*
0 Add four rect primitives between the rounded corners*
20,1,$1+$1,$2,$3,$4,$5,0*
20,1,$1+$1,$4,$5,$6,$7,0*
20,1,$1+$1,$6,$7,$8,$9,0*
20,1,$1+$1,$8,$9,$2,$3,0*%
G04 Aperture macros list end*
%TA.AperFunction,ComponentPad*%
%ADD10C,2.600000*%
%TD*%
%TA.AperFunction,SMDPad,CuDef*%
%ADD11RoundRect,0.150000X0.150000X-0.587500X0.150000X0.587500X-0.150000X0.587500X-0.150000X-0.587500X0*%
%TD*%
%TA.AperFunction,SMDPad,CuDef*%
%ADD12RoundRect,0.200000X0.200000X0.275000X-0.200000X0.275000X-0.200000X-0.275000X0.200000X-0.275000X0*%
%TD*%
%TA.AperFunction,SMDPad,CuDef*%
%ADD13RoundRect,0.200000X0.275000X-0.200000X0.275000X0.200000X-0.275000X0.200000X-0.275000X-0.200000X0*%
%TD*%
%TA.AperFunction,ComponentPad*%
%ADD14C,1.800000*%
%TD*%
%TA.AperFunction,ComponentPad*%
%ADD15RoundRect,0.250000X0.600000X0.750000X-0.600000X0.750000X-0.600000X-0.750000X0.600000X-0.750000X0*%
%TD*%
%TA.AperFunction,ComponentPad*%
%ADD16O,1.700000X2.000000*%
%TD*%
%TA.AperFunction,ComponentPad*%
%ADD17C,2.200000*%
%TD*%
%TA.AperFunction,SMDPad,CuDef*%
%ADD18RoundRect,0.250000X-0.550000X1.500000X-0.550000X-1.500000X0.550000X-1.500000X0.550000X1.500000X0*%
%TD*%
%TA.AperFunction,SMDPad,CuDef*%
%ADD19RoundRect,0.200000X-0.275000X0.200000X-0.275000X-0.200000X0.275000X-0.200000X0.275000X0.200000X0*%
%TD*%
%TA.AperFunction,ComponentPad*%
%ADD20R,1.700000X1.700000*%
%TD*%
%TA.AperFunction,ComponentPad*%
%ADD21O,1.700000X1.700000*%
%TD*%
%TA.AperFunction,ComponentPad*%
%ADD22R,2.300000X2.000000*%
%TD*%
%TA.AperFunction,ComponentPad*%
%ADD23C,2.300000*%
%TD*%
%TA.AperFunction,ComponentPad*%
%ADD24C,2.000000*%
%TD*%
%TA.AperFunction,ViaPad*%
%ADD25C,0.450000*%
%TD*%
%TA.AperFunction,Conductor*%
%ADD26C,0.400000*%
%TD*%
%TA.AperFunction,Conductor*%
%ADD27C,0.500000*%
%TD*%
%TA.AperFunction,Conductor*%
%ADD28C,1.500000*%
%TD*%
%TA.AperFunction,Conductor*%
%ADD29C,0.300000*%
%TD*%
G04 APERTURE END LIST*
D10*
%TO.P,J3,1,Pin_1*%
%TO.N,Net-(J3-Pin_1)*%
X100000000Y2060000D03*
X100000000Y7140000D03*
%TD*%
D11*
%TO.P,Q1,1,G*%
%TO.N,Net-(Q1-G)*%
X16550000Y10812500D03*
%TO.P,Q1,2,S*%
%TO.N,GND*%
X18450000Y10812500D03*
%TO.P,Q1,3,D*%
%TO.N,Net-(J2-Pin_1)*%
X17500000Y12687500D03*
%TD*%
D12*
%TO.P,R5,1*%
%TO.N,GND*%
X9075000Y8750000D03*
%TO.P,R5,2*%
%TO.N,Net-(Q2-G)*%
X7425000Y8750000D03*
%TD*%
D13*
%TO.P,R4,1*%
%TO.N,/SSR*%
X5500000Y11275000D03*
%TO.P,R4,2*%
%TO.N,Net-(Q2-G)*%
X5500000Y12925000D03*
%TD*%
D14*
%TO.P,RV1,1*%
%TO.N,Net-(J1-Pin_1)*%
X93800000Y14275000D03*
%TO.P,RV1,2*%
%TO.N,Net-(J3-Pin_1)*%
X90400000Y6775000D03*
%TD*%
D15*
%TO.P,J4,1,Pin_1*%
%TO.N,Net-(J4-Pin_1)*%
X8250000Y16975000D03*
D16*
%TO.P,J4,2,Pin_2*%
%TO.N,+5V*%
X5750000Y16975000D03*
%TD*%
D17*
%TO.P,FL2,1,1*%
%TO.N,Net-(J3-Pin_1)*%
X76100000Y6525000D03*
%TO.P,FL2,2,2*%
%TO.N,Net-(PS1-AC{slash}L)*%
X69100000Y6525000D03*
%TO.P,FL2,3,3*%
%TO.N,Net-(J1-Pin_1)*%
X76100000Y14525000D03*
%TO.P,FL2,4,4*%
%TO.N,Net-(PS1-AC{slash}N)*%
X69100000Y14525000D03*
%TD*%
D11*
%TO.P,Q2,1,G*%
%TO.N,Net-(Q2-G)*%
X7300000Y10750000D03*
%TO.P,Q2,2,S*%
%TO.N,GND*%
X9200000Y10750000D03*
%TO.P,Q2,3,D*%
%TO.N,Net-(J4-Pin_1)*%
X8250000Y12625000D03*
%TD*%
D12*
%TO.P,R3,1*%
%TO.N,GND*%
X18325000Y8750000D03*
%TO.P,R3,2*%
%TO.N,Net-(Q1-G)*%
X16675000Y8750000D03*
%TD*%
D18*
%TO.P,C2,1*%
%TO.N,+5V*%
X24600000Y13225000D03*
%TO.P,C2,2*%
%TO.N,GND*%
X24600000Y7825000D03*
%TD*%
D13*
%TO.P,R2,1*%
%TO.N,/Fan_On*%
X14750000Y9175000D03*
%TO.P,R2,2*%
%TO.N,Net-(Q1-G)*%
X14750000Y10825000D03*
%TD*%
D15*
%TO.P,J2,1,Pin_1*%
%TO.N,Net-(J2-Pin_1)*%
X17500000Y17000000D03*
D16*
%TO.P,J2,2,Pin_2*%
%TO.N,+5V*%
X15000000Y17000000D03*
%TD*%
D19*
%TO.P,R1,1*%
%TO.N,+5V*%
X15775000Y6825000D03*
%TO.P,R1,2*%
%TO.N,/LCD_BL*%
X15775000Y5175000D03*
%TD*%
D20*
%TO.P,J7,1,Pin_1*%
%TO.N,/Contrast*%
X2025000Y7080000D03*
D21*
%TO.P,J7,2,Pin_2*%
%TO.N,+5V*%
X4565000Y7080000D03*
%TO.P,J7,3,Pin_3*%
%TO.N,unconnected-(J7-Pin_3-Pad3)*%
X2025000Y4540000D03*
%TO.P,J7,4,Pin_4*%
%TO.N,/SSR*%
X4565000Y4540000D03*
%TO.P,J7,5,Pin_5*%
%TO.N,GND*%
X2025000Y2000000D03*
%TO.P,J7,6,Pin_6*%
%TO.N,/Fan_On*%
X4565000Y2000000D03*
%TD*%
D10*
%TO.P,J1,1,Pin_1*%
%TO.N,Net-(J1-Pin_1)*%
X100000000Y18940000D03*
X100000000Y13860000D03*
%TD*%
D22*
%TO.P,PS1,1,AC/L*%
%TO.N,Net-(PS1-AC{slash}L)*%
X61812500Y8000000D03*
D23*
%TO.P,PS1,2,AC/N*%
%TO.N,Net-(PS1-AC{slash}N)*%
X61812500Y13000000D03*
%TO.P,PS1,3,-Vout*%
%TO.N,GND*%
X32412500Y2800000D03*
%TO.P,PS1,4,+Vout*%
%TO.N,+5V*%
X32412500Y18200000D03*
%TD*%
D24*
%TO.P,C1,1*%
%TO.N,Net-(J3-Pin_1)*%
X83600000Y5525000D03*
%TO.P,C1,2*%
%TO.N,Net-(J1-Pin_1)*%
X83600000Y15525000D03*
%TD*%
D20*
%TO.P,J5,1,Pin_1*%
%TO.N,+5V*%
X10695000Y2250000D03*
D21*
%TO.P,J5,2,Pin_2*%
%TO.N,/LCD_V0*%
X13235000Y2250000D03*
%TO.P,J5,3,Pin_3*%
%TO.N,/LCD_BL*%
X15775000Y2250000D03*
%TO.P,J5,4,Pin_4*%
%TO.N,GND*%
X18315000Y2250000D03*
%TD*%
D25*
%TO.N,GND*%
X33500000Y8500000D03*
X31000000Y1000000D03*
X35500000Y19500000D03*
X23000000Y18000000D03*
X22500000Y4500000D03*
X35500000Y15500000D03*
X31000000Y11000000D03*
X1500000Y12000000D03*
X31000000Y20000000D03*
X35500000Y1000000D03*
X11000000Y13000000D03*
X21500000Y16000000D03*
X27000000Y6500000D03*
X35500000Y6000000D03*
X12000000Y10500000D03*
X20500000Y6000000D03*
X31000000Y15500000D03*
X28500000Y4500000D03*
X28000000Y15500000D03*
X18500000Y4500000D03*
X23000000Y1500000D03*
X8000000Y3000000D03*
X10500000Y6000000D03*
X7000000Y1000000D03*
X20000000Y13500000D03*
X27500000Y20000000D03*
X35500000Y11000000D03*
X1500000Y16000000D03*
X22500000Y6500000D03*
X19500000Y9500000D03*
X33500000Y13500000D03*
X31000000Y6000000D03*
X11500000Y18500000D03*
X4000000Y13000000D03*
X13500000Y12000000D03*
X33500000Y5000000D03*
%TD*%
D26*
%TO.N,+5V*%
X20500000Y12500000D02*
X21225000Y13225000D01*
D27*
X15000000Y19500000D02*
X5750000Y19500000D01*
X4565000Y9035000D02*
X4565000Y7080000D01*
D26*
X15775000Y6825000D02*
X19575000Y6825000D01*
X20500000Y7750000D02*
X20500000Y12500000D01*
D28*
X32412500Y18200000D02*
X25725000Y18200000D01*
D27*
X5750000Y19500000D02*
X3250000Y19500000D01*
D28*
X24600000Y17075000D02*
X24600000Y13225000D01*
D27*
X15000000Y17000000D02*
X15000000Y19500000D01*
D26*
X19575000Y6825000D02*
X20500000Y7750000D01*
D27*
X3250000Y19500000D02*
X2500000Y18750000D01*
X24425000Y19500000D02*
X25725000Y18200000D01*
X5750000Y19500000D02*
X5750000Y16975000D01*
X2500000Y18750000D02*
X2500000Y11100000D01*
X2500000Y11100000D02*
X4565000Y9035000D01*
X15000000Y19500000D02*
X24425000Y19500000D01*
D26*
X21225000Y13225000D02*
X24600000Y13225000D01*
D28*
X25725000Y18200000D02*
X24600000Y17075000D01*
%TO.N,GND*%
X24600000Y4000000D02*
X24600000Y7825000D01*
X32412500Y2800000D02*
X25800000Y2800000D01*
X25800000Y2800000D02*
X24600000Y4000000D01*
D26*
%TO.N,Net-(Q1-G)*%
X14750000Y10825000D02*
X16537500Y10825000D01*
X16675000Y9525000D02*
X16550000Y9650000D01*
X16537500Y10825000D02*
X16550000Y10812500D01*
X16675000Y8750000D02*
X16675000Y9525000D01*
X16550000Y9650000D02*
X16550000Y10812500D01*
%TO.N,/LCD_BL*%
X15775000Y5175000D02*
X15775000Y2250000D01*
%TO.N,/Fan_On*%
X9815000Y7250000D02*
X4565000Y2000000D01*
X12825000Y7250000D02*
X9815000Y7250000D01*
X12825000Y7250000D02*
X14750000Y9175000D01*
%TO.N,Net-(J2-Pin_1)*%
X17500000Y12687500D02*
X17500000Y17000000D01*
%TO.N,Net-(J4-Pin_1)*%
X8250000Y12625000D02*
X8250000Y16975000D01*
D29*
%TO.N,Net-(Q2-G)*%
X7300000Y12600000D02*
X7300000Y10750000D01*
X5500000Y12925000D02*
X6975000Y12925000D01*
D26*
X7300000Y9800000D02*
X7300000Y10750000D01*
D29*
X6975000Y12925000D02*
X7300000Y12600000D01*
D26*
X7425000Y9675000D02*
X7300000Y9800000D01*
X7425000Y8750000D02*
X7425000Y9675000D01*
D29*
%TO.N,/SSR*%
X6200000Y6175000D02*
X6200000Y8500000D01*
X6200000Y8500000D02*
X5500000Y9200000D01*
X4565000Y4540000D02*
X6200000Y6175000D01*
X5500000Y9200000D02*
X5500000Y11275000D01*
%TD*%
%TA.AperFunction,Conductor*%
%TO.N,GND*%
G36*
X37955069Y20778683D02*
G01*
X37994665Y20724183D01*
X38000000Y20690500D01*
X38000000Y309500D01*
X37979183Y245431D01*
X37924683Y205835D01*
X37891000Y200500D01*
X508579Y200500D01*
X491527Y201842D01*
X424498Y212459D01*
X392067Y222997D01*
X339340Y249862D01*
X311751Y269906D01*
X269905Y311752D01*
X249862Y339340D01*
X222994Y392071D01*
X212458Y424500D01*
X211427Y431007D01*
X201842Y491529D01*
X200500Y508580D01*
X200500Y2000000D01*
X3509417Y2000000D01*
X3529700Y1794066D01*
X3589768Y1596046D01*
X3687315Y1413550D01*
X3818590Y1253590D01*
X3978550Y1122315D01*
X4161046Y1024768D01*
X4359066Y964700D01*
X4548054Y946087D01*
X4564999Y944417D01*
X4565000Y944417D01*
X4565001Y944417D01*
X4580657Y945960D01*
X4770934Y964700D01*
X4968954Y1024768D01*
X5151450Y1122315D01*
X5311410Y1253590D01*
X5415358Y1380252D01*
X9644500Y1380252D01*
X9653806Y1333466D01*
X9656133Y1321768D01*
X9700445Y1255451D01*
X9700450Y1255446D01*
X9766767Y1211134D01*
X9766769Y1211133D01*
X9825252Y1199500D01*
X9825255Y1199500D01*
X11564744Y1199500D01*
X11564748Y1199500D01*
X11623231Y1211133D01*
X11689552Y1255448D01*
X11733867Y1321769D01*
X11745500Y1380252D01*
X11745500Y2250000D01*
X12179417Y2250000D01*
X12199700Y2044066D01*
X12259768Y1846046D01*
X12357315Y1663550D01*
X12488590Y1503590D01*
X12648550Y1372315D01*
X12831046Y1274768D01*
X13029066Y1214700D01*
X13218054Y1196087D01*
X13234999Y1194417D01*
X13235000Y1194417D01*
X13235001Y1194417D01*
X13250657Y1195960D01*
X13440934Y1214700D01*
X13638954Y1274768D01*
X13821450Y1372315D01*
X13981410Y1503590D01*
X14112685Y1663550D01*
X14210232Y1846046D01*
X14270300Y2044066D01*
X14290583Y2250000D01*
X14719417Y2250000D01*
X14739700Y2044066D01*
X14799768Y1846046D01*
X14897315Y1663550D01*
X15028590Y1503590D01*
X15188550Y1372315D01*
X15371046Y1274768D01*
X15569066Y1214700D01*
X15758054Y1196087D01*
X15774999Y1194417D01*
X15775000Y1194417D01*
X15775001Y1194417D01*
X15790657Y1195960D01*
X15980934Y1214700D01*
X16178954Y1274768D01*
X16361450Y1372315D01*
X16521410Y1503590D01*
X16652685Y1663550D01*
X16750232Y1846046D01*
X16810300Y2044066D01*
X16830583Y2250000D01*
X16810300Y2455934D01*
X16750232Y2653954D01*
X16652685Y2836450D01*
X16521410Y2996410D01*
X16361450Y3127685D01*
X16339068Y3139649D01*
X16233117Y3196282D01*
X16186427Y3244843D01*
X16175500Y3292411D01*
X16175500Y4522659D01*
X16196317Y4586728D01*
X16235013Y4619778D01*
X16288342Y4646950D01*
X16378050Y4736658D01*
X16435646Y4849696D01*
X16450500Y4943481D01*
X16450499Y5406518D01*
X16435646Y5500304D01*
X16378050Y5613342D01*
X16288342Y5703050D01*
X16175303Y5760647D01*
X16081519Y5775500D01*
X15468484Y5775500D01*
X15468479Y5775499D01*
X15374697Y5760647D01*
X15261657Y5703050D01*
X15171950Y5613343D01*
X15114353Y5500304D01*
X15099500Y5406520D01*
X15099500Y4943485D01*
X15099501Y4943480D01*
X15114353Y4849698D01*
X15114353Y4849697D01*
X15114354Y4849696D01*
X15171950Y4736658D01*
X15261658Y4646950D01*
X15314986Y4619778D01*
X15362620Y4572144D01*
X15374500Y4522659D01*
X15374500Y3292411D01*
X15353683Y3228342D01*
X15316883Y3196282D01*
X15188555Y3127688D01*
X15188552Y3127687D01*
X15188550Y3127685D01*
X15188547Y3127684D01*
X15188549Y3127684D01*
X15028594Y2996414D01*
X15028586Y2996406D01*
X14897316Y2836451D01*
X14897312Y2836445D01*
X14799770Y2653959D01*
X14799769Y2653957D01*
X14799768Y2653954D01*
X14739700Y2455934D01*
X14719417Y2250000D01*
X14290583Y2250000D01*
X14270300Y2455934D01*
X14210232Y2653954D01*
X14112685Y2836450D01*
X13981410Y2996410D01*
X13821450Y3127685D01*
X13638954Y3225232D01*
X13440934Y3285300D01*
X13286608Y3300500D01*
X13235001Y3305583D01*
X13234999Y3305583D01*
X13183392Y3300500D01*
X13029066Y3285300D01*
X12831046Y3225232D01*
X12831043Y3225231D01*
X12831041Y3225230D01*
X12648555Y3127688D01*
X12648552Y3127687D01*
X12648550Y3127685D01*
X12648547Y3127684D01*
X12648549Y3127684D01*
X12488594Y2996414D01*
X12488586Y2996406D01*
X12357316Y2836451D01*
X12357312Y2836445D01*
X12259770Y2653959D01*
X12259769Y2653957D01*
X12259768Y2653954D01*
X12199700Y2455934D01*
X12179417Y2250000D01*
X11745500Y2250000D01*
X11745500Y3119748D01*
X11733867Y3178231D01*
X11702463Y3225230D01*
X11689554Y3244550D01*
X11689549Y3244555D01*
X11623232Y3288867D01*
X11605414Y3292411D01*
X11564748Y3300500D01*
X9825252Y3300500D01*
X9790162Y3293521D01*
X9766767Y3288867D01*
X9700450Y3244555D01*
X9700445Y3244550D01*
X9656133Y3178233D01*
X9656132Y3178231D01*
X9656133Y3178231D01*
X9644500Y3119748D01*
X9644500Y1380252D01*
X5415358Y1380252D01*
X5442685Y1413550D01*
X5540232Y1596046D01*
X5600300Y1794066D01*
X5620583Y2000000D01*
X5600300Y2205934D01*
X5558059Y2345186D01*
X5559382Y2412537D01*
X5585289Y2453898D01*
X9948967Y6817575D01*
X10008991Y6848158D01*
X10026042Y6849500D01*
X12888433Y6849500D01*
X12910629Y6856713D01*
X12927246Y6860703D01*
X12950304Y6864354D01*
X12971096Y6874949D01*
X12986890Y6881492D01*
X13009090Y6888704D01*
X13027977Y6902428D01*
X13042540Y6911352D01*
X13063342Y6921950D01*
X13079687Y6938297D01*
X13079696Y6938303D01*
X14271892Y8130500D01*
X14683967Y8542577D01*
X14743991Y8573159D01*
X14761042Y8574501D01*
X15056516Y8574501D01*
X15056518Y8574501D01*
X15150304Y8589354D01*
X15263342Y8646950D01*
X15353050Y8736658D01*
X15410646Y8849696D01*
X15425500Y8943481D01*
X15425499Y9406518D01*
X15410646Y9500304D01*
X15353050Y9613342D01*
X15263342Y9703050D01*
X15242964Y9713433D01*
X15150303Y9760647D01*
X15056519Y9775500D01*
X14443484Y9775500D01*
X14443479Y9775499D01*
X14349697Y9760647D01*
X14236657Y9703050D01*
X14146950Y9613343D01*
X14089353Y9500304D01*
X14074500Y9406521D01*
X14074500Y9111043D01*
X14053683Y9046974D01*
X14042575Y9033968D01*
X12691032Y7682425D01*
X12631008Y7651842D01*
X12613957Y7650500D01*
X9781256Y7650500D01*
X9781232Y7650499D01*
X9751566Y7650499D01*
X9729378Y7643290D01*
X9712752Y7639298D01*
X9689695Y7635646D01*
X9689694Y7635646D01*
X9668896Y7625049D01*
X9653099Y7618506D01*
X9630910Y7611297D01*
X9630907Y7611295D01*
X9612026Y7597577D01*
X9597443Y7588641D01*
X9576661Y7578053D01*
X9576656Y7578049D01*
X9522169Y7523567D01*
X9522165Y7523559D01*
X5018897Y3020292D01*
X4958873Y2989709D01*
X4910182Y2993060D01*
X4770934Y3035300D01*
X4633644Y3048822D01*
X4565001Y3055583D01*
X4564999Y3055583D01*
X4462033Y3045442D01*
X4359066Y3035300D01*
X4161046Y2975232D01*
X4161043Y2975231D01*
X4161041Y2975230D01*
X3978555Y2877688D01*
X3978552Y2877687D01*
X3978550Y2877685D01*
X3978547Y2877684D01*
X3978549Y2877684D01*
X3818594Y2746414D01*
X3818586Y2746406D01*
X3687316Y2586451D01*
X3687312Y2586445D01*
X3589770Y2403959D01*
X3589769Y2403957D01*
X3589768Y2403954D01*
X3529700Y2205934D01*
X3509417Y2000000D01*
X200500Y2000000D01*
X200500Y4540000D01*
X969417Y4540000D01*
X989700Y4334066D01*
X1049768Y4136046D01*
X1147315Y3953550D01*
X1278590Y3793590D01*
X1438550Y3662315D01*
X1621046Y3564768D01*
X1819066Y3504700D01*
X2008054Y3486087D01*
X2024999Y3484417D01*
X2025000Y3484417D01*
X2025001Y3484417D01*
X2040657Y3485960D01*
X2230934Y3504700D01*
X2428954Y3564768D01*
X2611450Y3662315D01*
X2771410Y3793590D01*
X2902685Y3953550D01*
X3000232Y4136046D01*
X3060300Y4334066D01*
X3080583Y4540000D01*
X3060300Y4745934D01*
X3000232Y4943954D01*
X2902685Y5126450D01*
X2771410Y5286410D01*
X2611450Y5417685D01*
X2456882Y5500304D01*
X2428958Y5515230D01*
X2428957Y5515231D01*
X2428954Y5515232D01*
X2230934Y5575300D01*
X2093644Y5588822D01*
X2025001Y5595583D01*
X2024999Y5595583D01*
X1922032Y5585442D01*
X1819066Y5575300D01*
X1621046Y5515232D01*
X1621043Y5515231D01*
X1621041Y5515230D01*
X1438555Y5417688D01*
X1438552Y5417687D01*
X1438550Y5417685D01*
X1406557Y5391430D01*
X1278594Y5286414D01*
X1278586Y5286406D01*
X1147316Y5126451D01*
X1147312Y5126445D01*
X1049770Y4943959D01*
X1049769Y4943957D01*
X1049768Y4943954D01*
X989700Y4745934D01*
X969417Y4540000D01*
X200500Y4540000D01*
X200500Y6210256D01*
X974499Y6210256D01*
X986133Y6151768D01*
X1030445Y6085451D01*
X1030450Y6085446D01*
X1096767Y6041134D01*
X1096769Y6041133D01*
X1155252Y6029500D01*
X1155255Y6029500D01*
X2894744Y6029500D01*
X2894748Y6029500D01*
X2953231Y6041133D01*
X3019552Y6085448D01*
X3063867Y6151769D01*
X3075500Y6210252D01*
X3075500Y7949748D01*
X3063867Y8008231D01*
X3063866Y8008233D01*
X3019554Y8074550D01*
X3019549Y8074555D01*
X2953232Y8118867D01*
X2938610Y8121776D01*
X2894748Y8130500D01*
X1155252Y8130500D01*
X1120162Y8123521D01*
X1096767Y8118867D01*
X1030450Y8074555D01*
X1030445Y8074550D01*
X986133Y8008233D01*
X986132Y8008231D01*
X986133Y8008231D01*
X974500Y7949748D01*
X974500Y7949745D01*
X974500Y6210256D01*
X974499Y6210256D01*
X200500Y6210256D01*
X200500Y11082962D01*
X2044730Y11082962D01*
X2055596Y11025530D01*
X2055937Y11023522D01*
X2064651Y10965717D01*
X2067060Y10957908D01*
X2066487Y10957732D01*
X2066714Y10957043D01*
X2067279Y10957240D01*
X2069977Y10949528D01*
X2097300Y10897828D01*
X2098218Y10896010D01*
X2123577Y10843353D01*
X2128177Y10836606D01*
X2127684Y10836271D01*
X2128103Y10835681D01*
X2128583Y10836034D01*
X2133434Y10829462D01*
X2174776Y10788119D01*
X2176190Y10786652D01*
X2215946Y10743805D01*
X2222331Y10738713D01*
X2221957Y10738245D01*
X2233532Y10729364D01*
X3162593Y9800303D01*
X4082575Y8880322D01*
X4113158Y8820298D01*
X4114500Y8803247D01*
X4114500Y8095685D01*
X4093683Y8031616D01*
X4056883Y7999556D01*
X3978555Y7957688D01*
X3978552Y7957687D01*
X3978550Y7957685D01*
X3978547Y7957684D01*
X3978549Y7957684D01*
X3818594Y7826414D01*
X3818586Y7826406D01*
X3713570Y7698442D01*
X3703825Y7686567D01*
X3687316Y7666451D01*
X3687312Y7666445D01*
X3589770Y7483959D01*
X3589769Y7483957D01*
X3589768Y7483954D01*
X3529700Y7285934D01*
X3509417Y7080000D01*
X3529700Y6874066D01*
X3589768Y6676046D01*
X3687315Y6493550D01*
X3818590Y6333590D01*
X3978550Y6202315D01*
X4161046Y6104768D01*
X4359066Y6044700D01*
X4548054Y6026087D01*
X4564999Y6024417D01*
X4565000Y6024417D01*
X4565001Y6024417D01*
X4580657Y6025960D01*
X4770934Y6044700D01*
X4968954Y6104768D01*
X5151450Y6202315D01*
X5311410Y6333590D01*
X5442685Y6493550D01*
X5540232Y6676046D01*
X5600300Y6874066D01*
X5620583Y7080000D01*
X5600300Y7285934D01*
X5540232Y7483954D01*
X5442685Y7666450D01*
X5311410Y7826410D01*
X5151450Y7957685D01*
X5126427Y7971060D01*
X5073117Y7999556D01*
X5026427Y8048117D01*
X5015500Y8095685D01*
X5015500Y8926808D01*
X5036317Y8990877D01*
X5090817Y9030473D01*
X5158183Y9030473D01*
X5202666Y8998154D01*
X5204416Y8999903D01*
X5204822Y8999497D01*
X5209558Y8993147D01*
X5212683Y8990877D01*
X5213217Y8990136D01*
X5215077Y8987531D01*
X5219580Y8981746D01*
X5219582Y8981742D01*
X5240591Y8962402D01*
X5256441Y8947810D01*
X5258066Y8946251D01*
X5817575Y8386743D01*
X5848158Y8326719D01*
X5849500Y8309668D01*
X5849500Y6365333D01*
X5828683Y6301264D01*
X5817575Y6288258D01*
X5073151Y5543835D01*
X5013127Y5513252D01*
X4964436Y5516603D01*
X4770934Y5575300D01*
X4565001Y5595583D01*
X4564999Y5595583D01*
X4462033Y5585442D01*
X4359066Y5575300D01*
X4161046Y5515232D01*
X4161043Y5515231D01*
X4161041Y5515230D01*
X3978555Y5417688D01*
X3978552Y5417687D01*
X3978550Y5417685D01*
X3946558Y5391430D01*
X3818594Y5286414D01*
X3818586Y5286406D01*
X3687316Y5126451D01*
X3687312Y5126445D01*
X3589770Y4943959D01*
X3589769Y4943957D01*
X3589768Y4943954D01*
X3529700Y4745934D01*
X3509417Y4540000D01*
X3529700Y4334066D01*
X3589768Y4136046D01*
X3687315Y3953550D01*
X3818590Y3793590D01*
X3978550Y3662315D01*
X4161046Y3564768D01*
X4359066Y3504700D01*
X4548054Y3486087D01*
X4564999Y3484417D01*
X4565000Y3484417D01*
X4565001Y3484417D01*
X4580657Y3485960D01*
X4770934Y3504700D01*
X4968954Y3564768D01*
X5151450Y3662315D01*
X5311410Y3793590D01*
X5442685Y3953550D01*
X5540232Y4136046D01*
X5600300Y4334066D01*
X5620583Y4540000D01*
X5600300Y4745934D01*
X5541602Y4939438D01*
X5542924Y5006790D01*
X5568831Y5048151D01*
X6414150Y5893470D01*
X6431607Y5907643D01*
X6440669Y5913563D01*
X6461153Y5939884D01*
X6465612Y5944931D01*
X6468375Y5947693D01*
X6480384Y5964515D01*
X6481729Y5966319D01*
X6512516Y6005873D01*
X6516008Y6012327D01*
X6519235Y6018930D01*
X6519239Y6018934D01*
X6533553Y6067019D01*
X6534207Y6069059D01*
X6550500Y6116512D01*
X6550500Y6116516D01*
X6551704Y6123728D01*
X6552614Y6131039D01*
X6552617Y6131046D01*
X6551383Y6160873D01*
X6550547Y6181109D01*
X6550500Y6183361D01*
X6550500Y8452349D01*
X6552820Y8474720D01*
X6555042Y8485315D01*
X6550919Y8518394D01*
X6550500Y8525141D01*
X6550500Y8529039D01*
X6548241Y8542576D01*
X6547090Y8549467D01*
X6546773Y8551645D01*
X6540573Y8601393D01*
X6540572Y8601396D01*
X6538481Y8608421D01*
X6536092Y8615378D01*
X6536092Y8615381D01*
X6524496Y8636807D01*
X6512250Y8659437D01*
X6511218Y8661441D01*
X6489199Y8706483D01*
X6484948Y8712436D01*
X6480417Y8718259D01*
X6443557Y8752192D01*
X6441932Y8753751D01*
X5882425Y9313257D01*
X5851842Y9373281D01*
X5850500Y9390332D01*
X5850500Y10597183D01*
X5871317Y10661252D01*
X5910012Y10694301D01*
X6013342Y10746950D01*
X6103050Y10836658D01*
X6160646Y10949696D01*
X6175500Y11043481D01*
X6175499Y11506518D01*
X6160646Y11600304D01*
X6103050Y11713342D01*
X6013342Y11803050D01*
X5956847Y11831836D01*
X5900303Y11860647D01*
X5806519Y11875500D01*
X5193484Y11875500D01*
X5193479Y11875499D01*
X5099697Y11860647D01*
X4986657Y11803050D01*
X4896950Y11713343D01*
X4839353Y11600304D01*
X4824500Y11506520D01*
X4824500Y11043485D01*
X4824501Y11043480D01*
X4839353Y10949698D01*
X4839353Y10949697D01*
X4839354Y10949696D01*
X4896950Y10836658D01*
X4986658Y10746950D01*
X5089986Y10694302D01*
X5137620Y10646668D01*
X5149500Y10597183D01*
X5149500Y9337130D01*
X5128683Y9273061D01*
X5074183Y9233465D01*
X5006817Y9233465D01*
X4952317Y9273061D01*
X4942296Y9289834D01*
X4941424Y9291645D01*
X4936823Y9298394D01*
X4937315Y9298731D01*
X4936895Y9299322D01*
X4936415Y9298967D01*
X4931567Y9305535D01*
X4931566Y9305538D01*
X4917160Y9319944D01*
X4890222Y9346883D01*
X4888808Y9348351D01*
X4849055Y9391195D01*
X4842670Y9396287D01*
X4843042Y9396755D01*
X4831467Y9405637D01*
X2982425Y11254679D01*
X2951842Y11314703D01*
X2950500Y11331754D01*
X2950500Y12693485D01*
X4824500Y12693485D01*
X4824501Y12693480D01*
X4839353Y12599698D01*
X4839353Y12599697D01*
X4839354Y12599696D01*
X4896950Y12486658D01*
X4986658Y12396950D01*
X5099696Y12339354D01*
X5193481Y12324500D01*
X5806518Y12324501D01*
X5900304Y12339354D01*
X6013342Y12396950D01*
X6103050Y12486658D01*
X6117483Y12514986D01*
X6165118Y12562620D01*
X6214603Y12574500D01*
X6784668Y12574500D01*
X6848737Y12553683D01*
X6861743Y12542575D01*
X6917575Y12486743D01*
X6948158Y12426719D01*
X6949500Y12409668D01*
X6949500Y11677831D01*
X6928683Y11613762D01*
X6917575Y11600757D01*
X6860801Y11543983D01*
X6809426Y11438893D01*
X6809426Y11438891D01*
X6799500Y11370763D01*
X6799500Y10129238D01*
X6809426Y10061110D01*
X6809426Y10061107D01*
X6849166Y9979819D01*
X6860802Y9956017D01*
X6867572Y9949247D01*
X6898157Y9889225D01*
X6899500Y9872170D01*
X6899500Y9736564D01*
X6906710Y9714373D01*
X6910701Y9697749D01*
X6914352Y9674701D01*
X6914353Y9674698D01*
X6914354Y9674696D01*
X6924949Y9653901D01*
X6931492Y9638107D01*
X6938704Y9615909D01*
X6952420Y9597031D01*
X6961354Y9582452D01*
X6971948Y9561661D01*
X6971951Y9561656D01*
X6991779Y9541828D01*
X6991780Y9541828D01*
X6992575Y9541033D01*
X7023158Y9481009D01*
X7024500Y9463958D01*
X7024500Y9436042D01*
X7003683Y9371973D01*
X6992575Y9358967D01*
X6896950Y9263343D01*
X6839353Y9150304D01*
X6824500Y9056520D01*
X6824500Y8443485D01*
X6824501Y8443480D01*
X6839353Y8349698D01*
X6839353Y8349697D01*
X6839354Y8349696D01*
X6896950Y8236658D01*
X6986658Y8146950D01*
X7099696Y8089354D01*
X7193481Y8074500D01*
X7656518Y8074501D01*
X7750304Y8089354D01*
X7863342Y8146950D01*
X7953050Y8236658D01*
X8010646Y8349696D01*
X8025500Y8443481D01*
X8025499Y9056518D01*
X8010646Y9150304D01*
X7953050Y9263342D01*
X7863342Y9353050D01*
X7857425Y9358967D01*
X7826842Y9418991D01*
X7825500Y9436042D01*
X7825500Y9728200D01*
X7825501Y9728200D01*
X7825499Y9728206D01*
X7825500Y9738433D01*
X7818286Y9760633D01*
X7814295Y9777262D01*
X7810646Y9800303D01*
X7810646Y9800304D01*
X7800048Y9821103D01*
X7793505Y9836901D01*
X7791201Y9843993D01*
X7786296Y9859089D01*
X7772576Y9877974D01*
X7763645Y9892547D01*
X7760033Y9899636D01*
X7749495Y9966171D01*
X7759226Y9996987D01*
X7790573Y10061107D01*
X7800500Y10129240D01*
X7800500Y10593485D01*
X14074500Y10593485D01*
X14074501Y10593480D01*
X14089353Y10499698D01*
X14089353Y10499697D01*
X14089354Y10499696D01*
X14146950Y10386658D01*
X14236658Y10296950D01*
X14349696Y10239354D01*
X14443481Y10224500D01*
X15056518Y10224501D01*
X15150304Y10239354D01*
X15263342Y10296950D01*
X15353050Y10386658D01*
X15358966Y10392574D01*
X15418989Y10423158D01*
X15436041Y10424500D01*
X15940500Y10424500D01*
X16004569Y10403683D01*
X16044165Y10349183D01*
X16049500Y10315500D01*
X16049500Y10191738D01*
X16059426Y10123610D01*
X16059426Y10123608D01*
X16085685Y10069893D01*
X16110802Y10018517D01*
X16117574Y10011745D01*
X16117577Y10011742D01*
X16148158Y9951717D01*
X16149499Y9934670D01*
X16149500Y9713433D01*
X16149500Y9586564D01*
X16156710Y9564373D01*
X16160701Y9547749D01*
X16164352Y9524701D01*
X16164353Y9524698D01*
X16164354Y9524696D01*
X16174949Y9503901D01*
X16181492Y9488107D01*
X16188704Y9465910D01*
X16201657Y9448081D01*
X16222472Y9384012D01*
X16201653Y9319944D01*
X16190547Y9306941D01*
X16146951Y9263345D01*
X16089353Y9150304D01*
X16074500Y9056520D01*
X16074500Y8443485D01*
X16074501Y8443480D01*
X16089353Y8349698D01*
X16089353Y8349697D01*
X16089354Y8349696D01*
X16146950Y8236658D01*
X16236658Y8146950D01*
X16349696Y8089354D01*
X16443481Y8074500D01*
X16906518Y8074501D01*
X17000304Y8089354D01*
X17113342Y8146950D01*
X17203050Y8236658D01*
X17260646Y8349696D01*
X17275500Y8443481D01*
X17275499Y9056518D01*
X17260646Y9150304D01*
X17203050Y9263342D01*
X17113342Y9353050D01*
X17107425Y9358967D01*
X17076842Y9418991D01*
X17075500Y9436042D01*
X17075500Y9578200D01*
X17075501Y9578200D01*
X17075499Y9578206D01*
X17075500Y9588433D01*
X17068286Y9610633D01*
X17064295Y9627262D01*
X17062577Y9638107D01*
X17060646Y9650304D01*
X17050048Y9671103D01*
X17043505Y9686901D01*
X17036296Y9709089D01*
X17022576Y9727974D01*
X17013646Y9742546D01*
X17003050Y9763342D01*
X16997608Y9768784D01*
X16982424Y9783969D01*
X16951842Y9843993D01*
X16950500Y9861042D01*
X16950500Y9934670D01*
X16971317Y9998739D01*
X16982419Y10011739D01*
X16989198Y10018517D01*
X17040573Y10123607D01*
X17050500Y10191740D01*
X17050500Y11433260D01*
X17040573Y11501393D01*
X16989198Y11606483D01*
X16906483Y11689198D01*
X16906481Y11689199D01*
X16906482Y11689199D01*
X16801391Y11740574D01*
X16733262Y11750500D01*
X16733260Y11750500D01*
X16366740Y11750500D01*
X16366738Y11750500D01*
X16298609Y11740574D01*
X16298607Y11740574D01*
X16193518Y11689199D01*
X16110801Y11606482D01*
X16059426Y11501393D01*
X16059426Y11501391D01*
X16049500Y11433263D01*
X16049500Y11334500D01*
X16028683Y11270431D01*
X15974183Y11230835D01*
X15940500Y11225500D01*
X15436041Y11225500D01*
X15371972Y11246317D01*
X15358966Y11257426D01*
X15263344Y11353049D01*
X15150303Y11410647D01*
X15056519Y11425500D01*
X14443484Y11425500D01*
X14443479Y11425499D01*
X14349697Y11410647D01*
X14236657Y11353050D01*
X14146950Y11263343D01*
X14089353Y11150304D01*
X14074500Y11056520D01*
X14074500Y10593485D01*
X7800500Y10593485D01*
X7800500Y11370760D01*
X7790573Y11438893D01*
X7739198Y11543983D01*
X7682423Y11600758D01*
X7651842Y11660779D01*
X7650500Y11677830D01*
X7650500Y11728171D01*
X7671317Y11792240D01*
X7725817Y11831836D01*
X7793183Y11831836D01*
X7836572Y11805247D01*
X7893517Y11748302D01*
X7998607Y11696927D01*
X8066737Y11687001D01*
X8066738Y11687000D01*
X8066740Y11687000D01*
X8433262Y11687000D01*
X8433262Y11687001D01*
X8501393Y11696927D01*
X8606483Y11748302D01*
X8689198Y11831017D01*
X8740573Y11936107D01*
X8750500Y12004240D01*
X8750500Y13245760D01*
X8740573Y13313893D01*
X8689198Y13418983D01*
X8682421Y13425760D01*
X8651841Y13485784D01*
X8650500Y13502831D01*
X8650500Y15665500D01*
X8671317Y15729569D01*
X8725817Y15769165D01*
X8759500Y15774500D01*
X8904267Y15774500D01*
X8911874Y15775214D01*
X8934699Y15777354D01*
X9062882Y15822207D01*
X9172150Y15902850D01*
X9252793Y16012118D01*
X9297646Y16140301D01*
X9299990Y16165300D01*
X9300500Y16170733D01*
X9300500Y17779268D01*
X9299073Y17794483D01*
X9297646Y17809699D01*
X9252793Y17937882D01*
X9252789Y17937888D01*
X9172153Y18047147D01*
X9172146Y18047154D01*
X9062887Y18127790D01*
X9062882Y18127793D01*
X8934700Y18172646D01*
X8934696Y18172647D01*
X8904267Y18175500D01*
X8904266Y18175500D01*
X7595734Y18175500D01*
X7595733Y18175500D01*
X7565303Y18172647D01*
X7565299Y18172646D01*
X7437117Y18127793D01*
X7437112Y18127790D01*
X7327853Y18047154D01*
X7327846Y18047147D01*
X7247210Y17937888D01*
X7247207Y17937883D01*
X7202354Y17809701D01*
X7202353Y17809697D01*
X7199500Y17779268D01*
X7199500Y16170733D01*
X7202353Y16140304D01*
X7202354Y16140300D01*
X7247207Y16012118D01*
X7247210Y16012113D01*
X7327846Y15902854D01*
X7327853Y15902847D01*
X7437112Y15822211D01*
X7437115Y15822210D01*
X7437118Y15822207D01*
X7565301Y15777354D01*
X7585589Y15775452D01*
X7595733Y15774500D01*
X7595734Y15774500D01*
X7740500Y15774500D01*
X7804569Y15753683D01*
X7844165Y15699183D01*
X7849500Y15665500D01*
X7849499Y13502831D01*
X7828682Y13438762D01*
X7817579Y13425762D01*
X7810806Y13418989D01*
X7810801Y13418983D01*
X7759426Y13313893D01*
X7759426Y13313891D01*
X7749500Y13245763D01*
X7749500Y12911103D01*
X7728683Y12847034D01*
X7674183Y12807438D01*
X7606817Y12807438D01*
X7566677Y12830908D01*
X7543558Y12852190D01*
X7541932Y12853751D01*
X7256535Y13139147D01*
X7242357Y13156607D01*
X7236436Y13165670D01*
X7236435Y13165671D01*
X7225597Y13174106D01*
X7210128Y13186146D01*
X7205067Y13190616D01*
X7202310Y13193373D01*
X7185478Y13205390D01*
X7183671Y13206738D01*
X7144122Y13237520D01*
X7137679Y13241007D01*
X7131067Y13244240D01*
X7083025Y13258543D01*
X7080896Y13259226D01*
X7068795Y13263380D01*
X7033491Y13275500D01*
X7026234Y13276710D01*
X7018956Y13277617D01*
X7018954Y13277617D01*
X7011988Y13277329D01*
X6968893Y13275547D01*
X6966640Y13275500D01*
X6214603Y13275500D01*
X6150534Y13296317D01*
X6117483Y13335015D01*
X6103049Y13363343D01*
X6013344Y13453049D01*
X5900303Y13510647D01*
X5806519Y13525500D01*
X5193484Y13525500D01*
X5193479Y13525499D01*
X5099697Y13510647D01*
X4986657Y13453050D01*
X4896950Y13363343D01*
X4839353Y13250304D01*
X4824500Y13156520D01*
X4824500Y12693485D01*
X2950500Y12693485D01*
X2950500Y18518247D01*
X2971317Y18582316D01*
X2982425Y18595322D01*
X3404678Y19017575D01*
X3464702Y19048158D01*
X3481753Y19049500D01*
X5190500Y19049500D01*
X5254569Y19028683D01*
X5294165Y18974183D01*
X5299500Y18940500D01*
X5299500Y18140685D01*
X5278683Y18076616D01*
X5241883Y18044556D01*
X5163555Y18002688D01*
X5163552Y18002687D01*
X5163550Y18002685D01*
X5163547Y18002684D01*
X5163549Y18002684D01*
X5003594Y17871414D01*
X5003586Y17871406D01*
X4872316Y17711451D01*
X4872312Y17711445D01*
X4774770Y17528959D01*
X4774769Y17528957D01*
X4774768Y17528954D01*
X4714700Y17330934D01*
X4699500Y17176608D01*
X4699500Y16773392D01*
X4714700Y16619066D01*
X4774768Y16421046D01*
X4872315Y16238550D01*
X5003590Y16078590D01*
X5163550Y15947315D01*
X5346046Y15849768D01*
X5544066Y15789700D01*
X5733054Y15771087D01*
X5749999Y15769417D01*
X5750000Y15769417D01*
X5750001Y15769417D01*
X5765657Y15770960D01*
X5955934Y15789700D01*
X6153954Y15849768D01*
X6336450Y15947315D01*
X6496410Y16078590D01*
X6627685Y16238550D01*
X6725232Y16421046D01*
X6785300Y16619066D01*
X6800500Y16773392D01*
X6800500Y17176608D01*
X6785300Y17330934D01*
X6725232Y17528954D01*
X6627685Y17711450D01*
X6496410Y17871410D01*
X6336450Y18002685D01*
X6289679Y18027685D01*
X6258117Y18044556D01*
X6211427Y18093117D01*
X6200500Y18140685D01*
X6200500Y18940500D01*
X6221317Y19004569D01*
X6275817Y19044165D01*
X6309500Y19049500D01*
X14440500Y19049500D01*
X14504569Y19028683D01*
X14544165Y18974183D01*
X14549500Y18940500D01*
X14549500Y18165685D01*
X14528683Y18101616D01*
X14491883Y18069556D01*
X14413555Y18027688D01*
X14413552Y18027687D01*
X14413550Y18027685D01*
X14413547Y18027684D01*
X14413549Y18027684D01*
X14253594Y17896414D01*
X14253586Y17896406D01*
X14122316Y17736451D01*
X14122312Y17736445D01*
X14024770Y17553959D01*
X14024769Y17553957D01*
X14024768Y17553954D01*
X13964700Y17355934D01*
X13949500Y17201608D01*
X13949500Y16798392D01*
X13964700Y16644066D01*
X14024768Y16446046D01*
X14122315Y16263550D01*
X14253590Y16103590D01*
X14413550Y15972315D01*
X14596046Y15874768D01*
X14794066Y15814700D01*
X14983054Y15796087D01*
X14999999Y15794417D01*
X15000000Y15794417D01*
X15000001Y15794417D01*
X15015657Y15795960D01*
X15205934Y15814700D01*
X15403954Y15874768D01*
X15586450Y15972315D01*
X15746410Y16103590D01*
X15822029Y16195733D01*
X16449499Y16195733D01*
X16452353Y16165304D01*
X16452354Y16165300D01*
X16497207Y16037118D01*
X16497210Y16037113D01*
X16577846Y15927854D01*
X16577853Y15927847D01*
X16687112Y15847211D01*
X16687115Y15847210D01*
X16687118Y15847207D01*
X16815301Y15802354D01*
X16835589Y15800452D01*
X16845733Y15799500D01*
X16845734Y15799500D01*
X16990500Y15799500D01*
X17054569Y15778683D01*
X17094165Y15724183D01*
X17099500Y15690500D01*
X17099500Y13565331D01*
X17078683Y13501262D01*
X17067578Y13488259D01*
X17060802Y13481483D01*
X17060801Y13481483D01*
X17009426Y13376393D01*
X17009426Y13376391D01*
X16999500Y13308263D01*
X16999500Y12066738D01*
X17009426Y11998610D01*
X17009426Y11998608D01*
X17039981Y11936107D01*
X17060802Y11893517D01*
X17143517Y11810802D01*
X17248607Y11759427D01*
X17316737Y11749501D01*
X17316738Y11749500D01*
X17316740Y11749500D01*
X17683262Y11749500D01*
X17683262Y11749501D01*
X17751393Y11759427D01*
X17856483Y11810802D01*
X17939198Y11893517D01*
X17990573Y11998607D01*
X18000500Y12066740D01*
X18000500Y13308260D01*
X17990573Y13376393D01*
X17939198Y13481483D01*
X17932422Y13488259D01*
X17901841Y13548284D01*
X17900500Y13565331D01*
X17900500Y15690500D01*
X17921317Y15754569D01*
X17975817Y15794165D01*
X18009500Y15799500D01*
X18154267Y15799500D01*
X18161874Y15800214D01*
X18184699Y15802354D01*
X18312882Y15847207D01*
X18422150Y15927850D01*
X18502793Y16037118D01*
X18547646Y16165301D01*
X18550500Y16195734D01*
X18550500Y17804266D01*
X18549990Y17809699D01*
X18547646Y17834697D01*
X18547645Y17834701D01*
X18502793Y17962882D01*
X18502789Y17962888D01*
X18422153Y18072147D01*
X18422146Y18072154D01*
X18312887Y18152790D01*
X18312882Y18152793D01*
X18184700Y18197646D01*
X18184696Y18197647D01*
X18154267Y18200500D01*
X18154266Y18200500D01*
X16845734Y18200500D01*
X16845733Y18200500D01*
X16815303Y18197647D01*
X16815299Y18197646D01*
X16687117Y18152793D01*
X16687112Y18152790D01*
X16577853Y18072154D01*
X16577846Y18072147D01*
X16497210Y17962888D01*
X16497207Y17962883D01*
X16452354Y17834701D01*
X16452353Y17834697D01*
X16449499Y17804268D01*
X16449499Y16195733D01*
X15822029Y16195733D01*
X15877685Y16263550D01*
X15975232Y16446046D01*
X16035300Y16644066D01*
X16050500Y16798392D01*
X16050500Y17201608D01*
X16035300Y17355934D01*
X15975232Y17553954D01*
X15877685Y17736450D01*
X15746410Y17896410D01*
X15586450Y18027685D01*
X15550027Y18047154D01*
X15508117Y18069556D01*
X15461427Y18118117D01*
X15450500Y18165685D01*
X15450500Y18940500D01*
X15471317Y19004569D01*
X15525817Y19044165D01*
X15559500Y19049500D01*
X24193246Y19049500D01*
X24257315Y19028683D01*
X24270321Y19017575D01*
X24657267Y18630629D01*
X24687850Y18570605D01*
X24677312Y18504069D01*
X24657267Y18476479D01*
X23936894Y17756106D01*
X23935906Y17755143D01*
X23875085Y17697328D01*
X23875079Y17697321D01*
X23841692Y17649354D01*
X23839199Y17646049D01*
X23802264Y17600749D01*
X23787028Y17571581D01*
X23783451Y17565677D01*
X23764645Y17538656D01*
X23741599Y17484953D01*
X23739823Y17481212D01*
X23712765Y17429413D01*
X23712763Y17429406D01*
X23703708Y17397763D01*
X23701392Y17391260D01*
X23688413Y17361014D01*
X23676648Y17303767D01*
X23675661Y17299747D01*
X23659582Y17243552D01*
X23659582Y17243549D01*
X23657083Y17210734D01*
X23656124Y17203897D01*
X23649500Y17171663D01*
X23649500Y17113209D01*
X23649343Y17109088D01*
X23647661Y17086999D01*
X23644904Y17050799D01*
X23644905Y17050798D01*
X23649062Y17018150D01*
X23649499Y17011259D01*
X23649499Y14962956D01*
X23643383Y14926957D01*
X23602354Y14809700D01*
X23602353Y14809697D01*
X23599500Y14779268D01*
X23599500Y13734500D01*
X23578683Y13670431D01*
X23524183Y13630835D01*
X23490500Y13625500D01*
X21288433Y13625500D01*
X21161567Y13625500D01*
X21152275Y13622482D01*
X21139371Y13618289D01*
X21122749Y13614299D01*
X21099696Y13610647D01*
X21099695Y13610647D01*
X21078896Y13600050D01*
X21063103Y13593508D01*
X21040913Y13586298D01*
X21022028Y13572578D01*
X21007454Y13563648D01*
X20986663Y13553054D01*
X20986655Y13553048D01*
X20964093Y13530486D01*
X20964090Y13530485D01*
X20964091Y13530484D01*
X20171952Y12738345D01*
X20171949Y12738341D01*
X20161354Y12717549D01*
X20152425Y12702979D01*
X20138705Y12684093D01*
X20138703Y12684089D01*
X20131491Y12661893D01*
X20124948Y12646096D01*
X20114352Y12625300D01*
X20110701Y12602251D01*
X20106711Y12585629D01*
X20099500Y12563434D01*
X20099499Y12563429D01*
X20099498Y12509846D01*
X20099500Y12509837D01*
X20099500Y7961043D01*
X20078683Y7896974D01*
X20067575Y7883968D01*
X19441032Y7257425D01*
X19381008Y7226842D01*
X19363957Y7225500D01*
X16461041Y7225500D01*
X16396972Y7246317D01*
X16383966Y7257426D01*
X16288344Y7353049D01*
X16175303Y7410647D01*
X16081519Y7425500D01*
X15468484Y7425500D01*
X15468479Y7425499D01*
X15374697Y7410647D01*
X15261657Y7353050D01*
X15171950Y7263343D01*
X15114353Y7150304D01*
X15099500Y7056520D01*
X15099500Y6593485D01*
X15099501Y6593480D01*
X15114353Y6499698D01*
X15114353Y6499697D01*
X15114354Y6499696D01*
X15171950Y6386658D01*
X15261658Y6296950D01*
X15374696Y6239354D01*
X15468481Y6224500D01*
X16081518Y6224501D01*
X16175304Y6239354D01*
X16288342Y6296950D01*
X16378050Y6386658D01*
X16383966Y6392574D01*
X16443989Y6423158D01*
X16461041Y6424500D01*
X19638433Y6424500D01*
X19660629Y6431713D01*
X19677246Y6435703D01*
X19700304Y6439354D01*
X19721096Y6449949D01*
X19736890Y6456492D01*
X19759090Y6463704D01*
X19777977Y6477428D01*
X19792540Y6486352D01*
X19813342Y6496950D01*
X19829687Y6513297D01*
X19829696Y6513303D01*
X20811697Y7495304D01*
X20811703Y7495313D01*
X20828050Y7511658D01*
X20838643Y7532450D01*
X20847581Y7547034D01*
X20861297Y7565911D01*
X20868509Y7588112D01*
X20875053Y7603909D01*
X20885646Y7624696D01*
X20889296Y7647743D01*
X20893287Y7664368D01*
X20900500Y7686567D01*
X20900500Y7813433D01*
X20900499Y12288958D01*
X20921316Y12353026D01*
X20932424Y12366032D01*
X21358968Y12792575D01*
X21418992Y12823158D01*
X21436043Y12824500D01*
X23490500Y12824500D01*
X23554569Y12803683D01*
X23594165Y12749183D01*
X23599500Y12715500D01*
X23599500Y11670733D01*
X23602353Y11640304D01*
X23602354Y11640300D01*
X23647207Y11512118D01*
X23647210Y11512113D01*
X23727846Y11402854D01*
X23727853Y11402847D01*
X23837112Y11322211D01*
X23837115Y11322210D01*
X23837118Y11322207D01*
X23965301Y11277354D01*
X23985589Y11275452D01*
X23995733Y11274500D01*
X23995734Y11274500D01*
X25204267Y11274500D01*
X25211874Y11275214D01*
X25234699Y11277354D01*
X25362882Y11322207D01*
X25472150Y11402850D01*
X25552793Y11512118D01*
X25597646Y11640301D01*
X25600500Y11670734D01*
X25600500Y14779266D01*
X25597646Y14809699D01*
X25588647Y14835416D01*
X25556616Y14926959D01*
X25550499Y14962959D01*
X25550499Y15802355D01*
X25550499Y16636144D01*
X25571316Y16700210D01*
X25582425Y16713216D01*
X26086786Y17217575D01*
X26146809Y17248158D01*
X26163860Y17249500D01*
X31407954Y17249500D01*
X31472023Y17228683D01*
X31485028Y17217575D01*
X31525996Y17176608D01*
X31541099Y17161505D01*
X31734670Y17025965D01*
X31948837Y16926097D01*
X32177092Y16864937D01*
X32367356Y16848291D01*
X32412498Y16844341D01*
X32412500Y16844341D01*
X32412502Y16844341D01*
X32453693Y16847946D01*
X32647908Y16864937D01*
X32876163Y16926097D01*
X33090330Y17025965D01*
X33283901Y17161505D01*
X33450995Y17328599D01*
X33586535Y17522170D01*
X33686403Y17736337D01*
X33747563Y17964592D01*
X33765766Y18172647D01*
X33768159Y18199998D01*
X33768159Y18200003D01*
X33762752Y18261791D01*
X33747563Y18435408D01*
X33686403Y18663663D01*
X33586535Y18877829D01*
X33450995Y19071401D01*
X33283901Y19238495D01*
X33090330Y19374035D01*
X33090329Y19374036D01*
X33090327Y19374037D01*
X32876170Y19473900D01*
X32876161Y19473904D01*
X32647910Y19535063D01*
X32412502Y19555659D01*
X32412498Y19555659D01*
X32177089Y19535063D01*
X31948838Y19473904D01*
X31948829Y19473900D01*
X31734676Y19374038D01*
X31734675Y19374037D01*
X31734671Y19374035D01*
X31573469Y19261161D01*
X31541096Y19238493D01*
X31485028Y19182425D01*
X31425004Y19151842D01*
X31407954Y19150500D01*
X25737735Y19150500D01*
X25736392Y19150517D01*
X25656594Y19152540D01*
X25652454Y19152644D01*
X25652449Y19152644D01*
X25594921Y19142334D01*
X25590821Y19141759D01*
X25532681Y19135846D01*
X25532676Y19135845D01*
X25514677Y19130198D01*
X25447315Y19130884D01*
X25404977Y19157126D01*
X24763605Y19798499D01*
X24759529Y19803060D01*
X24734882Y19833967D01*
X24734880Y19833968D01*
X24734879Y19833970D01*
X24710494Y19850596D01*
X24686561Y19866914D01*
X24684899Y19868093D01*
X24637885Y19902791D01*
X24637883Y19902792D01*
X24637882Y19902793D01*
X24637879Y19902794D01*
X24630658Y19906611D01*
X24630937Y19907140D01*
X24630291Y19907466D01*
X24630033Y19906928D01*
X24622672Y19910473D01*
X24566774Y19927715D01*
X24564852Y19928348D01*
X24509699Y19947646D01*
X24509695Y19947647D01*
X24501675Y19949164D01*
X24501785Y19949749D01*
X24501062Y19949872D01*
X24500974Y19949283D01*
X24492904Y19950500D01*
X24492902Y19950500D01*
X24492899Y19950500D01*
X24434452Y19950500D01*
X24432414Y19950538D01*
X24373990Y19952724D01*
X24365872Y19951809D01*
X24365804Y19952404D01*
X24351340Y19950500D01*
X15063042Y19950500D01*
X15038787Y19953233D01*
X15037247Y19953585D01*
X15034043Y19954316D01*
X15002236Y19951932D01*
X14985159Y19950652D01*
X14981102Y19950500D01*
X5813042Y19950500D01*
X5788787Y19953233D01*
X5787247Y19953585D01*
X5784043Y19954316D01*
X5752236Y19951932D01*
X5735159Y19950652D01*
X5731102Y19950500D01*
X3278367Y19950500D01*
X3272261Y19950843D01*
X3232966Y19955270D01*
X3232961Y19955270D01*
X3175502Y19944399D01*
X3173511Y19944061D01*
X3154183Y19941147D01*
X3115715Y19935349D01*
X3107906Y19932940D01*
X3107730Y19933508D01*
X3107044Y19933282D01*
X3107240Y19932722D01*
X3099528Y19930024D01*
X3047835Y19902702D01*
X3046016Y19901784D01*
X2993355Y19876424D01*
X2986610Y19871825D01*
X2986273Y19872319D01*
X2985679Y19871898D01*
X2986035Y19871416D01*
X2979458Y19866563D01*
X2938115Y19825221D01*
X2936649Y19823808D01*
X2893807Y19784058D01*
X2888716Y19777673D01*
X2888249Y19778045D01*
X2879365Y19766470D01*
X2201499Y19088604D01*
X2196939Y19084530D01*
X2166029Y19059879D01*
X2166027Y19059876D01*
X2133102Y19011585D01*
X2131924Y19009925D01*
X2097209Y18962886D01*
X2093392Y18955663D01*
X2092864Y18955942D01*
X2092535Y18955291D01*
X2093072Y18955032D01*
X2089527Y18947671D01*
X2072298Y18891816D01*
X2071661Y18889881D01*
X2052354Y18834702D01*
X2050837Y18826681D01*
X2050252Y18826792D01*
X2050128Y18826064D01*
X2050716Y18825975D01*
X2049500Y18817905D01*
X2049500Y18759453D01*
X2049462Y18757415D01*
X2047276Y18698991D01*
X2048191Y18690872D01*
X2047594Y18690805D01*
X2049500Y18676341D01*
X2049500Y11128367D01*
X2049157Y11122261D01*
X2044730Y11082967D01*
X2044730Y11082962D01*
X200500Y11082962D01*
X200500Y20491422D01*
X201842Y20508473D01*
X204078Y20522590D01*
X212458Y20575504D01*
X222993Y20607928D01*
X249863Y20660665D01*
X269902Y20688246D01*
X311754Y20730098D01*
X339335Y20750137D01*
X392072Y20777007D01*
X424496Y20787542D01*
X476874Y20795838D01*
X491528Y20798158D01*
X508579Y20799500D01*
X37891000Y20799500D01*
X37955069Y20778683D01*
G37*
%TD.AperFunction*%
%TD*%
%TA.AperFunction,Conductor*%
%TO.N,Net-(J3-Pin_1)*%
G36*
X101559191Y8881093D02*
G01*
X101595155Y8831593D01*
X101600000Y8801000D01*
X101600000Y399000D01*
X101581093Y340809D01*
X101531593Y304845D01*
X101501000Y300000D01*
X98499000Y300000D01*
X98440809Y318907D01*
X98404845Y368407D01*
X98400000Y399000D01*
X98400000Y4000000D01*
X74499000Y4000000D01*
X74440809Y4018907D01*
X74404845Y4068407D01*
X74400000Y4099000D01*
X74400000Y8801000D01*
X74418907Y8859191D01*
X74468407Y8895155D01*
X74499000Y8900000D01*
X101501000Y8900000D01*
X101559191Y8881093D01*
G37*
%TD.AperFunction*%
%TD*%
%TA.AperFunction,Conductor*%
%TO.N,Net-(J1-Pin_1)*%
G36*
X101559191Y20681093D02*
G01*
X101595155Y20631593D01*
X101600000Y20601000D01*
X101600000Y12199000D01*
X101581093Y12140809D01*
X101531593Y12104845D01*
X101501000Y12100000D01*
X74499000Y12100000D01*
X74440809Y12118907D01*
X74404845Y12168407D01*
X74400000Y12199000D01*
X74400000Y17101000D01*
X74418907Y17159191D01*
X74468407Y17195155D01*
X74499000Y17200000D01*
X98399999Y17200000D01*
X98400000Y17200000D01*
X98400000Y20601000D01*
X98418907Y20659191D01*
X98468407Y20695155D01*
X98499000Y20700000D01*
X101501000Y20700000D01*
X101559191Y20681093D01*
G37*
%TD.AperFunction*%
%TD*%
M02*
