M48
INCH
T1C0.0079
T2C0.0315
T3C0.0394
T4C0.0472
T5C0.0512
%
G90
G05
T1
X0.0591Y0.6299
X0.0591Y0.4724
X0.1575Y0.5118
X0.2756Y0.0394
X0.315Y0.1181
X0.4134Y0.2362
X0.4331Y0.5118
X0.4528Y0.7283
X0.4724Y0.4134
X0.5315Y0.4724
X0.7283Y0.1772
X0.7677Y0.374
X0.7874Y0.5315
X0.8071Y0.2362
X0.8465Y0.6299
X0.8858Y0.2559
X0.8858Y0.1772
X0.9055Y0.7087
X0.9055Y0.0591
X1.063Y0.2559
X1.0827Y0.7874
X1.1024Y0.6102
X1.122Y0.1772
X1.2205Y0.7874
X1.2205Y0.6102
X1.2205Y0.4331
X1.2205Y0.2362
X1.2205Y0.0394
X1.3189Y0.5315
X1.3189Y0.3346
X1.3189Y0.1969
X1.3976Y0.7677
X1.3976Y0.6102
X1.3976Y0.4331
X1.3976Y0.2362
X1.3976Y0.0394
T2
X3.5591Y0.2667
X3.6929Y0.562
T3
X0.0797Y0.2787
X0.0797Y0.1787
X0.0797Y0.0787
X0.1797Y0.2787
X0.1797Y0.1787
X0.1797Y0.0787
X0.2264Y0.6683
X0.3248Y0.6683
X0.4211Y0.0886
X0.5211Y0.0886
X0.5906Y0.6693
X0.6211Y0.0886
X0.689Y0.6693
X0.7211Y0.0886
X1.2761Y0.7165
X1.2761Y0.1102
X2.4336Y0.5118
X2.4336Y0.315
X3.2913Y0.6112
X3.2913Y0.2175
T4
X2.7205Y0.5719
X2.7205Y0.2569
X2.9961Y0.5719
X2.9961Y0.2569
T5
X3.937Y0.7457
X3.937Y0.5457
X3.937Y0.2811
X3.937Y0.0811
T0
M30
